{"glyphs":{"0":{"ha":658,"x_min":56,"x_max":729,"o":"m 294 1 q 157 42 210 1 q 80 152 104 83 q 56 304 56 221 q 91 536 56 411 q 196 775 126 661 q 349 951 263 882 q 528 1021 435 1021 q 642 976 597 1021 q 708 854 686 931 q 729 683 729 778 q 701 450 729 567 q 617 231 672 333 q 478 65 561 129 q 294 1 396 1 m 336 235 q 431 269 389 235 q 504 357 474 303 q 551 472 535 411 q 568 588 568 533 q 545 689 568 647 q 472 731 522 731 q 394 692 432 731 q 328 595 357 654 q 281 470 299 536 q 264 350 264 404 q 281 267 264 299 q 336 235 297 235 z "},"1":{"ha":444,"x_min":101,"x_max":554,"o":"m 126 6 l 181 256 q 201 358 189 297 q 227 485 214 418 q 251 611 240 551 q 269 713 263 671 q 204 704 235 710 l 150 696 q 101 688 122 690 q 105 713 103 697 q 110 747 107 728 l 122 828 q 128 877 125 851 q 136 931 132 903 q 174 938 151 933 q 225 949 197 943 l 354 969 q 444 984 394 976 q 554 1001 494 992 q 456 538 499 768 q 374 60 413 307 q 300 40 342 50 q 218 24 258 31 q 173 14 196 18 q 126 6 150 10 z "},"2":{"ha":649,"x_min":1,"x_max":747,"o":"m 1 13 l 25 188 q 67 277 29 229 q 161 374 106 325 q 272 465 217 424 q 383 551 331 510 q 469 629 436 593 q 503 690 503 665 q 487 755 503 732 q 447 778 471 778 q 382 743 401 778 q 363 665 363 708 l 363 651 q 364 646 363 647 q 326 643 346 644 q 286 639 306 642 q 249 636 268 638 q 210 632 231 635 q 167 627 188 629 q 125 622 146 625 q 123 645 124 633 q 122 667 122 657 q 153 813 122 749 q 237 922 185 878 q 353 990 289 967 q 481 1013 417 1013 q 612 983 551 1013 q 710 891 672 953 q 747 735 747 829 q 711 599 747 665 q 611 471 675 533 q 460 347 547 407 q 269 233 372 288 q 419 239 332 233 q 621 254 506 244 l 599 53 q 436 42 533 47 q 236 29 339 36 l 1 13 z "},"3":{"ha":636,"x_min":14,"x_max":719,"o":"m 243 -17 q 127 3 179 -17 q 44 65 75 24 q 14 171 14 107 q 26 242 14 203 l 269 256 q 283 215 269 228 q 318 203 297 203 q 371 218 343 203 q 419 259 399 233 q 439 314 439 285 q 407 375 439 347 q 301 403 375 403 q 248 401 275 403 q 194 396 221 399 q 146 389 168 392 q 106 385 124 386 l 131 590 q 217 647 172 617 q 297 704 261 676 q 340 735 319 719 q 379 767 360 751 l 156 763 l 172 1001 q 294 1007 236 1004 q 407 1013 353 1010 q 583 1017 510 1013 q 719 1022 656 1022 l 686 726 l 408 581 q 609 492 551 554 q 667 356 667 431 q 632 224 667 290 q 538 104 597 158 q 402 17 478 50 q 243 -17 326 -17 z "},"4":{"ha":638,"x_min":31,"x_max":699,"o":"m 303 -3 l 331 219 l 92 201 l 31 326 l 118 589 q 192 813 158 707 q 250 989 225 919 q 360 992 308 989 q 472 1004 413 996 q 377 744 421 875 q 292 479 333 614 q 285 446 290 461 l 383 446 q 403 555 392 503 q 424 663 414 607 q 439 747 431 703 q 457 839 447 792 l 547 851 q 625 861 585 857 q 694 868 665 865 q 682 791 693 846 q 658 657 671 736 q 640 551 650 608 q 619 446 629 493 l 699 446 l 642 224 l 571 224 l 558 42 l 303 -3 z "},"5":{"ha":625,"x_min":61,"x_max":717,"o":"m 286 -7 q 121 61 181 -7 q 61 240 61 129 q 63 296 61 267 q 68 357 65 325 l 282 340 q 275 307 275 317 q 292 267 275 279 q 331 254 308 254 q 403 288 369 254 q 438 386 438 321 q 409 447 438 422 q 290 472 381 472 q 256 471 275 472 q 201 465 238 469 q 96 447 165 460 q 133 687 111 551 q 188 993 156 822 l 717 1013 l 689 786 q 611 783 650 785 q 532 781 572 782 q 451 778 492 779 q 368 774 410 776 l 354 657 q 506 640 443 657 q 607 594 568 624 q 663 526 646 565 q 681 438 681 486 q 647 291 681 369 q 551 143 613 213 q 419 33 489 72 q 286 -7 350 -7 z "},"6":{"ha":664,"x_min":72,"x_max":739,"o":"m 363 7 q 218 46 285 7 q 112 161 151 85 q 72 351 72 238 q 118 648 72 521 q 232 860 164 775 q 381 984 301 943 q 532 1025 461 1025 q 685 956 632 1025 q 739 785 739 888 l 549 694 q 497 793 549 793 q 446 756 474 793 q 392 659 418 718 q 350 532 367 600 q 409 546 381 542 q 464 550 438 550 q 592 516 540 550 q 672 427 644 482 q 699 311 699 372 q 661 167 699 236 q 549 52 624 97 q 363 7 475 7 m 386 215 q 479 251 442 215 q 517 326 517 286 q 493 365 517 349 q 408 382 471 382 q 367 379 389 382 q 319 368 346 376 q 318 360 318 364 q 318 351 318 356 l 318 335 q 339 243 318 271 q 386 215 360 215 z "},"7":{"ha":471,"x_min":40,"x_max":642,"o":"m 40 13 l 317 772 l 111 742 l 154 986 l 642 1028 l 289 35 l 40 13 z "},"8":{"ha":719,"x_min":28,"x_max":817,"o":"m 315 -15 q 167 8 232 -15 q 65 83 103 32 q 28 214 28 133 q 51 345 28 278 q 122 468 74 413 q 250 551 171 524 q 184 629 204 589 q 164 713 164 669 q 200 831 164 774 q 297 933 236 888 q 433 1006 358 979 q 582 1033 507 1033 q 713 1003 661 1033 q 791 926 765 974 q 817 822 817 878 q 773 678 817 750 q 649 571 729 607 q 719 463 697 519 q 740 351 740 407 q 707 213 740 279 q 615 96 674 147 q 480 15 557 44 q 315 -15 403 -15 m 457 613 q 524 634 492 613 q 577 685 556 656 q 599 740 599 715 q 567 792 599 776 q 501 807 535 807 q 412 770 442 807 q 382 692 382 733 q 402 637 382 661 q 457 613 422 613 m 353 197 q 492 238 451 197 q 532 326 532 278 q 502 426 532 397 q 432 454 472 454 q 338 428 385 454 q 260 364 292 403 q 229 285 229 325 q 257 224 229 250 q 353 197 285 197 z "},"9":{"ha":679,"x_min":97,"x_max":756,"o":"m 203 10 l 224 240 q 388 303 318 240 q 483 474 457 365 q 416 444 451 454 q 346 435 381 435 q 226 468 283 435 q 133 563 169 501 q 97 708 97 625 q 146 885 97 813 q 270 994 194 957 q 426 1032 346 1032 q 586 991 511 1032 q 708 867 661 950 q 756 654 756 783 q 708 394 756 513 q 583 190 661 276 q 407 58 506 106 q 203 10 308 10 m 421 647 q 485 667 456 647 q 514 724 514 686 q 491 809 514 788 q 436 831 468 831 q 386 819 413 831 q 342 786 360 807 q 324 735 324 765 q 354 668 324 689 q 421 647 385 647 z "},"A":{"ha":601,"x_min":-29,"x_max":644,"o":"m 360 3 q 365 49 363 26 q 371 93 368 71 l 379 171 q 382 207 381 190 q 385 238 383 224 l 264 238 l 208 38 q 136 28 178 33 q 58 19 94 24 q 15 14 36 17 q -29 8 -7 11 l 81 372 q 125 521 100 438 q 176 692 150 604 q 224 856 201 779 q 261 986 247 933 q 453 1003 356 993 q 644 1029 551 1013 q 631 853 638 951 q 620 651 625 756 q 610 446 615 547 q 603 248 607 350 q 594 39 599 146 q 553 33 574 36 q 511 28 532 31 q 435 15 476 22 q 360 3 393 8 m 297 376 q 328 378 306 376 q 372 381 351 379 q 397 382 393 382 q 403 456 397 400 q 414 572 408 511 q 420 647 417 608 q 428 725 424 685 l 436 846 l 415 844 l 383 725 l 297 376 z "},"Á":{"ha":601,"x_min":-29,"x_max":650,"o":"m 360 3 q 365 49 363 26 q 371 93 368 71 l 379 171 q 382 207 381 190 q 385 238 383 224 l 264 238 l 208 38 q 136 28 178 33 q 58 19 94 24 q 15 14 36 17 q -29 8 -7 11 l 81 372 q 125 521 100 438 q 176 692 150 604 q 224 856 201 779 q 261 986 247 933 q 453 1003 356 993 q 644 1029 551 1013 q 631 853 638 951 q 620 651 625 756 q 610 446 615 547 q 603 248 607 350 q 594 39 599 146 q 553 33 574 36 q 511 28 532 31 q 435 15 476 22 q 360 3 393 8 m 297 376 q 328 378 306 376 q 372 381 351 379 q 397 382 393 382 q 403 456 397 400 q 414 572 408 511 q 420 647 417 608 q 428 725 424 685 l 436 846 l 415 844 l 383 725 l 297 376 m 297 1042 q 296 1056 296 1049 q 296 1069 296 1064 l 296 1094 q 296 1117 296 1106 q 297 1140 296 1129 l 297 1188 q 389 1278 344 1236 q 475 1358 433 1321 q 556 1435 517 1396 q 631 1513 594 1474 q 639 1339 638 1418 q 642 1258 639 1299 q 650 1174 644 1217 q 565 1140 610 1157 q 474 1107 521 1124 q 382 1073 426 1089 q 297 1042 338 1057 z "},"Ă":{"ha":601,"x_min":-29,"x_max":668,"o":"m 360 3 q 365 49 363 26 q 371 93 368 71 l 379 171 q 382 207 381 190 q 385 238 383 224 l 264 238 l 208 38 q 136 28 178 33 q 58 19 94 24 q 15 14 36 17 q -29 8 -7 11 l 81 372 q 125 521 100 438 q 176 692 150 604 q 224 856 201 779 q 261 986 247 933 q 453 1003 356 993 q 644 1029 551 1013 q 631 853 638 951 q 620 651 625 756 q 610 446 615 547 q 603 248 607 350 q 594 39 599 146 q 553 33 574 36 q 511 28 532 31 q 435 15 476 22 q 360 3 393 8 m 297 376 q 328 378 306 376 q 372 381 351 379 q 397 382 393 382 q 403 456 397 400 q 414 572 408 511 q 420 647 417 608 q 428 725 424 685 l 436 846 l 415 844 l 383 725 l 297 376 m 424 1069 q 333 1106 374 1069 q 272 1199 293 1143 q 254 1314 251 1256 l 285 1342 q 300 1356 292 1349 q 317 1369 308 1363 q 332 1383 324 1376 q 350 1397 340 1390 q 359 1329 349 1364 q 389 1271 369 1294 q 435 1247 408 1247 q 503 1268 481 1247 q 544 1321 526 1288 q 589 1411 561 1354 q 621 1384 607 1396 q 646 1361 635 1372 l 668 1339 q 622 1214 656 1276 q 538 1110 588 1151 q 424 1069 488 1069 z "},"Ắ":{"ha":601,"x_min":-29,"x_max":728,"o":"m 360 3 q 365 49 363 26 q 371 93 368 71 l 379 171 q 382 207 381 190 q 385 238 383 224 l 264 238 l 208 38 q 136 28 178 33 q 58 19 94 24 q 15 14 36 17 q -29 8 -7 11 l 81 372 q 125 521 100 438 q 176 692 150 604 q 224 856 201 779 q 261 986 247 933 q 453 1003 356 993 q 644 1029 551 1013 q 631 853 638 951 q 620 651 625 756 q 610 446 615 547 q 603 248 607 350 q 594 39 599 146 q 553 33 574 36 q 511 28 532 31 q 435 15 476 22 q 360 3 393 8 m 297 376 q 328 378 306 376 q 372 381 351 379 q 397 382 393 382 q 403 456 397 400 q 414 572 408 511 q 420 647 417 608 q 428 725 424 685 l 436 846 l 415 844 l 383 725 l 297 376 m 424 1069 q 333 1106 374 1069 q 272 1199 293 1143 q 254 1314 251 1256 l 285 1342 q 300 1356 292 1349 q 317 1369 308 1363 q 332 1383 324 1376 q 350 1397 340 1390 q 359 1329 349 1364 q 389 1271 369 1294 q 435 1247 408 1247 q 503 1268 481 1247 q 544 1321 526 1288 q 589 1411 561 1354 q 621 1384 607 1396 q 646 1361 635 1372 l 668 1339 q 622 1214 656 1276 q 538 1110 588 1151 q 424 1069 488 1069 m 375 1442 q 374 1456 374 1449 q 374 1469 374 1464 l 374 1494 q 374 1517 374 1506 q 375 1540 374 1529 l 375 1588 q 467 1678 422 1636 q 553 1758 511 1721 q 633 1835 594 1796 q 708 1913 672 1874 q 717 1739 715 1818 q 719 1658 717 1699 q 728 1574 722 1617 q 643 1540 688 1557 q 551 1507 599 1524 q 460 1473 504 1489 q 375 1442 415 1457 z "},"Ặ":{"ha":601,"x_min":-29,"x_max":668,"o":"m 360 3 q 365 49 363 26 q 371 93 368 71 l 379 171 q 382 207 381 190 q 385 238 383 224 l 264 238 l 208 38 q 136 28 178 33 q 58 19 94 24 q 15 14 36 17 q -29 8 -7 11 l 81 372 q 125 521 100 438 q 176 692 150 604 q 224 856 201 779 q 261 986 247 933 q 453 1003 356 993 q 644 1029 551 1013 q 631 853 638 951 q 620 651 625 756 q 610 446 615 547 q 603 248 607 350 q 594 39 599 146 q 553 33 574 36 q 511 28 532 31 q 435 15 476 22 q 360 3 393 8 m 297 376 q 328 378 306 376 q 372 381 351 379 q 397 382 393 382 q 403 456 397 400 q 414 572 408 511 q 420 647 417 608 q 428 725 424 685 l 436 846 l 415 844 l 383 725 l 297 376 m 282 -285 q 199 -249 226 -285 q 171 -165 171 -212 q 201 -81 171 -121 q 296 -42 232 -42 q 397 -76 364 -42 q 429 -156 429 -111 q 391 -244 429 -204 q 282 -285 353 -285 m 424 1069 q 333 1106 374 1069 q 272 1199 293 1143 q 254 1314 251 1256 l 285 1342 q 300 1356 292 1349 q 317 1369 308 1363 q 332 1383 324 1376 q 350 1397 340 1390 q 359 1329 349 1364 q 389 1271 369 1294 q 435 1247 408 1247 q 503 1268 481 1247 q 544 1321 526 1288 q 589 1411 561 1354 q 621 1384 607 1396 q 646 1361 635 1372 l 668 1339 q 622 1214 656 1276 q 538 1110 588 1151 q 424 1069 488 1069 z "},"Ằ":{"ha":601,"x_min":-29,"x_max":668,"o":"m 360 3 q 365 49 363 26 q 371 93 368 71 l 379 171 q 382 207 381 190 q 385 238 383 224 l 264 238 l 208 38 q 136 28 178 33 q 58 19 94 24 q 15 14 36 17 q -29 8 -7 11 l 81 372 q 125 521 100 438 q 176 692 150 604 q 224 856 201 779 q 261 986 247 933 q 453 1003 356 993 q 644 1029 551 1013 q 631 853 638 951 q 620 651 625 756 q 610 446 615 547 q 603 248 607 350 q 594 39 599 146 q 553 33 574 36 q 511 28 532 31 q 435 15 476 22 q 360 3 393 8 m 297 376 q 328 378 306 376 q 372 381 351 379 q 397 382 393 382 q 403 456 397 400 q 414 572 408 511 q 420 647 417 608 q 428 725 424 685 l 436 846 l 415 844 l 383 725 l 297 376 m 424 1069 q 333 1106 374 1069 q 272 1199 293 1143 q 254 1314 251 1256 l 285 1342 q 300 1356 292 1349 q 317 1369 308 1363 q 332 1383 324 1376 q 350 1397 340 1390 q 359 1329 349 1364 q 389 1271 369 1294 q 435 1247 408 1247 q 503 1268 481 1247 q 544 1321 526 1288 q 589 1411 561 1354 q 621 1384 607 1396 q 646 1361 635 1372 l 668 1339 q 622 1214 656 1276 q 538 1110 588 1151 q 424 1069 488 1069 m 538 1444 q 468 1461 503 1453 q 401 1478 433 1469 q 285 1506 344 1490 q 185 1535 225 1522 q 204 1633 193 1575 q 225 1744 215 1690 l 250 1875 q 305 1817 278 1846 q 358 1761 332 1789 q 456 1657 404 1713 q 547 1557 508 1601 l 538 1444 z "},"Ẳ":{"ha":601,"x_min":-29,"x_max":668,"o":"m 360 3 q 365 49 363 26 q 371 93 368 71 l 379 171 q 382 207 381 190 q 385 238 383 224 l 264 238 l 208 38 q 136 28 178 33 q 58 19 94 24 q 15 14 36 17 q -29 8 -7 11 l 81 372 q 125 521 100 438 q 176 692 150 604 q 224 856 201 779 q 261 986 247 933 q 453 1003 356 993 q 644 1029 551 1013 q 631 853 638 951 q 620 651 625 756 q 610 446 615 547 q 603 248 607 350 q 594 39 599 146 q 553 33 574 36 q 511 28 532 31 q 435 15 476 22 q 360 3 393 8 m 297 376 q 328 378 306 376 q 372 381 351 379 q 397 382 393 382 q 403 456 397 400 q 414 572 408 511 q 420 647 417 608 q 428 725 424 685 l 436 846 l 415 844 l 383 725 l 297 376 m 424 1069 q 333 1106 374 1069 q 272 1199 293 1143 q 254 1314 251 1256 l 285 1342 q 300 1356 292 1349 q 317 1369 308 1363 q 332 1383 324 1376 q 350 1397 340 1390 q 359 1329 349 1364 q 389 1271 369 1294 q 435 1247 408 1247 q 503 1268 481 1247 q 544 1321 526 1288 q 589 1411 561 1354 q 621 1384 607 1396 q 646 1361 635 1372 l 668 1339 q 622 1214 656 1276 q 538 1110 588 1151 q 424 1069 488 1069 m 444 1435 q 459 1497 444 1472 q 492 1539 474 1521 q 523 1568 508 1556 q 538 1590 538 1581 q 533 1598 538 1593 q 522 1603 529 1603 q 489 1589 508 1603 q 449 1558 469 1575 l 426 1640 q 550 1690 490 1690 q 582 1688 564 1690 q 610 1678 600 1685 q 633 1653 622 1669 q 649 1601 644 1638 q 635 1550 649 1571 q 600 1514 621 1529 q 562 1483 578 1499 q 538 1440 546 1467 l 511 1438 l 444 1435 z "},"Ẵ":{"ha":601,"x_min":-29,"x_max":849,"o":"m 360 3 q 365 49 363 26 q 371 93 368 71 l 379 171 q 382 207 381 190 q 385 238 383 224 l 264 238 l 208 38 q 136 28 178 33 q 58 19 94 24 q 15 14 36 17 q -29 8 -7 11 l 81 372 q 125 521 100 438 q 176 692 150 604 q 224 856 201 779 q 261 986 247 933 q 453 1003 356 993 q 644 1029 551 1013 q 631 853 638 951 q 620 651 625 756 q 610 446 615 547 q 603 248 607 350 q 594 39 599 146 q 553 33 574 36 q 511 28 532 31 q 435 15 476 22 q 360 3 393 8 m 297 376 q 328 378 306 376 q 372 381 351 379 q 397 382 393 382 q 403 456 397 400 q 414 572 408 511 q 420 647 417 608 q 428 725 424 685 l 436 846 l 415 844 l 383 725 l 297 376 m 424 1069 q 333 1106 374 1069 q 272 1199 293 1143 q 254 1314 251 1256 l 285 1342 q 300 1356 292 1349 q 317 1369 308 1363 q 332 1383 324 1376 q 350 1397 340 1390 q 359 1329 349 1364 q 389 1271 369 1294 q 435 1247 408 1247 q 503 1268 481 1247 q 544 1321 526 1288 q 589 1411 561 1354 q 621 1384 607 1396 q 646 1361 635 1372 l 668 1339 q 622 1214 656 1276 q 538 1110 588 1151 q 424 1069 488 1069 m 311 1465 q 268 1498 293 1478 q 236 1526 243 1518 q 253 1562 236 1526 q 306 1649 271 1597 q 381 1735 338 1697 q 476 1772 425 1772 q 534 1754 508 1772 q 579 1713 560 1736 q 612 1671 599 1689 q 631 1653 625 1653 q 683 1677 658 1653 q 732 1731 708 1701 q 774 1778 756 1761 q 790 1766 782 1772 q 804 1754 797 1760 q 817 1744 811 1749 q 829 1735 824 1739 q 840 1726 835 1731 q 849 1717 844 1722 q 782 1596 819 1649 q 707 1515 754 1553 q 607 1476 660 1476 q 556 1491 574 1476 q 525 1524 538 1506 q 497 1556 513 1542 q 453 1571 482 1571 q 401 1551 426 1571 q 352 1507 375 1532 q 311 1465 329 1482 z "},"Â":{"ha":601,"x_min":-29,"x_max":649,"o":"m 360 3 q 365 49 363 26 q 371 93 368 71 l 379 171 q 382 207 381 190 q 385 238 383 224 l 264 238 l 208 38 q 136 28 178 33 q 58 19 94 24 q 15 14 36 17 q -29 8 -7 11 l 81 372 q 125 521 100 438 q 176 692 150 604 q 224 856 201 779 q 261 986 247 933 q 453 1003 356 993 q 644 1029 551 1013 q 631 853 638 951 q 620 651 625 756 q 610 446 615 547 q 603 248 607 350 q 594 39 599 146 q 553 33 574 36 q 511 28 532 31 q 435 15 476 22 q 360 3 393 8 m 297 376 q 328 378 306 376 q 372 381 351 379 q 397 382 393 382 q 403 456 397 400 q 414 572 408 511 q 420 647 417 608 q 428 725 424 685 l 436 846 l 415 844 l 383 725 l 297 376 m 310 1042 q 278 1070 292 1057 q 256 1094 264 1083 q 244 1107 250 1101 q 235 1118 239 1113 q 274 1174 254 1146 q 315 1229 294 1203 q 391 1325 350 1275 q 468 1411 432 1375 q 515 1405 496 1407 q 544 1404 533 1403 q 568 1403 565 1406 q 580 1363 574 1385 q 593 1317 586 1340 l 618 1225 q 633 1174 625 1199 q 649 1122 642 1149 l 615 1094 q 601 1083 608 1089 q 583 1069 593 1076 l 549 1043 l 464 1207 q 406 1149 436 1182 q 350 1088 375 1117 q 310 1042 325 1058 z "},"Ấ":{"ha":601,"x_min":-29,"x_max":713,"o":"m 360 3 q 365 49 363 26 q 371 93 368 71 l 379 171 q 382 207 381 190 q 385 238 383 224 l 264 238 l 208 38 q 136 28 178 33 q 58 19 94 24 q 15 14 36 17 q -29 8 -7 11 l 81 372 q 125 521 100 438 q 176 692 150 604 q 224 856 201 779 q 261 986 247 933 q 453 1003 356 993 q 644 1029 551 1013 q 631 853 638 951 q 620 651 625 756 q 610 446 615 547 q 603 248 607 350 q 594 39 599 146 q 553 33 574 36 q 511 28 532 31 q 435 15 476 22 q 360 3 393 8 m 297 376 q 328 378 306 376 q 372 381 351 379 q 397 382 393 382 q 403 456 397 400 q 414 572 408 511 q 420 647 417 608 q 428 725 424 685 l 436 846 l 415 844 l 383 725 l 297 376 m 310 1042 q 278 1070 292 1057 q 256 1094 264 1083 q 244 1107 250 1101 q 235 1118 239 1113 q 274 1174 254 1146 q 315 1229 294 1203 q 391 1325 350 1275 q 468 1411 432 1375 q 515 1405 496 1407 q 544 1404 533 1403 q 568 1403 565 1406 q 580 1363 574 1385 q 593 1317 586 1340 l 618 1225 q 633 1174 625 1199 q 649 1122 642 1149 l 615 1094 q 601 1083 608 1089 q 583 1069 593 1076 l 549 1043 l 464 1207 q 406 1149 436 1182 q 350 1088 375 1117 q 310 1042 325 1058 m 360 1451 q 358 1466 358 1458 q 358 1479 358 1474 l 358 1504 q 358 1527 358 1515 q 360 1550 358 1539 l 360 1597 q 451 1688 407 1646 q 538 1768 496 1731 q 618 1844 579 1806 q 693 1922 657 1883 q 701 1749 700 1828 q 704 1667 701 1708 q 713 1583 707 1626 q 628 1550 672 1567 q 536 1517 583 1533 q 444 1483 489 1499 q 360 1451 400 1467 z "},"Ậ":{"ha":601,"x_min":-29,"x_max":649,"o":"m 360 3 q 365 49 363 26 q 371 93 368 71 l 379 171 q 382 207 381 190 q 385 238 383 224 l 264 238 l 208 38 q 136 28 178 33 q 58 19 94 24 q 15 14 36 17 q -29 8 -7 11 l 81 372 q 125 521 100 438 q 176 692 150 604 q 224 856 201 779 q 261 986 247 933 q 453 1003 356 993 q 644 1029 551 1013 q 631 853 638 951 q 620 651 625 756 q 610 446 615 547 q 603 248 607 350 q 594 39 599 146 q 553 33 574 36 q 511 28 532 31 q 435 15 476 22 q 360 3 393 8 m 297 376 q 328 378 306 376 q 372 381 351 379 q 397 382 393 382 q 403 456 397 400 q 414 572 408 511 q 420 647 417 608 q 428 725 424 685 l 436 846 l 415 844 l 383 725 l 297 376 m 310 1042 q 278 1070 292 1057 q 256 1094 264 1083 q 244 1107 250 1101 q 235 1118 239 1113 q 274 1174 254 1146 q 315 1229 294 1203 q 391 1325 350 1275 q 468 1411 432 1375 q 515 1405 496 1407 q 544 1404 533 1403 q 568 1403 565 1406 q 580 1363 574 1385 q 593 1317 586 1340 l 618 1225 q 633 1174 625 1199 q 649 1122 642 1149 l 615 1094 q 601 1083 608 1089 q 583 1069 593 1076 l 549 1043 l 464 1207 q 406 1149 436 1182 q 350 1088 375 1117 q 310 1042 325 1058 m 282 -285 q 199 -249 226 -285 q 171 -165 171 -212 q 201 -81 171 -121 q 296 -42 232 -42 q 397 -76 364 -42 q 429 -156 429 -111 q 391 -244 429 -204 q 282 -285 353 -285 z "},"Ầ":{"ha":601,"x_min":-29,"x_max":649,"o":"m 360 3 q 365 49 363 26 q 371 93 368 71 l 379 171 q 382 207 381 190 q 385 238 383 224 l 264 238 l 208 38 q 136 28 178 33 q 58 19 94 24 q 15 14 36 17 q -29 8 -7 11 l 81 372 q 125 521 100 438 q 176 692 150 604 q 224 856 201 779 q 261 986 247 933 q 453 1003 356 993 q 644 1029 551 1013 q 631 853 638 951 q 620 651 625 756 q 610 446 615 547 q 603 248 607 350 q 594 39 599 146 q 553 33 574 36 q 511 28 532 31 q 435 15 476 22 q 360 3 393 8 m 297 376 q 328 378 306 376 q 372 381 351 379 q 397 382 393 382 q 403 456 397 400 q 414 572 408 511 q 420 647 417 608 q 428 725 424 685 l 436 846 l 415 844 l 383 725 l 297 376 m 310 1042 q 278 1070 292 1057 q 256 1094 264 1083 q 244 1107 250 1101 q 235 1118 239 1113 q 274 1174 254 1146 q 315 1229 294 1203 q 391 1325 350 1275 q 468 1411 432 1375 q 515 1405 496 1407 q 544 1404 533 1403 q 568 1403 565 1406 q 580 1363 574 1385 q 593 1317 586 1340 l 618 1225 q 633 1174 625 1199 q 649 1122 642 1149 l 615 1094 q 601 1083 608 1089 q 583 1069 593 1076 l 549 1043 l 464 1207 q 406 1149 436 1182 q 350 1088 375 1117 q 310 1042 325 1058 m 522 1454 q 453 1471 488 1463 q 386 1488 418 1479 q 269 1516 329 1500 q 169 1544 210 1532 q 189 1642 178 1585 q 210 1754 200 1700 l 235 1885 q 290 1827 263 1856 q 343 1771 317 1799 q 441 1667 389 1722 q 532 1567 493 1611 l 522 1454 z "},"Ẩ":{"ha":601,"x_min":-29,"x_max":649,"o":"m 360 3 q 365 49 363 26 q 371 93 368 71 l 379 171 q 382 207 381 190 q 385 238 383 224 l 264 238 l 208 38 q 136 28 178 33 q 58 19 94 24 q 15 14 36 17 q -29 8 -7 11 l 81 372 q 125 521 100 438 q 176 692 150 604 q 224 856 201 779 q 261 986 247 933 q 453 1003 356 993 q 644 1029 551 1013 q 631 853 638 951 q 620 651 625 756 q 610 446 615 547 q 603 248 607 350 q 594 39 599 146 q 553 33 574 36 q 511 28 532 31 q 435 15 476 22 q 360 3 393 8 m 297 376 q 328 378 306 376 q 372 381 351 379 q 397 382 393 382 q 403 456 397 400 q 414 572 408 511 q 420 647 417 608 q 428 725 424 685 l 436 846 l 415 844 l 383 725 l 297 376 m 310 1042 q 278 1070 292 1057 q 256 1094 264 1083 q 244 1107 250 1101 q 235 1118 239 1113 q 274 1174 254 1146 q 315 1229 294 1203 q 391 1325 350 1275 q 468 1411 432 1375 q 515 1405 496 1407 q 544 1404 533 1403 q 568 1403 565 1406 q 580 1363 574 1385 q 593 1317 586 1340 l 618 1225 q 633 1174 625 1199 q 649 1122 642 1149 l 615 1094 q 601 1083 608 1089 q 583 1069 593 1076 l 549 1043 l 464 1207 q 406 1149 436 1182 q 350 1088 375 1117 q 310 1042 325 1058 m 429 1444 q 444 1506 429 1482 q 476 1549 458 1531 q 508 1578 493 1565 q 522 1600 522 1590 q 518 1608 522 1603 q 507 1613 514 1613 q 474 1599 493 1613 q 433 1568 454 1585 l 411 1650 q 535 1700 475 1700 q 567 1697 549 1700 q 594 1688 585 1694 q 618 1663 607 1679 q 633 1611 629 1647 q 619 1560 633 1581 q 585 1524 606 1539 q 547 1492 563 1508 q 522 1450 531 1476 l 496 1447 l 429 1444 z "},"Ẫ":{"ha":601,"x_min":-29,"x_max":833,"o":"m 360 3 q 365 49 363 26 q 371 93 368 71 l 379 171 q 382 207 381 190 q 385 238 383 224 l 264 238 l 208 38 q 136 28 178 33 q 58 19 94 24 q 15 14 36 17 q -29 8 -7 11 l 81 372 q 125 521 100 438 q 176 692 150 604 q 224 856 201 779 q 261 986 247 933 q 453 1003 356 993 q 644 1029 551 1013 q 631 853 638 951 q 620 651 625 756 q 610 446 615 547 q 603 248 607 350 q 594 39 599 146 q 553 33 574 36 q 511 28 532 31 q 435 15 476 22 q 360 3 393 8 m 297 376 q 328 378 306 376 q 372 381 351 379 q 397 382 393 382 q 403 456 397 400 q 414 572 408 511 q 420 647 417 608 q 428 725 424 685 l 436 846 l 415 844 l 383 725 l 297 376 m 310 1042 q 278 1070 292 1057 q 256 1094 264 1083 q 244 1107 250 1101 q 235 1118 239 1113 q 274 1174 254 1146 q 315 1229 294 1203 q 391 1325 350 1275 q 468 1411 432 1375 q 515 1405 496 1407 q 544 1404 533 1403 q 568 1403 565 1406 q 580 1363 574 1385 q 593 1317 586 1340 l 618 1225 q 633 1174 625 1199 q 649 1122 642 1149 l 615 1094 q 601 1083 608 1089 q 583 1069 593 1076 l 549 1043 l 464 1207 q 406 1149 436 1182 q 350 1088 375 1117 q 310 1042 325 1058 m 296 1475 q 253 1508 278 1488 q 221 1536 228 1528 q 238 1572 221 1536 q 290 1658 256 1607 q 366 1744 322 1707 q 461 1782 410 1782 q 519 1764 493 1782 q 564 1722 544 1746 q 597 1681 583 1699 q 615 1663 610 1663 q 668 1687 643 1663 q 717 1741 693 1711 q 758 1788 740 1771 q 774 1776 767 1782 q 789 1764 782 1769 q 802 1753 796 1758 q 814 1744 808 1749 q 824 1736 819 1740 q 833 1726 829 1732 q 767 1606 804 1658 q 692 1524 739 1563 q 592 1486 644 1486 q 540 1501 558 1486 q 510 1533 522 1515 q 482 1566 497 1551 q 438 1581 467 1581 q 385 1561 411 1581 q 337 1517 360 1542 q 296 1475 314 1492 z "},"Ȁ":{"ha":601,"x_min":-29,"x_max":768,"o":"m 360 3 q 365 49 363 26 q 371 93 368 71 l 379 171 q 382 207 381 190 q 385 238 383 224 l 264 238 l 208 38 q 136 28 178 33 q 58 19 94 24 q 15 14 36 17 q -29 8 -7 11 l 81 372 q 125 521 100 438 q 176 692 150 604 q 224 856 201 779 q 261 986 247 933 q 453 1003 356 993 q 644 1029 551 1013 q 631 853 638 951 q 620 651 625 756 q 610 446 615 547 q 603 248 607 350 q 594 39 599 146 q 553 33 574 36 q 511 28 532 31 q 435 15 476 22 q 360 3 393 8 m 297 376 q 328 378 306 376 q 372 381 351 379 q 397 382 393 382 q 403 456 397 400 q 414 572 408 511 q 420 647 417 608 q 428 725 424 685 l 436 846 l 415 844 l 383 725 l 297 376 m 357 1017 q 288 1033 322 1025 q 221 1050 253 1042 q 104 1078 164 1063 q 4 1107 44 1094 q 24 1205 13 1147 q 44 1317 35 1263 l 69 1447 q 124 1390 97 1418 q 178 1333 151 1361 q 276 1229 224 1285 q 367 1129 328 1174 l 357 1017 m 758 982 q 689 999 724 990 q 622 1015 654 1007 q 506 1044 565 1028 q 406 1072 446 1060 q 425 1170 414 1113 q 446 1282 436 1228 l 471 1413 q 526 1355 499 1383 q 579 1299 553 1326 q 677 1194 625 1250 q 768 1094 729 1139 l 758 982 z "},"Ä":{"ha":601,"x_min":-29,"x_max":738,"o":"m 360 3 q 365 49 363 26 q 371 93 368 71 l 379 171 q 382 207 381 190 q 385 238 383 224 l 264 238 l 208 38 q 136 28 178 33 q 58 19 94 24 q 15 14 36 17 q -29 8 -7 11 l 81 372 q 125 521 100 438 q 176 692 150 604 q 224 856 201 779 q 261 986 247 933 q 453 1003 356 993 q 644 1029 551 1013 q 631 853 638 951 q 620 651 625 756 q 610 446 615 547 q 603 248 607 350 q 594 39 599 146 q 553 33 574 36 q 511 28 532 31 q 435 15 476 22 q 360 3 393 8 m 297 376 q 328 378 306 376 q 372 381 351 379 q 397 382 393 382 q 403 456 397 400 q 414 572 408 511 q 420 647 417 608 q 428 725 424 685 l 436 846 l 415 844 l 383 725 l 297 376 m 589 1131 q 506 1167 533 1131 q 478 1250 478 1204 q 510 1336 478 1299 q 604 1374 543 1374 q 704 1339 671 1374 q 738 1261 738 1304 q 699 1172 738 1214 q 589 1131 661 1131 m 267 1131 q 183 1167 211 1131 q 156 1250 156 1204 q 187 1335 156 1297 q 281 1374 218 1374 q 381 1339 349 1374 q 414 1261 414 1304 q 373 1169 414 1207 q 267 1131 332 1131 z "},"Ạ":{"ha":601,"x_min":-29,"x_max":644,"o":"m 360 3 q 365 49 363 26 q 371 93 368 71 l 379 171 q 382 207 381 190 q 385 238 383 224 l 264 238 l 208 38 q 136 28 178 33 q 58 19 94 24 q 15 14 36 17 q -29 8 -7 11 l 81 372 q 125 521 100 438 q 176 692 150 604 q 224 856 201 779 q 261 986 247 933 q 453 1003 356 993 q 644 1029 551 1013 q 631 853 638 951 q 620 651 625 756 q 610 446 615 547 q 603 248 607 350 q 594 39 599 146 q 553 33 574 36 q 511 28 532 31 q 435 15 476 22 q 360 3 393 8 m 297 376 q 328 378 306 376 q 372 381 351 379 q 397 382 393 382 q 403 456 397 400 q 414 572 408 511 q 420 647 417 608 q 428 725 424 685 l 436 846 l 415 844 l 383 725 l 297 376 m 282 -285 q 199 -249 226 -285 q 171 -165 171 -212 q 201 -81 171 -121 q 296 -42 232 -42 q 397 -76 364 -42 q 429 -156 429 -111 q 391 -244 429 -204 q 282 -285 353 -285 z "},"À":{"ha":601,"x_min":-29,"x_max":644,"o":"m 360 3 q 365 49 363 26 q 371 93 368 71 l 379 171 q 382 207 381 190 q 385 238 383 224 l 264 238 l 208 38 q 136 28 178 33 q 58 19 94 24 q 15 14 36 17 q -29 8 -7 11 l 81 372 q 125 521 100 438 q 176 692 150 604 q 224 856 201 779 q 261 986 247 933 q 453 1003 356 993 q 644 1029 551 1013 q 631 853 638 951 q 620 651 625 756 q 610 446 615 547 q 603 248 607 350 q 594 39 599 146 q 553 33 574 36 q 511 28 532 31 q 435 15 476 22 q 360 3 393 8 m 297 376 q 328 378 306 376 q 372 381 351 379 q 397 382 393 382 q 403 456 397 400 q 414 572 408 511 q 420 647 417 608 q 428 725 424 685 l 436 846 l 415 844 l 383 725 l 297 376 m 460 1044 q 390 1061 425 1053 q 324 1078 356 1069 q 207 1106 267 1090 q 107 1135 147 1122 q 126 1233 115 1175 q 147 1344 138 1290 l 172 1475 q 227 1417 200 1446 q 281 1361 254 1389 q 378 1257 326 1313 q 469 1157 431 1201 l 460 1044 z "},"Ả":{"ha":601,"x_min":-29,"x_max":644,"o":"m 360 3 q 365 49 363 26 q 371 93 368 71 l 379 171 q 382 207 381 190 q 385 238 383 224 l 264 238 l 208 38 q 136 28 178 33 q 58 19 94 24 q 15 14 36 17 q -29 8 -7 11 l 81 372 q 125 521 100 438 q 176 692 150 604 q 224 856 201 779 q 261 986 247 933 q 453 1003 356 993 q 644 1029 551 1013 q 631 853 638 951 q 620 651 625 756 q 610 446 615 547 q 603 248 607 350 q 594 39 599 146 q 553 33 574 36 q 511 28 532 31 q 435 15 476 22 q 360 3 393 8 m 297 376 q 328 378 306 376 q 372 381 351 379 q 397 382 393 382 q 403 456 397 400 q 414 572 408 511 q 420 647 417 608 q 428 725 424 685 l 436 846 l 415 844 l 383 725 l 297 376 m 367 1035 q 381 1097 367 1072 q 414 1139 396 1121 q 445 1168 431 1156 q 460 1190 460 1181 q 456 1198 460 1193 q 444 1203 451 1203 q 411 1189 431 1203 q 371 1158 392 1175 l 349 1240 q 472 1290 413 1290 q 504 1288 486 1290 q 532 1278 522 1285 q 556 1253 544 1269 q 571 1201 567 1238 q 557 1150 571 1171 q 522 1114 543 1129 q 484 1083 500 1099 q 460 1040 468 1067 l 433 1038 l 367 1035 z "},"Ȃ":{"ha":601,"x_min":-29,"x_max":644,"o":"m 360 3 q 365 49 363 26 q 371 93 368 71 l 379 171 q 382 207 381 190 q 385 238 383 224 l 264 238 l 208 38 q 136 28 178 33 q 58 19 94 24 q 15 14 36 17 q -29 8 -7 11 l 81 372 q 125 521 100 438 q 176 692 150 604 q 224 856 201 779 q 261 986 247 933 q 453 1003 356 993 q 644 1029 551 1013 q 631 853 638 951 q 620 651 625 756 q 610 446 615 547 q 603 248 607 350 q 594 39 599 146 q 553 33 574 36 q 511 28 532 31 q 435 15 476 22 q 360 3 393 8 m 297 376 q 328 378 306 376 q 372 381 351 379 q 397 382 393 382 q 403 456 397 400 q 414 572 408 511 q 420 647 417 608 q 428 725 424 685 l 436 846 l 415 844 l 383 725 l 297 376 m 442 1357 q 533 1320 493 1357 q 594 1228 572 1283 q 611 1113 615 1172 l 581 1085 q 565 1072 574 1079 q 550 1058 557 1065 q 533 1044 542 1051 q 515 1029 525 1036 q 506 1098 517 1064 q 476 1156 496 1132 q 431 1179 457 1179 q 364 1160 388 1179 q 323 1106 342 1139 q 276 1015 304 1072 q 244 1042 258 1031 q 219 1065 231 1054 l 197 1088 q 244 1213 211 1151 q 328 1316 278 1275 q 442 1357 378 1357 z "},"Ā":{"ha":601,"x_min":-29,"x_max":676,"o":"m 360 3 q 365 49 363 26 q 371 93 368 71 l 379 171 q 382 207 381 190 q 385 238 383 224 l 264 238 l 208 38 q 136 28 178 33 q 58 19 94 24 q 15 14 36 17 q -29 8 -7 11 l 81 372 q 125 521 100 438 q 176 692 150 604 q 224 856 201 779 q 261 986 247 933 q 453 1003 356 993 q 644 1029 551 1013 q 631 853 638 951 q 620 651 625 756 q 610 446 615 547 q 603 248 607 350 q 594 39 599 146 q 553 33 574 36 q 511 28 532 31 q 435 15 476 22 q 360 3 393 8 m 297 376 q 328 378 306 376 q 372 381 351 379 q 397 382 393 382 q 403 456 397 400 q 414 572 408 511 q 420 647 417 608 q 428 725 424 685 l 436 846 l 415 844 l 383 725 l 297 376 m 143 1063 q 135 1125 136 1086 q 133 1200 133 1164 l 133 1256 q 133 1269 133 1263 q 135 1281 133 1275 l 654 1325 l 676 1100 l 467 1088 q 344 1079 397 1083 q 242 1072 290 1075 q 143 1063 194 1068 z "},"Ą":{"ha":601,"x_min":-29,"x_max":647,"o":"m 360 3 q 365 49 363 26 q 371 93 368 71 l 379 171 q 382 207 381 190 q 385 238 383 224 l 264 238 l 208 38 q 136 28 178 33 q 58 19 94 24 q 15 14 36 17 q -29 8 -7 11 l 81 372 q 125 521 100 438 q 176 692 150 604 q 224 856 201 779 q 261 986 247 933 q 453 1003 356 993 q 644 1029 551 1013 q 631 853 638 951 q 620 651 625 756 q 610 446 615 547 q 603 248 607 350 q 594 39 599 146 q 553 33 574 36 q 511 28 532 31 q 435 15 476 22 q 360 3 393 8 m 297 376 q 328 378 306 376 q 372 381 351 379 q 397 382 393 382 q 403 456 397 400 q 414 572 408 511 q 420 647 417 608 q 428 725 424 685 l 436 846 l 415 844 l 383 725 l 297 376 m 531 -186 q 397 -147 450 -186 q 343 -51 343 -108 q 399 57 343 3 q 422 61 401 57 q 482 69 443 65 q 478 47 479 57 q 476 28 476 36 q 497 -29 476 -7 q 546 -51 517 -51 q 619 -12 585 -51 l 647 -135 q 594 -174 625 -161 q 531 -186 563 -186 z "},"Å":{"ha":601,"x_min":-29,"x_max":644,"o":"m 360 3 q 365 49 363 26 q 371 93 368 71 l 379 171 q 382 207 381 190 q 385 238 383 224 l 264 238 l 208 38 q 136 28 178 33 q 58 19 94 24 q 15 14 36 17 q -29 8 -7 11 l 81 372 q 125 521 100 438 q 176 692 150 604 q 224 856 201 779 q 261 986 247 933 q 453 1003 356 993 q 644 1029 551 1013 q 631 853 638 951 q 620 651 625 756 q 610 446 615 547 q 603 248 607 350 q 594 39 599 146 q 553 33 574 36 q 511 28 532 31 q 435 15 476 22 q 360 3 393 8 m 297 376 q 328 378 306 376 q 372 381 351 379 q 397 382 393 382 q 403 456 397 400 q 414 572 408 511 q 420 647 417 608 q 428 725 424 685 l 436 846 l 415 844 l 383 725 l 297 376 m 403 1053 q 299 1099 336 1053 q 261 1207 261 1144 q 302 1319 261 1271 q 422 1367 343 1367 q 537 1324 496 1367 q 578 1221 578 1282 q 556 1138 578 1176 q 494 1076 533 1099 q 403 1053 454 1053 m 419 1140 q 474 1163 456 1140 q 492 1210 492 1186 q 476 1252 492 1233 q 426 1271 460 1271 q 376 1250 392 1271 q 360 1204 360 1229 q 376 1160 360 1181 q 419 1140 392 1140 z "},"Ǻ":{"ha":601,"x_min":-29,"x_max":664,"o":"m 360 3 q 365 49 363 26 q 371 93 368 71 l 379 171 q 382 207 381 190 q 385 238 383 224 l 264 238 l 208 38 q 136 28 178 33 q 58 19 94 24 q 15 14 36 17 q -29 8 -7 11 l 81 372 q 125 521 100 438 q 176 692 150 604 q 224 856 201 779 q 261 986 247 933 q 453 1003 356 993 q 644 1029 551 1013 q 631 853 638 951 q 620 651 625 756 q 610 446 615 547 q 603 248 607 350 q 594 39 599 146 q 553 33 574 36 q 511 28 532 31 q 435 15 476 22 q 360 3 393 8 m 297 376 q 328 378 306 376 q 372 381 351 379 q 397 382 393 382 q 403 456 397 400 q 414 572 408 511 q 420 647 417 608 q 428 725 424 685 l 436 846 l 415 844 l 383 725 l 297 376 m 403 1053 q 299 1099 336 1053 q 261 1207 261 1144 q 302 1319 261 1271 q 422 1367 343 1367 q 537 1324 496 1367 q 578 1221 578 1282 q 556 1138 578 1176 q 494 1076 533 1099 q 403 1053 454 1053 m 419 1140 q 474 1163 456 1140 q 492 1210 492 1186 q 476 1252 492 1233 q 426 1271 460 1271 q 376 1250 392 1271 q 360 1204 360 1229 q 376 1160 360 1181 q 419 1140 392 1140 m 311 1407 q 310 1422 310 1414 q 310 1435 310 1429 l 310 1460 q 310 1483 310 1471 q 311 1506 310 1494 l 311 1553 q 403 1644 358 1601 q 489 1724 447 1686 q 569 1800 531 1761 q 644 1878 608 1839 q 653 1704 651 1783 q 656 1623 653 1664 q 664 1539 658 1582 q 579 1506 624 1522 q 488 1472 535 1489 q 396 1438 440 1454 q 311 1407 351 1422 z "},"Ã":{"ha":601,"x_min":-29,"x_max":771,"o":"m 360 3 q 365 49 363 26 q 371 93 368 71 l 379 171 q 382 207 381 190 q 385 238 383 224 l 264 238 l 208 38 q 136 28 178 33 q 58 19 94 24 q 15 14 36 17 q -29 8 -7 11 l 81 372 q 125 521 100 438 q 176 692 150 604 q 224 856 201 779 q 261 986 247 933 q 453 1003 356 993 q 644 1029 551 1013 q 631 853 638 951 q 620 651 625 756 q 610 446 615 547 q 603 248 607 350 q 594 39 599 146 q 553 33 574 36 q 511 28 532 31 q 435 15 476 22 q 360 3 393 8 m 297 376 q 328 378 306 376 q 372 381 351 379 q 397 382 393 382 q 403 456 397 400 q 414 572 408 511 q 420 647 417 608 q 428 725 424 685 l 436 846 l 415 844 l 383 725 l 297 376 m 233 1065 q 190 1098 215 1078 q 158 1126 165 1118 q 176 1162 158 1126 q 228 1249 193 1197 q 303 1335 260 1297 q 399 1372 347 1372 q 456 1354 431 1372 q 501 1313 482 1336 q 534 1271 521 1289 q 553 1253 547 1253 q 606 1277 581 1253 q 654 1331 631 1301 q 696 1378 678 1361 q 712 1366 704 1372 q 726 1354 719 1360 q 740 1344 733 1349 q 751 1335 746 1339 q 762 1326 757 1331 q 771 1317 767 1322 q 704 1196 742 1249 q 629 1115 676 1153 q 529 1076 582 1076 q 478 1091 496 1076 q 447 1124 460 1106 q 419 1156 435 1142 q 375 1171 404 1171 q 323 1151 349 1171 q 274 1107 297 1132 q 233 1065 251 1082 z "},"Æ":{"ha":717,"x_min":-40,"x_max":840,"o":"m 342 -1 l 342 3 l 339 3 q 367 135 354 71 q 385 238 379 199 l 283 238 l 211 38 q 137 28 181 33 q 54 19 93 24 q 8 14 32 17 q -40 8 -17 11 q 31 192 -4 101 q 101 372 67 283 q 162 526 129 442 q 227 697 194 611 q 288 859 260 783 q 333 986 315 935 l 840 1014 l 786 846 q 750 850 774 849 q 694 851 726 851 l 660 607 l 696 607 q 711 608 703 607 q 729 608 719 608 q 747 608 739 608 q 763 610 756 608 q 758 572 760 590 q 753 533 756 553 l 740 457 l 640 450 l 604 196 l 721 204 l 707 46 l 342 -1 m 328 376 q 351 377 333 376 q 388 379 369 378 q 410 382 406 381 q 416 419 411 388 q 429 497 421 451 q 446 588 438 543 l 494 846 l 481 844 l 435 725 l 328 376 z "},"Ǽ":{"ha":717,"x_min":-40,"x_max":882,"o":"m 342 -1 l 342 3 l 339 3 q 367 135 354 71 q 385 238 379 199 l 283 238 l 211 38 q 137 28 181 33 q 54 19 93 24 q 8 14 32 17 q -40 8 -17 11 q 31 192 -4 101 q 101 372 67 283 q 162 526 129 442 q 227 697 194 611 q 288 859 260 783 q 333 986 315 935 l 840 1014 l 786 846 q 750 850 774 849 q 694 851 726 851 l 660 607 l 696 607 q 711 608 703 607 q 729 608 719 608 q 747 608 739 608 q 763 610 756 608 q 758 572 760 590 q 753 533 756 553 l 740 457 l 640 450 l 604 196 l 721 204 l 707 46 l 342 -1 m 328 376 q 351 377 333 376 q 388 379 369 378 q 410 382 406 381 q 416 419 411 388 q 429 497 421 451 q 446 588 438 543 l 494 846 l 481 844 l 435 725 l 328 376 m 529 1038 q 528 1052 528 1044 q 528 1065 528 1060 l 528 1090 q 528 1113 528 1101 q 529 1136 528 1125 l 529 1183 q 621 1274 576 1232 q 707 1354 665 1317 q 788 1431 749 1392 q 863 1508 826 1469 q 871 1335 869 1414 q 874 1253 871 1294 q 882 1169 876 1213 q 797 1136 842 1153 q 706 1103 753 1119 q 614 1069 658 1085 q 529 1038 569 1053 z "},"B":{"ha":594,"x_min":-1,"x_max":711,"o":"m 94 -6 q -1 3 43 -6 q 105 492 65 246 q 181 989 144 739 q 331 1016 253 1004 q 492 1028 408 1028 q 589 1012 538 1028 q 676 955 640 996 q 711 839 711 914 q 682 711 711 769 q 608 611 653 653 q 517 551 564 569 q 563 517 536 542 q 608 450 589 492 q 628 349 628 408 q 578 198 628 265 q 447 86 529 131 q 276 18 368 42 q 94 -6 185 -6 m 342 665 q 424 688 385 674 q 487 719 463 701 q 511 758 511 738 q 490 800 511 785 q 440 822 469 815 q 386 829 411 829 l 372 829 q 354 733 363 774 q 342 665 346 692 m 271 275 q 332 285 299 278 q 396 306 365 292 q 447 345 426 321 q 467 404 467 369 q 444 457 467 438 q 391 485 422 476 q 332 494 360 494 l 321 494 q 310 493 314 494 q 290 385 301 442 q 271 275 279 328 z "},"C":{"ha":575,"x_min":54,"x_max":710,"o":"m 253 -3 q 110 79 165 -3 q 54 304 54 161 q 90 562 54 435 q 192 790 126 689 q 347 953 257 892 q 544 1015 436 1015 q 661 963 613 1015 q 710 821 710 910 l 710 804 q 710 794 710 799 q 708 785 710 790 l 526 736 q 488 771 510 771 q 417 717 454 771 q 347 588 381 663 q 308 485 325 538 q 281 386 290 432 q 271 311 271 340 q 283 249 271 268 q 314 231 293 231 q 360 251 335 231 q 406 301 385 271 q 435 363 428 332 l 593 299 q 431 70 525 143 q 253 -3 338 -3 z "},"Ć":{"ha":575,"x_min":54,"x_max":789,"o":"m 253 -3 q 110 79 165 -3 q 54 304 54 161 q 90 562 54 435 q 192 790 126 689 q 347 953 257 892 q 544 1015 436 1015 q 661 963 613 1015 q 710 821 710 910 l 710 804 q 710 794 710 799 q 708 785 710 790 l 526 736 q 488 771 510 771 q 417 717 454 771 q 347 588 381 663 q 308 485 325 538 q 281 386 290 432 q 271 311 271 340 q 283 249 271 268 q 314 231 293 231 q 360 251 335 231 q 406 301 385 271 q 435 363 428 332 l 593 299 q 431 70 525 143 q 253 -3 338 -3 m 436 1056 q 435 1070 435 1063 q 435 1083 435 1078 l 435 1108 q 435 1131 435 1119 q 436 1154 435 1143 l 436 1201 q 528 1292 483 1250 q 614 1372 572 1335 q 694 1449 656 1410 q 769 1526 733 1488 q 778 1353 776 1432 q 781 1272 778 1313 q 789 1188 783 1231 q 704 1154 749 1171 q 613 1121 660 1138 q 521 1087 565 1103 q 436 1056 476 1071 z "},"Č":{"ha":575,"x_min":54,"x_max":751,"o":"m 253 -3 q 110 79 165 -3 q 54 304 54 161 q 90 562 54 435 q 192 790 126 689 q 347 953 257 892 q 544 1015 436 1015 q 661 963 613 1015 q 710 821 710 910 l 710 804 q 710 794 710 799 q 708 785 710 790 l 526 736 q 488 771 510 771 q 417 717 454 771 q 347 588 381 663 q 308 485 325 538 q 281 386 290 432 q 271 311 271 340 q 283 249 271 268 q 314 231 293 231 q 360 251 335 231 q 406 301 385 271 q 435 363 428 332 l 593 299 q 431 70 525 143 q 253 -3 338 -3 m 532 1064 q 499 1066 514 1065 q 474 1067 483 1067 l 451 1067 q 438 1065 446 1065 q 432 1067 432 1065 q 419 1106 426 1085 q 404 1151 411 1128 q 388 1197 396 1175 q 372 1242 379 1219 q 356 1292 364 1267 q 338 1343 347 1317 l 368 1372 q 383 1386 375 1379 q 400 1400 392 1393 l 433 1428 l 526 1268 q 581 1332 550 1294 q 639 1401 613 1369 q 672 1442 665 1433 q 704 1414 690 1426 q 729 1390 718 1401 l 751 1369 q 715 1310 733 1339 q 676 1254 696 1282 q 606 1154 644 1207 q 532 1064 567 1101 z "},"Ç":{"ha":575,"x_min":54,"x_max":710,"o":"m 253 -3 q 110 79 165 -3 q 54 304 54 161 q 90 562 54 435 q 192 790 126 689 q 347 953 257 892 q 544 1015 436 1015 q 661 963 613 1015 q 710 821 710 910 l 710 804 q 710 794 710 799 q 708 785 710 790 l 526 736 q 488 771 510 771 q 417 717 454 771 q 347 588 381 663 q 308 485 325 538 q 281 386 290 432 q 271 311 271 340 q 283 249 271 268 q 314 231 293 231 q 360 251 335 231 q 406 301 385 271 q 435 363 428 332 l 593 299 q 431 70 525 143 q 253 -3 338 -3 m 253 -229 q 188 -217 219 -229 q 136 -178 157 -204 l 163 -56 q 236 -94 197 -94 q 287 -72 267 -94 q 307 -15 307 -50 q 305 3 307 -7 q 300 26 303 14 q 360 18 339 22 q 385 14 381 14 q 440 -94 440 -40 q 415 -164 440 -133 q 347 -212 389 -194 q 253 -229 304 -229 z "},"Ĉ":{"ha":575,"x_min":54,"x_max":788,"o":"m 253 -3 q 110 79 165 -3 q 54 304 54 161 q 90 562 54 435 q 192 790 126 689 q 347 953 257 892 q 544 1015 436 1015 q 661 963 613 1015 q 710 821 710 910 l 710 804 q 710 794 710 799 q 708 785 710 790 l 526 736 q 488 771 510 771 q 417 717 454 771 q 347 588 381 663 q 308 485 325 538 q 281 386 290 432 q 271 311 271 340 q 283 249 271 268 q 314 231 293 231 q 360 251 335 231 q 406 301 385 271 q 435 363 428 332 l 593 299 q 431 70 525 143 q 253 -3 338 -3 m 449 1056 q 417 1084 431 1071 q 394 1108 403 1097 q 383 1121 389 1115 q 374 1132 378 1126 q 413 1188 393 1160 q 454 1243 433 1217 q 530 1339 489 1289 q 607 1425 571 1389 q 653 1419 635 1421 q 683 1418 672 1417 q 707 1417 704 1419 q 719 1376 713 1399 q 732 1331 725 1354 l 757 1239 q 772 1188 764 1213 q 788 1136 781 1163 l 754 1108 q 740 1097 747 1103 q 722 1083 732 1090 l 688 1057 l 603 1221 q 544 1163 575 1196 q 489 1101 514 1131 q 449 1056 464 1072 z "},"Ċ":{"ha":575,"x_min":54,"x_max":724,"o":"m 253 -3 q 110 79 165 -3 q 54 304 54 161 q 90 562 54 435 q 192 790 126 689 q 347 953 257 892 q 544 1015 436 1015 q 661 963 613 1015 q 710 821 710 910 l 710 804 q 710 794 710 799 q 708 785 710 790 l 526 736 q 488 771 510 771 q 417 717 454 771 q 347 588 381 663 q 308 485 325 538 q 281 386 290 432 q 271 311 271 340 q 283 249 271 268 q 314 231 293 231 q 360 251 335 231 q 406 301 385 271 q 435 363 428 332 l 593 299 q 431 70 525 143 q 253 -3 338 -3 m 576 1094 q 493 1131 521 1094 q 465 1214 465 1167 q 496 1298 465 1258 q 590 1338 526 1338 q 691 1303 658 1338 q 724 1224 724 1268 q 685 1135 724 1175 q 576 1094 647 1094 z "},"D":{"ha":613,"x_min":6,"x_max":707,"o":"m 83 -7 q 44 -5 64 -7 q 6 0 25 -3 l 79 374 q 109 535 93 450 q 140 705 125 621 q 167 861 156 789 q 186 983 179 933 q 307 1004 246 994 q 432 1014 368 1014 q 594 972 535 1014 q 681 860 654 929 q 707 710 707 792 q 686 555 707 636 q 627 394 665 474 q 536 243 589 314 q 337 63 454 133 q 83 -7 219 -7 m 249 168 q 341 265 297 200 q 424 422 385 331 q 478 583 458 507 q 497 708 497 658 q 469 789 497 760 q 379 818 440 818 q 334 597 357 699 q 290 393 311 496 q 249 168 268 290 z "},"Ǆ":{"ha":1211,"x_min":6,"x_max":1351,"o":"m 83 -7 q 44 -5 64 -7 q 6 0 25 -3 l 79 374 q 109 535 93 450 q 140 705 125 621 q 167 861 156 789 q 186 983 179 933 q 307 1004 246 994 q 432 1014 368 1014 q 594 972 535 1014 q 681 860 654 929 q 707 710 707 792 q 686 555 707 636 q 627 394 665 474 q 536 243 589 314 q 337 63 454 133 q 83 -7 219 -7 m 249 168 q 341 265 297 200 q 424 422 385 331 q 478 583 458 507 q 497 708 497 658 q 469 789 497 760 q 379 818 440 818 q 334 597 357 699 q 290 393 311 496 q 249 168 268 290 m 624 13 l 624 215 l 1019 753 q 947 749 979 753 q 872 740 914 746 q 757 724 829 733 l 783 942 l 1351 982 l 1315 790 l 936 251 q 1000 253 956 251 q 1101 259 1044 256 q 1211 267 1157 263 l 1211 56 q 1128 53 1194 56 q 944 43 1061 50 q 753 28 839 36 q 624 13 668 21 m 1132 1050 q 1099 1052 1114 1051 q 1074 1053 1083 1053 l 1051 1053 q 1038 1051 1046 1051 q 1032 1053 1032 1051 q 1019 1092 1026 1071 q 1004 1138 1011 1114 q 988 1183 996 1161 q 972 1228 979 1206 q 956 1278 964 1253 q 938 1329 947 1303 l 968 1358 q 983 1372 975 1365 q 1000 1386 992 1379 l 1033 1414 l 1126 1254 q 1181 1318 1150 1281 q 1239 1388 1213 1356 q 1272 1428 1265 1419 q 1304 1400 1290 1413 q 1329 1376 1318 1388 l 1351 1356 q 1315 1297 1333 1325 q 1276 1240 1296 1268 q 1206 1140 1244 1193 q 1132 1050 1167 1088 z "},"Ď":{"ha":613,"x_min":6,"x_max":707,"o":"m 83 -7 q 44 -5 64 -7 q 6 0 25 -3 l 79 374 q 109 535 93 450 q 140 705 125 621 q 167 861 156 789 q 186 983 179 933 q 307 1004 246 994 q 432 1014 368 1014 q 594 972 535 1014 q 681 860 654 929 q 707 710 707 792 q 686 555 707 636 q 627 394 665 474 q 536 243 589 314 q 337 63 454 133 q 83 -7 219 -7 m 249 168 q 341 265 297 200 q 424 422 385 331 q 478 583 458 507 q 497 708 497 658 q 469 789 497 760 q 379 818 440 818 q 334 597 357 699 q 290 393 311 496 q 249 168 268 290 m 422 1050 q 389 1052 404 1051 q 364 1053 374 1053 l 342 1053 q 328 1051 336 1051 q 322 1053 322 1051 q 309 1092 317 1071 q 294 1138 301 1114 q 278 1183 286 1161 q 263 1228 269 1206 q 246 1278 254 1253 q 228 1329 238 1303 l 258 1358 q 274 1372 265 1365 q 290 1386 282 1379 l 324 1414 l 417 1254 q 472 1318 440 1281 q 529 1388 503 1356 q 563 1428 556 1419 q 594 1400 581 1413 q 619 1376 608 1388 l 642 1356 q 605 1297 624 1325 q 567 1240 586 1268 q 496 1140 535 1193 q 422 1050 457 1088 z "},"Đ":{"ha":618,"x_min":18,"x_max":696,"o":"m 189 3 q 102 16 144 3 q 18 58 60 29 l 42 178 q 54 238 47 206 q 68 306 61 269 q 97 460 83 376 q 88 458 92 458 q 79 458 83 458 l 47 458 l 93 606 q 103 604 96 604 l 125 604 q 161 805 144 707 q 189 983 178 903 q 310 1004 249 994 q 435 1014 371 1014 q 587 971 529 1014 q 670 853 644 928 q 696 682 696 778 q 660 449 696 567 q 558 232 624 332 q 397 67 492 131 q 189 3 301 3 m 238 168 q 331 256 286 197 q 412 389 376 315 q 467 539 447 463 q 488 681 488 615 q 458 798 488 751 q 369 844 428 844 q 344 724 356 782 q 321 604 332 665 q 335 604 328 604 q 350 606 343 604 l 375 606 q 386 606 381 606 q 397 607 392 606 l 364 457 l 343 457 q 333 457 338 457 q 322 458 328 457 l 296 458 q 283 391 289 425 q 269 321 276 357 q 255 247 263 286 q 238 168 247 208 z "},"ǅ":{"ha":1211,"x_min":6,"x_max":1381,"o":"m 83 -7 q 44 -5 64 -7 q 6 0 25 -3 l 79 374 q 109 535 93 450 q 140 705 125 621 q 167 861 156 789 q 186 983 179 933 q 307 1004 246 994 q 432 1014 368 1014 q 594 972 535 1014 q 681 860 654 929 q 707 710 707 792 q 686 555 707 636 q 627 394 665 474 q 536 243 589 314 q 337 63 454 133 q 83 -7 219 -7 m 249 168 q 341 265 297 200 q 424 422 385 331 q 478 583 458 507 q 497 708 497 658 q 469 789 497 760 q 379 818 440 818 q 334 597 357 699 q 290 393 311 496 q 249 168 268 290 m 625 13 l 625 215 l 1019 753 q 942 748 989 753 q 852 737 894 743 q 790 726 810 731 l 757 724 l 783 942 l 1351 982 l 1315 790 l 936 251 q 1001 253 956 251 q 1103 259 1046 256 q 1215 267 1161 263 l 1215 56 q 1130 53 1199 56 q 944 43 1061 50 q 754 28 839 36 q 625 13 669 21 m 1161 1050 q 1128 1052 1143 1051 q 1103 1053 1113 1053 l 1081 1053 q 1067 1051 1075 1051 q 1061 1053 1061 1051 q 1048 1092 1056 1071 q 1033 1138 1040 1114 q 1017 1183 1025 1161 q 1001 1228 1008 1206 q 985 1278 993 1253 q 967 1329 976 1303 l 997 1358 q 1013 1372 1004 1365 q 1029 1386 1021 1379 l 1063 1414 l 1156 1254 q 1210 1318 1179 1281 q 1268 1388 1242 1356 q 1301 1428 1294 1419 q 1333 1400 1319 1413 q 1358 1376 1347 1388 l 1381 1356 q 1344 1297 1363 1325 q 1306 1240 1325 1268 q 1235 1140 1274 1193 q 1161 1050 1196 1088 z "},"Ð":{"ha":618,"x_min":18,"x_max":696,"o":"m 189 3 q 102 16 144 3 q 18 58 60 29 l 42 178 q 54 238 47 206 q 68 306 61 269 q 97 460 83 376 q 88 458 92 458 q 79 458 83 458 l 47 458 l 93 606 q 103 604 96 604 l 125 604 q 161 805 144 707 q 189 983 178 903 q 310 1004 249 994 q 435 1014 371 1014 q 587 971 529 1014 q 670 853 644 928 q 696 682 696 778 q 660 449 696 567 q 558 232 624 332 q 397 67 492 131 q 189 3 301 3 m 238 168 q 331 256 286 197 q 412 389 376 315 q 467 539 447 463 q 488 681 488 615 q 458 798 488 751 q 369 844 428 844 q 344 724 356 782 q 321 604 332 665 q 335 604 328 604 q 350 606 343 604 l 375 606 q 386 606 381 606 q 397 607 392 606 l 364 457 l 343 457 q 333 457 338 457 q 322 458 328 457 l 296 458 q 283 391 289 425 q 269 321 276 357 q 255 247 263 286 q 238 168 247 208 z "},"E":{"ha":474,"x_min":11,"x_max":632,"o":"m 11 -1 l 193 986 l 632 1024 q 615 961 622 993 q 602 906 608 935 q 592 856 596 878 q 540 853 574 854 q 472 852 507 853 q 413 851 438 851 q 386 851 388 851 l 338 603 l 418 607 q 449 608 433 608 q 481 608 465 608 q 508 608 496 608 q 528 610 521 608 q 523 572 525 590 q 518 533 521 553 l 506 457 q 488 456 499 456 q 461 456 476 456 q 429 454 446 454 q 397 453 413 454 q 360 451 379 451 q 318 450 340 451 l 271 194 l 474 226 l 460 68 l 11 -1 z "},"É":{"ha":474,"x_min":11,"x_max":632,"o":"m 11 -1 l 193 986 l 632 1024 q 615 961 622 993 q 602 906 608 935 q 592 856 596 878 q 540 853 574 854 q 472 852 507 853 q 413 851 438 851 q 386 851 388 851 l 338 603 l 418 607 q 449 608 433 608 q 481 608 465 608 q 508 608 496 608 q 528 610 521 608 q 523 572 525 590 q 518 533 521 553 l 506 457 q 488 456 499 456 q 461 456 476 456 q 429 454 446 454 q 397 453 413 454 q 360 451 379 451 q 318 450 340 451 l 271 194 l 474 226 l 460 68 l 11 -1 m 260 1082 q 258 1097 258 1089 q 258 1110 258 1104 l 258 1135 q 258 1158 258 1146 q 260 1181 258 1169 l 260 1228 q 351 1319 307 1276 q 438 1399 396 1361 q 518 1475 479 1436 q 593 1553 557 1514 q 601 1379 600 1458 q 604 1298 601 1339 q 613 1214 607 1257 q 528 1181 572 1197 q 436 1147 483 1164 q 344 1113 389 1129 q 260 1082 300 1097 z "},"Ĕ":{"ha":474,"x_min":11,"x_max":632,"o":"m 11 -1 l 193 986 l 632 1024 q 615 961 622 993 q 602 906 608 935 q 592 856 596 878 q 540 853 574 854 q 472 852 507 853 q 413 851 438 851 q 386 851 388 851 l 338 603 l 418 607 q 449 608 433 608 q 481 608 465 608 q 508 608 496 608 q 528 610 521 608 q 523 572 525 590 q 518 533 521 553 l 506 457 q 488 456 499 456 q 461 456 476 456 q 429 454 446 454 q 397 453 413 454 q 360 451 379 451 q 318 450 340 451 l 271 194 l 474 226 l 460 68 l 11 -1 m 386 1110 q 296 1147 336 1110 q 235 1240 256 1183 q 217 1354 214 1296 l 247 1382 q 263 1396 254 1389 q 279 1410 271 1403 q 294 1424 286 1417 q 313 1438 303 1431 q 322 1369 311 1404 q 351 1311 332 1335 q 397 1288 371 1288 q 465 1308 443 1288 q 506 1361 489 1328 q 551 1451 524 1394 q 583 1424 569 1436 q 608 1401 597 1413 l 631 1379 q 584 1254 618 1317 q 500 1151 550 1192 q 386 1110 450 1110 z "},"Ě":{"ha":474,"x_min":11,"x_max":632,"o":"m 11 -1 l 193 986 l 632 1024 q 615 961 622 993 q 602 906 608 935 q 592 856 596 878 q 540 853 574 854 q 472 852 507 853 q 413 851 438 851 q 386 851 388 851 l 338 603 l 418 607 q 449 608 433 608 q 481 608 465 608 q 508 608 496 608 q 528 610 521 608 q 523 572 525 590 q 518 533 521 553 l 506 457 q 488 456 499 456 q 461 456 476 456 q 429 454 446 454 q 397 453 413 454 q 360 451 379 451 q 318 450 340 451 l 271 194 l 474 226 l 460 68 l 11 -1 m 356 1090 q 322 1092 338 1092 q 297 1093 307 1093 l 275 1093 q 261 1092 269 1092 q 256 1093 256 1092 q 242 1133 250 1111 q 228 1178 235 1154 q 211 1224 219 1201 q 196 1268 203 1246 q 179 1318 188 1293 q 161 1369 171 1343 l 192 1399 q 207 1413 199 1406 q 224 1426 215 1419 l 257 1454 l 350 1294 q 405 1358 374 1321 q 463 1428 436 1396 q 496 1468 489 1460 q 528 1440 514 1453 q 553 1417 542 1428 l 575 1396 q 538 1337 557 1365 q 500 1281 519 1308 q 429 1181 468 1233 q 356 1090 390 1128 z "},"Ê":{"ha":474,"x_min":11,"x_max":632,"o":"m 11 -1 l 193 986 l 632 1024 q 615 961 622 993 q 602 906 608 935 q 592 856 596 878 q 540 853 574 854 q 472 852 507 853 q 413 851 438 851 q 386 851 388 851 l 338 603 l 418 607 q 449 608 433 608 q 481 608 465 608 q 508 608 496 608 q 528 610 521 608 q 523 572 525 590 q 518 533 521 553 l 506 457 q 488 456 499 456 q 461 456 476 456 q 429 454 446 454 q 397 453 413 454 q 360 451 379 451 q 318 450 340 451 l 271 194 l 474 226 l 460 68 l 11 -1 m 272 1082 q 240 1110 254 1097 q 218 1135 226 1124 q 207 1147 213 1142 q 197 1158 201 1153 q 237 1215 217 1186 q 278 1269 257 1243 q 353 1365 313 1315 q 431 1451 394 1415 q 477 1445 458 1447 q 507 1444 496 1443 q 531 1443 528 1446 q 542 1403 536 1425 q 556 1357 549 1381 l 581 1265 q 596 1214 588 1239 q 611 1163 604 1189 l 578 1135 q 563 1123 571 1129 q 546 1110 556 1117 l 511 1083 l 426 1247 q 368 1190 399 1222 q 313 1128 338 1157 q 272 1082 288 1099 z "},"Ế":{"ha":474,"x_min":11,"x_max":849,"o":"m 11 -1 l 193 986 l 632 1024 q 615 961 622 993 q 602 906 608 935 q 592 856 596 878 q 540 853 574 854 q 472 852 507 853 q 413 851 438 851 q 386 851 388 851 l 338 603 l 418 607 q 449 608 433 608 q 481 608 465 608 q 508 608 496 608 q 528 610 521 608 q 523 572 525 590 q 518 533 521 553 l 506 457 q 488 456 499 456 q 461 456 476 456 q 429 454 446 454 q 397 453 413 454 q 360 451 379 451 q 318 450 340 451 l 271 194 l 474 226 l 460 68 l 11 -1 m 621 1288 q 619 1297 619 1293 q 619 1306 619 1301 l 619 1351 l 621 1382 q 680 1440 651 1413 q 735 1492 708 1468 q 835 1592 789 1540 q 839 1533 838 1561 q 840 1479 840 1506 q 849 1372 840 1429 q 794 1351 822 1363 q 735 1329 765 1340 q 676 1308 704 1318 q 621 1288 647 1297 m 276 1067 q 244 1095 258 1082 q 222 1119 231 1108 q 211 1132 217 1126 q 201 1143 206 1138 q 241 1199 221 1171 q 282 1254 261 1228 q 358 1350 317 1300 q 435 1436 399 1400 q 481 1430 463 1432 q 511 1429 500 1428 q 535 1428 532 1431 q 547 1388 540 1410 q 560 1342 553 1365 l 585 1250 q 600 1199 592 1224 q 615 1147 608 1174 l 582 1119 q 567 1108 575 1114 q 550 1094 560 1101 l 515 1068 l 431 1232 q 372 1174 403 1207 q 317 1113 342 1142 q 276 1067 292 1083 z "},"Ệ":{"ha":474,"x_min":11,"x_max":632,"o":"m 11 -1 l 193 986 l 632 1024 q 615 961 622 993 q 602 906 608 935 q 592 856 596 878 q 540 853 574 854 q 472 852 507 853 q 413 851 438 851 q 386 851 388 851 l 338 603 l 418 607 q 449 608 433 608 q 481 608 465 608 q 508 608 496 608 q 528 610 521 608 q 523 572 525 590 q 518 533 521 553 l 506 457 q 488 456 499 456 q 461 456 476 456 q 429 454 446 454 q 397 453 413 454 q 360 451 379 451 q 318 450 340 451 l 271 194 l 474 226 l 460 68 l 11 -1 m 272 1082 q 240 1110 254 1097 q 218 1135 226 1124 q 207 1147 213 1142 q 197 1158 201 1153 q 237 1215 217 1186 q 278 1269 257 1243 q 353 1365 313 1315 q 431 1451 394 1415 q 477 1445 458 1447 q 507 1444 496 1443 q 531 1443 528 1446 q 542 1403 536 1425 q 556 1357 549 1381 l 581 1265 q 596 1214 588 1239 q 611 1163 604 1189 l 578 1135 q 563 1123 571 1129 q 546 1110 556 1117 l 511 1083 l 426 1247 q 368 1190 399 1222 q 313 1128 338 1157 q 272 1082 288 1099 m 218 -285 q 135 -249 163 -285 q 107 -165 107 -212 q 138 -81 107 -121 q 232 -42 168 -42 q 333 -76 300 -42 q 365 -156 365 -111 q 327 -244 365 -204 q 218 -285 289 -285 z "},"Ề":{"ha":474,"x_min":11,"x_max":632,"o":"m 11 -1 l 193 986 l 632 1024 q 615 961 622 993 q 602 906 608 935 q 592 856 596 878 q 540 853 574 854 q 472 852 507 853 q 413 851 438 851 q 386 851 388 851 l 338 603 l 418 607 q 449 608 433 608 q 481 608 465 608 q 508 608 496 608 q 528 610 521 608 q 523 572 525 590 q 518 533 521 553 l 506 457 q 488 456 499 456 q 461 456 476 456 q 429 454 446 454 q 397 453 413 454 q 360 451 379 451 q 318 450 340 451 l 271 194 l 474 226 l 460 68 l 11 -1 m 306 1322 q 261 1334 283 1329 q 217 1344 239 1339 q 140 1363 179 1353 q 75 1382 101 1374 q 88 1447 81 1408 q 101 1519 96 1485 l 118 1604 q 153 1567 136 1586 q 189 1531 171 1549 q 252 1462 218 1499 q 313 1396 286 1425 l 306 1322 m 268 1038 q 236 1066 250 1053 q 214 1090 222 1079 q 203 1103 208 1097 q 193 1114 197 1108 q 233 1170 213 1142 q 274 1225 253 1199 q 349 1321 308 1271 q 426 1407 390 1371 q 473 1401 454 1403 q 503 1400 492 1399 q 526 1399 524 1401 q 538 1358 532 1381 q 551 1313 544 1336 l 576 1221 q 592 1169 583 1194 q 607 1118 600 1144 l 574 1090 q 559 1078 567 1085 q 542 1065 551 1072 l 507 1039 l 422 1203 q 364 1145 394 1178 q 308 1083 333 1113 q 268 1038 283 1054 z "},"Ể":{"ha":474,"x_min":11,"x_max":835,"o":"m 11 -1 l 193 986 l 632 1024 q 615 961 622 993 q 602 906 608 935 q 592 856 596 878 q 540 853 574 854 q 472 852 507 853 q 413 851 438 851 q 386 851 388 851 l 338 603 l 418 607 q 449 608 433 608 q 481 608 465 608 q 508 608 496 608 q 528 610 521 608 q 523 572 525 590 q 518 533 521 553 l 506 457 q 488 456 499 456 q 461 456 476 456 q 429 454 446 454 q 397 453 413 454 q 360 451 379 451 q 318 450 340 451 l 271 194 l 474 226 l 460 68 l 11 -1 m 631 1304 q 645 1366 631 1342 q 678 1408 660 1390 q 709 1438 694 1425 q 724 1460 724 1450 q 719 1467 724 1463 q 708 1472 715 1472 q 675 1458 694 1472 q 635 1428 656 1444 l 613 1510 q 736 1560 676 1560 q 768 1557 750 1560 q 796 1547 786 1554 q 819 1523 808 1539 q 835 1471 831 1507 q 821 1419 835 1440 q 786 1383 807 1399 q 748 1352 764 1368 q 724 1310 732 1336 l 697 1307 l 631 1304 m 286 1058 q 254 1087 268 1074 q 232 1111 240 1100 q 221 1124 226 1118 q 211 1135 215 1129 q 251 1191 231 1163 q 292 1246 271 1219 q 367 1342 326 1292 q 444 1428 408 1392 q 491 1422 472 1424 q 521 1421 510 1419 q 544 1419 542 1422 q 556 1379 550 1401 q 569 1333 563 1357 l 594 1242 q 610 1190 601 1215 q 625 1139 618 1165 l 592 1111 q 577 1099 585 1106 q 560 1086 569 1093 l 525 1060 l 440 1224 q 382 1166 413 1199 q 326 1104 351 1133 q 286 1058 301 1075 z "},"Ễ":{"ha":474,"x_min":11,"x_max":854,"o":"m 11 -1 l 193 986 l 632 1024 q 615 961 622 993 q 602 906 608 935 q 592 856 596 878 q 540 853 574 854 q 472 852 507 853 q 413 851 438 851 q 386 851 388 851 l 338 603 l 418 607 q 449 608 433 608 q 481 608 465 608 q 508 608 496 608 q 528 610 521 608 q 523 572 525 590 q 518 533 521 553 l 506 457 q 488 456 499 456 q 461 456 476 456 q 429 454 446 454 q 397 453 413 454 q 360 451 379 451 q 318 450 340 451 l 271 194 l 474 226 l 460 68 l 11 -1 m 317 1482 q 274 1515 299 1494 q 242 1543 249 1535 q 259 1578 242 1543 q 311 1665 276 1614 q 387 1751 343 1714 q 482 1789 431 1789 q 540 1771 514 1789 q 585 1729 565 1753 q 617 1688 604 1706 q 636 1669 631 1669 q 689 1694 664 1669 q 738 1748 714 1718 q 779 1794 761 1778 q 795 1783 788 1789 q 810 1771 803 1776 q 823 1760 817 1765 q 835 1751 829 1756 q 845 1743 840 1747 q 854 1733 850 1739 q 788 1613 825 1665 q 713 1531 760 1569 q 613 1493 665 1493 q 561 1508 579 1493 q 531 1540 543 1522 q 503 1573 518 1558 q 458 1588 488 1588 q 406 1568 432 1588 q 358 1524 381 1549 q 317 1482 335 1499 m 275 1049 q 243 1077 257 1064 q 221 1101 229 1090 q 210 1114 215 1108 q 200 1125 204 1119 q 240 1181 219 1153 q 281 1236 260 1210 q 356 1332 315 1282 q 433 1418 397 1382 q 480 1412 461 1414 q 510 1411 499 1410 q 533 1410 531 1413 q 545 1369 539 1392 q 558 1324 551 1347 l 583 1232 q 599 1181 590 1206 q 614 1129 607 1156 l 581 1101 q 566 1090 574 1096 q 549 1076 558 1083 l 514 1050 l 429 1214 q 371 1156 401 1189 q 315 1094 340 1124 q 275 1049 290 1065 z "},"Ȅ":{"ha":474,"x_min":-33,"x_max":731,"o":"m 11 -1 l 193 986 l 632 1024 q 615 961 622 993 q 602 906 608 935 q 592 856 596 878 q 540 853 574 854 q 472 852 507 853 q 413 851 438 851 q 386 851 388 851 l 338 603 l 418 607 q 449 608 433 608 q 481 608 465 608 q 508 608 496 608 q 528 610 521 608 q 523 572 525 590 q 518 533 521 553 l 506 457 q 488 456 499 456 q 461 456 476 456 q 429 454 446 454 q 397 453 413 454 q 360 451 379 451 q 318 450 340 451 l 271 194 l 474 226 l 460 68 l 11 -1 m 319 1057 q 250 1074 285 1065 q 183 1090 215 1082 q 67 1119 126 1103 q -33 1147 7 1135 q -14 1245 -25 1188 q 7 1357 -3 1303 l 32 1488 q 87 1430 60 1458 q 140 1374 114 1401 q 238 1269 186 1325 q 329 1169 290 1214 l 319 1057 m 721 1022 q 651 1039 686 1031 q 585 1056 617 1047 q 468 1084 528 1068 q 368 1113 408 1100 q 388 1210 376 1153 q 408 1322 399 1268 l 433 1453 q 488 1395 461 1424 q 542 1339 515 1367 q 640 1235 588 1290 q 731 1135 692 1179 l 721 1022 z "},"Ë":{"ha":474,"x_min":11,"x_max":700,"o":"m 11 -1 l 193 986 l 632 1024 q 615 961 622 993 q 602 906 608 935 q 592 856 596 878 q 540 853 574 854 q 472 852 507 853 q 413 851 438 851 q 386 851 388 851 l 338 603 l 418 607 q 449 608 433 608 q 481 608 465 608 q 508 608 496 608 q 528 610 521 608 q 523 572 525 590 q 518 533 521 553 l 506 457 q 488 456 499 456 q 461 456 476 456 q 429 454 446 454 q 397 453 413 454 q 360 451 379 451 q 318 450 340 451 l 271 194 l 474 226 l 460 68 l 11 -1 m 551 1171 q 468 1208 496 1171 q 440 1290 440 1244 q 473 1376 440 1339 q 567 1414 506 1414 q 667 1379 633 1414 q 700 1301 700 1344 q 662 1213 700 1254 q 551 1171 624 1171 m 229 1171 q 146 1208 174 1171 q 118 1290 118 1244 q 149 1376 118 1338 q 243 1414 181 1414 q 344 1379 311 1414 q 376 1301 376 1344 q 335 1209 376 1247 q 229 1171 294 1171 z "},"Ė":{"ha":474,"x_min":11,"x_max":632,"o":"m 11 -1 l 193 986 l 632 1024 q 615 961 622 993 q 602 906 608 935 q 592 856 596 878 q 540 853 574 854 q 472 852 507 853 q 413 851 438 851 q 386 851 388 851 l 338 603 l 418 607 q 449 608 433 608 q 481 608 465 608 q 508 608 496 608 q 528 610 521 608 q 523 572 525 590 q 518 533 521 553 l 506 457 q 488 456 499 456 q 461 456 476 456 q 429 454 446 454 q 397 453 413 454 q 360 451 379 451 q 318 450 340 451 l 271 194 l 474 226 l 460 68 l 11 -1 m 400 1121 q 317 1157 344 1121 q 289 1240 289 1193 q 319 1324 289 1285 q 414 1364 350 1364 q 515 1329 482 1364 q 547 1250 547 1294 q 509 1161 547 1201 q 400 1121 471 1121 z "},"Ẹ":{"ha":474,"x_min":11,"x_max":632,"o":"m 11 -1 l 193 986 l 632 1024 q 615 961 622 993 q 602 906 608 935 q 592 856 596 878 q 540 853 574 854 q 472 852 507 853 q 413 851 438 851 q 386 851 388 851 l 338 603 l 418 607 q 449 608 433 608 q 481 608 465 608 q 508 608 496 608 q 528 610 521 608 q 523 572 525 590 q 518 533 521 553 l 506 457 q 488 456 499 456 q 461 456 476 456 q 429 454 446 454 q 397 453 413 454 q 360 451 379 451 q 318 450 340 451 l 271 194 l 474 226 l 460 68 l 11 -1 m 218 -285 q 135 -249 163 -285 q 107 -165 107 -212 q 138 -81 107 -121 q 232 -42 168 -42 q 333 -76 300 -42 q 365 -156 365 -111 q 327 -244 365 -204 q 218 -285 289 -285 z "},"È":{"ha":474,"x_min":11,"x_max":632,"o":"m 11 -1 l 193 986 l 632 1024 q 615 961 622 993 q 602 906 608 935 q 592 856 596 878 q 540 853 574 854 q 472 852 507 853 q 413 851 438 851 q 386 851 388 851 l 338 603 l 418 607 q 449 608 433 608 q 481 608 465 608 q 508 608 496 608 q 528 610 521 608 q 523 572 525 590 q 518 533 521 553 l 506 457 q 488 456 499 456 q 461 456 476 456 q 429 454 446 454 q 397 453 413 454 q 360 451 379 451 q 318 450 340 451 l 271 194 l 474 226 l 460 68 l 11 -1 m 422 1085 q 353 1101 388 1093 q 286 1118 318 1110 q 169 1147 229 1131 q 69 1175 110 1163 q 89 1273 78 1215 q 110 1385 100 1331 l 135 1515 q 190 1458 163 1486 q 243 1401 217 1429 q 341 1297 289 1353 q 432 1197 393 1242 l 422 1085 z "},"Ẻ":{"ha":474,"x_min":11,"x_max":632,"o":"m 11 -1 l 193 986 l 632 1024 q 615 961 622 993 q 602 906 608 935 q 592 856 596 878 q 540 853 574 854 q 472 852 507 853 q 413 851 438 851 q 386 851 388 851 l 338 603 l 418 607 q 449 608 433 608 q 481 608 465 608 q 508 608 496 608 q 528 610 521 608 q 523 572 525 590 q 518 533 521 553 l 506 457 q 488 456 499 456 q 461 456 476 456 q 429 454 446 454 q 397 453 413 454 q 360 451 379 451 q 318 450 340 451 l 271 194 l 474 226 l 460 68 l 11 -1 m 329 1075 q 344 1137 329 1113 q 376 1179 358 1161 q 408 1208 393 1196 q 422 1231 422 1221 q 418 1238 422 1233 q 407 1243 414 1243 q 374 1229 393 1243 q 333 1199 354 1215 l 311 1281 q 435 1331 375 1331 q 467 1328 449 1331 q 494 1318 485 1325 q 518 1294 507 1310 q 533 1242 529 1278 q 519 1190 533 1211 q 485 1154 506 1169 q 447 1123 463 1139 q 422 1081 431 1107 l 396 1078 l 329 1075 z "},"Ȇ":{"ha":474,"x_min":11,"x_max":632,"o":"m 11 -1 l 193 986 l 632 1024 q 615 961 622 993 q 602 906 608 935 q 592 856 596 878 q 540 853 574 854 q 472 852 507 853 q 413 851 438 851 q 386 851 388 851 l 338 603 l 418 607 q 449 608 433 608 q 481 608 465 608 q 508 608 496 608 q 528 610 521 608 q 523 572 525 590 q 518 533 521 553 l 506 457 q 488 456 499 456 q 461 456 476 456 q 429 454 446 454 q 397 453 413 454 q 360 451 379 451 q 318 450 340 451 l 271 194 l 474 226 l 460 68 l 11 -1 m 404 1397 q 495 1360 456 1397 q 556 1268 535 1324 q 574 1153 578 1213 l 543 1125 q 528 1113 536 1119 q 513 1099 519 1106 q 496 1084 504 1092 q 478 1069 488 1076 q 469 1138 479 1104 q 439 1196 458 1172 q 393 1219 419 1219 q 326 1200 350 1219 q 285 1146 304 1179 q 239 1056 267 1113 q 207 1083 221 1071 q 182 1106 193 1094 l 160 1128 q 207 1253 174 1192 q 290 1356 240 1315 q 404 1397 340 1397 z "},"Ē":{"ha":474,"x_min":11,"x_max":639,"o":"m 11 -1 l 193 986 l 632 1024 q 615 961 622 993 q 602 906 608 935 q 592 856 596 878 q 540 853 574 854 q 472 852 507 853 q 413 851 438 851 q 386 851 388 851 l 338 603 l 418 607 q 449 608 433 608 q 481 608 465 608 q 508 608 496 608 q 528 610 521 608 q 523 572 525 590 q 518 533 521 553 l 506 457 q 488 456 499 456 q 461 456 476 456 q 429 454 446 454 q 397 453 413 454 q 360 451 379 451 q 318 450 340 451 l 271 194 l 474 226 l 460 68 l 11 -1 m 106 1103 q 97 1165 99 1126 q 96 1240 96 1204 l 96 1296 q 96 1309 96 1303 q 97 1321 96 1315 l 617 1365 l 639 1140 l 429 1128 q 306 1119 360 1124 q 205 1112 253 1115 q 106 1103 157 1108 z "},"Ę":{"ha":474,"x_min":11,"x_max":632,"o":"m 11 -1 l 193 986 l 632 1024 q 615 961 622 993 q 602 906 608 935 q 592 856 596 878 q 540 853 574 854 q 472 852 507 853 q 413 851 438 851 q 386 851 388 851 l 338 603 l 418 607 q 449 608 433 608 q 481 608 465 608 q 508 608 496 608 q 528 610 521 608 q 523 572 525 590 q 518 533 521 553 l 506 457 q 488 456 499 456 q 461 456 476 456 q 429 454 446 454 q 397 453 413 454 q 360 451 379 451 q 318 450 340 451 l 271 194 l 474 226 l 460 68 l 11 -1 m 375 -186 q 241 -147 294 -186 q 188 -51 188 -108 q 243 57 188 3 q 267 61 246 57 q 326 69 288 65 q 322 47 324 57 q 321 28 321 36 q 341 -29 321 -7 q 390 -51 361 -51 q 464 -12 429 -51 l 492 -135 q 438 -174 469 -161 q 375 -186 407 -186 z "},"Ẽ":{"ha":474,"x_min":11,"x_max":733,"o":"m 11 -1 l 193 986 l 632 1024 q 615 961 622 993 q 602 906 608 935 q 592 856 596 878 q 540 853 574 854 q 472 852 507 853 q 413 851 438 851 q 386 851 388 851 l 338 603 l 418 607 q 449 608 433 608 q 481 608 465 608 q 508 608 496 608 q 528 610 521 608 q 523 572 525 590 q 518 533 521 553 l 506 457 q 488 456 499 456 q 461 456 476 456 q 429 454 446 454 q 397 453 413 454 q 360 451 379 451 q 318 450 340 451 l 271 194 l 474 226 l 460 68 l 11 -1 m 196 1106 q 153 1138 178 1118 q 121 1167 128 1158 q 138 1202 121 1167 q 190 1289 156 1238 q 266 1375 222 1338 q 361 1413 310 1413 q 419 1394 393 1413 q 464 1353 444 1376 q 497 1311 483 1329 q 515 1293 510 1293 q 568 1317 543 1293 q 617 1372 593 1342 q 658 1418 640 1401 q 674 1406 667 1413 q 689 1394 682 1400 q 702 1384 696 1389 q 714 1375 708 1379 q 724 1367 719 1371 q 733 1357 729 1363 q 667 1236 704 1289 q 592 1155 639 1193 q 492 1117 544 1117 q 440 1131 458 1117 q 410 1164 422 1146 q 382 1197 397 1182 q 338 1211 367 1211 q 285 1192 311 1211 q 237 1147 260 1172 q 196 1106 214 1122 z "},"Ə":{"ha":813,"x_min":99,"x_max":839,"o":"m 368 713 l 219 863 q 285 958 240 918 q 383 1021 329 999 q 482 1043 436 1043 q 656 999 574 1043 q 788 858 738 954 q 839 606 839 763 q 806 383 839 492 q 714 189 774 275 q 572 51 654 103 q 389 0 489 0 q 241 47 306 0 q 140 172 176 93 q 101 350 104 251 q 150 597 99 468 l 601 597 q 561 747 593 692 q 481 803 529 803 q 436 787 461 803 q 392 749 411 771 q 368 713 372 728 m 374 201 q 476 233 432 201 q 548 316 519 264 q 590 431 576 368 l 289 431 q 284 395 288 421 q 281 363 281 369 q 303 248 281 294 q 374 201 326 201 z "},"F":{"ha":474,"x_min":6,"x_max":653,"o":"m 6 -1 q 43 151 25 65 q 77 325 61 236 q 107 490 93 414 q 129 617 121 567 q 159 805 144 710 q 188 999 174 900 l 653 1022 l 613 851 l 394 851 l 351 604 q 394 606 374 606 q 433 606 414 606 l 499 606 q 528 606 515 606 q 550 607 540 606 q 546 569 549 588 q 540 531 543 550 l 528 456 q 444 458 499 456 q 328 461 389 460 l 264 51 q 217 43 240 47 q 171 33 194 39 q 86 17 132 26 q 6 -1 40 7 z "},"G":{"ha":693,"x_min":58,"x_max":789,"o":"m 310 -33 q 212 -11 258 -33 q 132 57 165 11 q 78 169 97 101 q 58 329 58 238 q 110 642 58 508 q 240 864 161 775 q 408 996 318 953 q 575 1039 497 1039 q 697 1006 650 1039 q 767 919 744 974 q 789 799 789 865 l 599 763 q 565 842 586 818 q 518 865 544 865 q 455 832 488 865 q 391 742 422 799 q 335 617 360 686 q 294 474 310 547 q 275 335 278 400 q 301 212 275 249 q 367 175 326 175 q 444 200 406 175 q 508 267 482 225 q 535 363 533 310 l 386 340 l 413 478 l 540 494 q 652 511 593 501 q 756 529 711 521 q 701 281 746 388 q 589 106 656 175 q 449 1 522 36 q 310 -33 376 -33 z "},"Ğ":{"ha":693,"x_min":58,"x_max":789,"o":"m 310 -33 q 212 -11 258 -33 q 132 57 165 11 q 78 169 97 101 q 58 329 58 238 q 110 642 58 508 q 240 864 161 775 q 408 996 318 953 q 575 1039 497 1039 q 697 1006 650 1039 q 767 919 744 974 q 789 799 789 865 l 599 763 q 565 842 586 818 q 518 865 544 865 q 455 832 488 865 q 391 742 422 799 q 335 617 360 686 q 294 474 310 547 q 275 335 278 400 q 301 212 275 249 q 367 175 326 175 q 444 200 406 175 q 508 267 482 225 q 535 363 533 310 l 386 340 l 413 478 l 540 494 q 652 511 593 501 q 756 529 711 521 q 701 281 746 388 q 589 106 656 175 q 449 1 522 36 q 310 -33 376 -33 m 544 1069 q 454 1106 494 1069 q 393 1199 414 1143 q 375 1314 372 1256 l 406 1342 q 421 1356 413 1349 q 438 1369 429 1363 q 453 1383 444 1376 q 471 1397 461 1390 q 480 1329 469 1364 q 510 1271 490 1294 q 556 1247 529 1247 q 624 1268 601 1247 q 665 1321 647 1288 q 710 1411 682 1354 q 742 1384 728 1396 q 767 1361 756 1372 l 789 1339 q 742 1214 776 1276 q 658 1110 708 1151 q 544 1069 608 1069 z "},"Ǧ":{"ha":693,"x_min":58,"x_max":789,"o":"m 310 -33 q 212 -11 258 -33 q 132 57 165 11 q 78 169 97 101 q 58 329 58 238 q 110 642 58 508 q 240 864 161 775 q 408 996 318 953 q 575 1039 497 1039 q 697 1006 650 1039 q 767 919 744 974 q 789 799 789 865 l 599 763 q 565 842 586 818 q 518 865 544 865 q 455 832 488 865 q 391 742 422 799 q 335 617 360 686 q 294 474 310 547 q 275 335 278 400 q 301 212 275 249 q 367 175 326 175 q 444 200 406 175 q 508 267 482 225 q 535 363 533 310 l 386 340 l 413 478 l 540 494 q 652 511 593 501 q 756 529 711 521 q 701 281 746 388 q 589 106 656 175 q 449 1 522 36 q 310 -33 376 -33 m 514 1050 q 481 1052 496 1051 q 456 1053 465 1053 l 433 1053 q 419 1051 428 1051 q 414 1053 414 1051 q 401 1092 408 1071 q 386 1138 393 1114 q 369 1183 378 1161 q 354 1228 361 1206 q 338 1278 346 1253 q 319 1329 329 1303 l 350 1358 q 365 1372 357 1365 q 382 1386 374 1379 l 415 1414 l 508 1254 q 563 1318 532 1281 q 621 1388 594 1356 q 654 1428 647 1419 q 686 1400 672 1413 q 711 1376 700 1388 l 733 1356 q 697 1297 715 1325 q 658 1240 678 1268 q 588 1140 626 1193 q 514 1050 549 1088 z "},"Ĝ":{"ha":693,"x_min":58,"x_max":789,"o":"m 310 -33 q 212 -11 258 -33 q 132 57 165 11 q 78 169 97 101 q 58 329 58 238 q 110 642 58 508 q 240 864 161 775 q 408 996 318 953 q 575 1039 497 1039 q 697 1006 650 1039 q 767 919 744 974 q 789 799 789 865 l 599 763 q 565 842 586 818 q 518 865 544 865 q 455 832 488 865 q 391 742 422 799 q 335 617 360 686 q 294 474 310 547 q 275 335 278 400 q 301 212 275 249 q 367 175 326 175 q 444 200 406 175 q 508 267 482 225 q 535 363 533 310 l 386 340 l 413 478 l 540 494 q 652 511 593 501 q 756 529 711 521 q 701 281 746 388 q 589 106 656 175 q 449 1 522 36 q 310 -33 376 -33 m 431 1042 q 399 1070 413 1057 q 376 1094 385 1083 q 365 1107 371 1101 q 356 1118 360 1113 q 395 1174 375 1146 q 436 1229 415 1203 q 512 1325 471 1275 q 589 1411 553 1375 q 635 1405 617 1407 q 665 1404 654 1403 q 689 1403 686 1406 q 701 1363 694 1385 q 714 1317 707 1340 l 739 1225 q 754 1174 746 1199 q 769 1122 763 1149 l 736 1094 q 722 1083 729 1089 q 704 1069 714 1076 l 669 1043 l 585 1207 q 526 1149 557 1182 q 471 1088 496 1117 q 431 1042 446 1058 z "},"Ģ":{"ha":693,"x_min":58,"x_max":789,"o":"m 310 -33 q 212 -11 258 -33 q 132 57 165 11 q 78 169 97 101 q 58 329 58 238 q 110 642 58 508 q 240 864 161 775 q 408 996 318 953 q 575 1039 497 1039 q 697 1006 650 1039 q 767 919 744 974 q 789 799 789 865 l 599 763 q 565 842 586 818 q 518 865 544 865 q 455 832 488 865 q 391 742 422 799 q 335 617 360 686 q 294 474 310 547 q 275 335 278 400 q 301 212 275 249 q 367 175 326 175 q 444 200 406 175 q 508 267 482 225 q 535 363 533 310 l 386 340 l 413 478 l 540 494 q 652 511 593 501 q 756 529 711 521 q 701 281 746 388 q 589 106 656 175 q 449 1 522 36 q 310 -33 376 -33 m 161 -376 q 182 -262 175 -306 q 193 -184 189 -219 q 203 -104 197 -149 l 239 -104 q 246 -106 250 -106 q 247 -106 242 -106 q 313 -105 289 -106 q 361 -103 336 -104 q 426 -101 386 -103 q 410 -178 417 -149 q 395 -234 403 -208 q 378 -292 388 -260 q 351 -376 368 -325 l 161 -376 z "},"Ġ":{"ha":693,"x_min":58,"x_max":789,"o":"m 310 -33 q 212 -11 258 -33 q 132 57 165 11 q 78 169 97 101 q 58 329 58 238 q 110 642 58 508 q 240 864 161 775 q 408 996 318 953 q 575 1039 497 1039 q 697 1006 650 1039 q 767 919 744 974 q 789 799 789 865 l 599 763 q 565 842 586 818 q 518 865 544 865 q 455 832 488 865 q 391 742 422 799 q 335 617 360 686 q 294 474 310 547 q 275 335 278 400 q 301 212 275 249 q 367 175 326 175 q 444 200 406 175 q 508 267 482 225 q 535 363 533 310 l 386 340 l 413 478 l 540 494 q 652 511 593 501 q 756 529 711 521 q 701 281 746 388 q 589 106 656 175 q 449 1 522 36 q 310 -33 376 -33 m 558 1081 q 475 1117 503 1081 q 447 1200 447 1153 q 478 1284 447 1244 q 572 1324 508 1324 q 673 1289 640 1324 q 706 1210 706 1254 q 667 1121 706 1161 q 558 1081 629 1081 z "},"H":{"ha":614,"x_min":13,"x_max":760,"o":"m 13 -3 q 48 187 31 93 q 83 374 65 281 q 120 590 103 489 q 155 792 138 692 q 189 1001 172 892 l 414 1017 q 367 814 390 919 q 325 608 344 708 l 463 624 q 481 720 472 672 q 497 815 490 768 q 515 909 504 861 q 538 1006 525 957 q 639 1019 588 1014 q 725 1026 690 1024 q 760 1028 760 1028 q 724 897 742 972 q 689 739 706 822 q 657 573 672 656 q 629 419 642 490 q 600 241 614 331 q 572 58 586 151 l 356 33 q 373 116 365 75 q 388 196 381 157 q 416 335 401 263 q 439 458 431 407 l 304 446 q 294 389 299 419 q 282 324 289 358 q 269 256 275 289 q 257 192 263 224 q 242 117 250 154 q 226 42 233 79 l 13 -3 z "},"Ħ":{"ha":801,"x_min":108,"x_max":910,"o":"m 108 -3 q 144 187 126 93 q 179 374 161 281 q 235 690 211 546 l 135 679 l 163 831 l 260 842 q 285 1001 272 918 l 510 1017 q 492 942 501 981 q 475 865 483 904 l 604 879 q 633 1006 617 939 q 735 1019 683 1014 q 821 1026 786 1024 q 856 1028 856 1028 q 822 903 840 972 l 910 913 l 889 760 l 788 749 q 753 577 769 663 q 725 419 738 492 q 696 241 710 331 q 668 58 682 151 l 451 33 q 485 196 471 117 q 499 264 492 229 q 513 335 506 299 q 525 401 519 371 q 536 458 531 432 l 400 446 q 390 389 394 419 q 378 324 385 358 q 366 256 372 289 q 353 192 360 224 q 338 117 346 154 q 322 42 329 79 l 108 -3 m 558 624 q 569 676 564 650 q 578 726 574 701 l 442 713 q 431 660 436 686 q 422 608 426 633 l 558 624 z "},"Ĥ":{"ha":614,"x_min":13,"x_max":760,"o":"m 13 -3 q 48 187 31 93 q 83 374 65 281 q 120 590 103 489 q 155 792 138 692 q 189 1001 172 892 l 414 1017 q 367 814 390 919 q 325 608 344 708 l 463 624 q 481 720 472 672 q 497 815 490 768 q 515 909 504 861 q 538 1006 525 957 q 639 1019 588 1014 q 725 1026 690 1024 q 760 1028 760 1028 q 724 897 742 972 q 689 739 706 822 q 657 573 672 656 q 629 419 642 490 q 600 241 614 331 q 572 58 586 151 l 356 33 q 373 116 365 75 q 388 196 381 157 q 416 335 401 263 q 439 458 431 407 l 304 446 q 294 389 299 419 q 282 324 289 358 q 269 256 275 289 q 257 192 263 224 q 242 117 250 154 q 226 42 233 79 l 13 -3 m 389 1042 q 357 1070 371 1057 q 335 1094 343 1083 q 324 1107 329 1101 q 314 1118 318 1113 q 353 1174 333 1146 q 394 1229 374 1203 q 470 1325 429 1275 q 547 1411 511 1375 q 594 1405 575 1407 q 624 1404 613 1403 q 647 1403 644 1406 q 659 1363 653 1385 q 672 1317 665 1340 l 697 1225 q 713 1174 704 1199 q 728 1122 721 1149 l 694 1094 q 680 1083 688 1089 q 663 1069 672 1076 l 628 1043 l 543 1207 q 485 1149 515 1182 q 429 1088 454 1117 q 389 1042 404 1058 z "},"I":{"ha":278,"x_min":-8,"x_max":408,"o":"m -8 1 q 38 188 15 83 q 83 401 61 292 q 124 607 104 510 q 158 788 142 696 q 192 972 175 879 l 408 1007 q 372 823 390 914 q 336 642 354 732 q 296 436 317 544 q 256 223 275 328 q 219 28 236 118 q 157 24 194 28 q 82 16 119 21 q 19 7 44 11 q -8 1 -7 3 z "},"Ĳ":{"ha":658,"x_min":-8,"x_max":826,"o":"m -8 1 q 38 188 15 83 q 83 401 61 292 q 124 607 104 510 q 158 788 142 696 q 192 972 175 879 l 408 1007 q 372 823 390 914 q 336 642 354 732 q 296 436 317 544 q 256 223 275 328 q 219 28 236 118 q 157 24 194 28 q 82 16 119 21 q 19 7 44 11 q -8 1 -7 3 m 417 -1 q 333 15 378 -1 q 233 72 288 32 l 329 286 q 356 262 336 272 q 400 251 376 251 q 432 281 418 251 q 455 351 446 310 q 469 430 464 393 q 476 482 475 467 q 503 617 490 550 q 526 751 515 683 q 552 885 538 818 q 582 1018 567 951 q 705 1035 644 1024 q 826 1064 765 1047 q 783 903 806 993 q 740 718 761 814 q 701 532 719 622 q 668 369 682 442 q 638 247 656 311 q 590 126 619 182 q 519 34 561 69 q 417 -1 476 -1 z "},"Í":{"ha":278,"x_min":-8,"x_max":567,"o":"m -8 1 q 38 188 15 83 q 83 401 61 292 q 124 607 104 510 q 158 788 142 696 q 192 972 175 879 l 408 1007 q 372 823 390 914 q 336 642 354 732 q 296 436 317 544 q 256 223 275 328 q 219 28 236 118 q 157 24 194 28 q 82 16 119 21 q 19 7 44 11 q -8 1 -7 3 m 214 1040 q 213 1055 213 1047 q 213 1068 213 1063 l 213 1093 q 213 1116 213 1104 q 214 1139 213 1128 l 214 1186 q 306 1277 261 1235 q 392 1357 350 1319 q 472 1433 433 1394 q 547 1511 511 1472 q 556 1338 554 1417 q 558 1256 556 1297 q 567 1172 561 1215 q 482 1139 526 1156 q 390 1106 438 1122 q 299 1072 343 1088 q 214 1040 254 1056 z "},"Ĭ":{"ha":278,"x_min":-8,"x_max":585,"o":"m -8 1 q 38 188 15 83 q 83 401 61 292 q 124 607 104 510 q 158 788 142 696 q 192 972 175 879 l 408 1007 q 372 823 390 914 q 336 642 354 732 q 296 436 317 544 q 256 223 275 328 q 219 28 236 118 q 157 24 194 28 q 82 16 119 21 q 19 7 44 11 q -8 1 -7 3 m 340 1068 q 250 1105 290 1068 q 189 1198 210 1142 q 171 1313 168 1254 l 201 1340 q 217 1354 208 1347 q 233 1368 225 1361 q 249 1382 240 1375 q 267 1396 257 1389 q 276 1328 265 1363 q 306 1269 286 1293 q 351 1246 325 1246 q 419 1267 397 1246 q 460 1319 443 1286 q 506 1410 478 1353 q 538 1383 524 1394 q 563 1360 551 1371 l 585 1338 q 538 1213 572 1275 q 454 1109 504 1150 q 340 1068 404 1068 z "},"Î":{"ha":278,"x_min":-8,"x_max":565,"o":"m -8 1 q 38 188 15 83 q 83 401 61 292 q 124 607 104 510 q 158 788 142 696 q 192 972 175 879 l 408 1007 q 372 823 390 914 q 336 642 354 732 q 296 436 317 544 q 256 223 275 328 q 219 28 236 118 q 157 24 194 28 q 82 16 119 21 q 19 7 44 11 q -8 1 -7 3 m 226 1040 q 194 1069 208 1056 q 172 1093 181 1082 q 161 1106 167 1100 q 151 1117 156 1111 q 191 1173 171 1144 q 232 1228 211 1201 q 308 1324 267 1274 q 385 1410 349 1374 q 431 1403 413 1406 q 461 1403 450 1401 q 485 1401 482 1404 q 497 1361 490 1383 q 510 1315 503 1339 l 535 1224 q 550 1172 542 1197 q 565 1121 558 1147 l 532 1093 q 517 1081 525 1088 q 500 1068 510 1075 l 465 1042 l 381 1206 q 322 1148 353 1181 q 267 1086 292 1115 q 226 1040 242 1057 z "},"Ȉ":{"ha":278,"x_min":-79,"x_max":685,"o":"m -8 1 q 38 188 15 83 q 83 401 61 292 q 124 607 104 510 q 158 788 142 696 q 192 972 175 879 l 408 1007 q 372 823 390 914 q 336 642 354 732 q 296 436 317 544 q 256 223 275 328 q 219 28 236 118 q 157 24 194 28 q 82 16 119 21 q 19 7 44 11 q -8 1 -7 3 m 274 1015 q 204 1032 239 1024 q 138 1049 169 1040 q 21 1077 81 1061 q -79 1106 -39 1093 q -60 1203 -71 1146 q -39 1315 -49 1261 l -14 1446 q 41 1388 14 1417 q 94 1332 68 1360 q 192 1228 140 1283 q 283 1128 244 1172 l 274 1015 m 675 981 q 606 997 640 989 q 539 1014 571 1006 q 422 1042 482 1026 q 322 1071 363 1058 q 342 1169 331 1111 q 363 1281 353 1226 l 388 1411 q 442 1353 415 1382 q 496 1297 469 1325 q 594 1193 542 1249 q 685 1093 646 1138 l 675 981 z "},"Ï":{"ha":278,"x_min":-8,"x_max":654,"o":"m -8 1 q 38 188 15 83 q 83 401 61 292 q 124 607 104 510 q 158 788 142 696 q 192 972 175 879 l 408 1007 q 372 823 390 914 q 336 642 354 732 q 296 436 317 544 q 256 223 275 328 q 219 28 236 118 q 157 24 194 28 q 82 16 119 21 q 19 7 44 11 q -8 1 -7 3 m 506 1129 q 422 1166 450 1129 q 394 1249 394 1203 q 427 1335 394 1297 q 521 1372 460 1372 q 621 1338 588 1372 q 654 1260 654 1303 q 616 1171 654 1213 q 506 1129 578 1129 m 183 1129 q 100 1166 128 1129 q 72 1249 72 1203 q 103 1334 72 1296 q 197 1372 135 1372 q 298 1338 265 1372 q 331 1260 331 1303 q 290 1167 331 1206 q 183 1129 249 1129 z "},"İ":{"ha":278,"x_min":-8,"x_max":501,"o":"m -8 1 q 38 188 15 83 q 83 401 61 292 q 124 607 104 510 q 158 788 142 696 q 192 972 175 879 l 408 1007 q 372 823 390 914 q 336 642 354 732 q 296 436 317 544 q 256 223 275 328 q 219 28 236 118 q 157 24 194 28 q 82 16 119 21 q 19 7 44 11 q -8 1 -7 3 m 354 1079 q 271 1115 299 1079 q 243 1199 243 1151 q 274 1283 243 1243 q 368 1322 304 1322 q 469 1288 436 1322 q 501 1208 501 1253 q 463 1119 501 1160 q 354 1079 425 1079 z "},"Ị":{"ha":278,"x_min":-8,"x_max":408,"o":"m -8 1 q 38 188 15 83 q 83 401 61 292 q 124 607 104 510 q 158 788 142 696 q 192 972 175 879 l 408 1007 q 372 823 390 914 q 336 642 354 732 q 296 436 317 544 q 256 223 275 328 q 219 28 236 118 q 157 24 194 28 q 82 16 119 21 q 19 7 44 11 q -8 1 -7 3 m 121 -285 q 38 -249 65 -285 q 10 -165 10 -212 q 40 -81 10 -121 q 135 -42 71 -42 q 235 -76 203 -42 q 268 -156 268 -111 q 230 -244 268 -204 q 121 -285 192 -285 z "},"Ì":{"ha":278,"x_min":-8,"x_max":408,"o":"m -8 1 q 38 188 15 83 q 83 401 61 292 q 124 607 104 510 q 158 788 142 696 q 192 972 175 879 l 408 1007 q 372 823 390 914 q 336 642 354 732 q 296 436 317 544 q 256 223 275 328 q 219 28 236 118 q 157 24 194 28 q 82 16 119 21 q 19 7 44 11 q -8 1 -7 3 m 376 1043 q 307 1060 342 1051 q 240 1076 272 1068 q 124 1105 183 1089 q 24 1133 64 1121 q 43 1231 32 1174 q 64 1343 54 1289 l 89 1474 q 144 1416 117 1444 q 197 1360 171 1388 q 295 1256 243 1311 q 386 1156 347 1200 l 376 1043 z "},"Ỉ":{"ha":278,"x_min":-8,"x_max":488,"o":"m -8 1 q 38 188 15 83 q 83 401 61 292 q 124 607 104 510 q 158 788 142 696 q 192 972 175 879 l 408 1007 q 372 823 390 914 q 336 642 354 732 q 296 436 317 544 q 256 223 275 328 q 219 28 236 118 q 157 24 194 28 q 82 16 119 21 q 19 7 44 11 q -8 1 -7 3 m 283 1033 q 298 1095 283 1071 q 331 1138 313 1119 q 362 1167 347 1154 q 376 1189 376 1179 q 372 1197 376 1192 q 361 1201 368 1201 q 328 1188 347 1201 q 288 1157 308 1174 l 265 1239 q 389 1289 329 1289 q 421 1286 403 1289 q 449 1276 439 1283 q 472 1252 461 1268 q 488 1200 483 1236 q 474 1149 488 1169 q 439 1113 460 1128 q 401 1081 417 1097 q 376 1039 385 1065 l 350 1036 l 283 1033 z "},"Ȋ":{"ha":278,"x_min":-8,"x_max":532,"o":"m -8 1 q 38 188 15 83 q 83 401 61 292 q 124 607 104 510 q 158 788 142 696 q 192 972 175 879 l 408 1007 q 372 823 390 914 q 336 642 354 732 q 296 436 317 544 q 256 223 275 328 q 219 28 236 118 q 157 24 194 28 q 82 16 119 21 q 19 7 44 11 q -8 1 -7 3 m 358 1356 q 449 1319 410 1356 q 510 1226 489 1282 q 528 1111 532 1171 l 497 1083 q 482 1071 490 1078 q 467 1057 474 1064 q 450 1042 458 1050 q 432 1028 442 1035 q 423 1097 433 1063 q 393 1154 413 1131 q 347 1178 374 1178 q 281 1158 304 1178 q 240 1104 258 1138 q 193 1014 221 1071 q 161 1041 175 1029 q 136 1064 147 1053 l 114 1086 q 161 1212 128 1150 q 244 1315 194 1274 q 358 1356 294 1356 z "},"Ī":{"ha":278,"x_min":-8,"x_max":593,"o":"m -8 1 q 38 188 15 83 q 83 401 61 292 q 124 607 104 510 q 158 788 142 696 q 192 972 175 879 l 408 1007 q 372 823 390 914 q 336 642 354 732 q 296 436 317 544 q 256 223 275 328 q 219 28 236 118 q 157 24 194 28 q 82 16 119 21 q 19 7 44 11 q -8 1 -7 3 m 60 1061 q 51 1124 53 1085 q 50 1199 50 1163 l 50 1254 q 50 1267 50 1261 q 51 1279 50 1274 l 571 1324 l 593 1099 l 383 1086 q 260 1078 314 1082 q 159 1070 207 1074 q 60 1061 111 1067 z "},"Į":{"ha":278,"x_min":-8,"x_max":408,"o":"m -8 1 q 38 188 15 83 q 83 401 61 292 q 124 607 104 510 q 158 788 142 696 q 192 972 175 879 l 408 1007 q 372 823 390 914 q 336 642 354 732 q 296 436 317 544 q 256 223 275 328 q 219 28 236 118 q 157 24 194 28 q 82 16 119 21 q 19 7 44 11 q -8 1 -7 3 m 207 -186 q 73 -147 126 -186 q 19 -51 19 -108 q 75 57 19 3 q 99 61 78 57 q 158 69 119 65 q 154 47 156 57 q 153 28 153 36 q 173 -29 153 -7 q 222 -51 193 -51 q 296 -12 261 -51 l 324 -135 q 270 -174 301 -161 q 207 -186 239 -186 z "},"Ĩ":{"ha":278,"x_min":-8,"x_max":688,"o":"m -8 1 q 38 188 15 83 q 83 401 61 292 q 124 607 104 510 q 158 788 142 696 q 192 972 175 879 l 408 1007 q 372 823 390 914 q 336 642 354 732 q 296 436 317 544 q 256 223 275 328 q 219 28 236 118 q 157 24 194 28 q 82 16 119 21 q 19 7 44 11 q -8 1 -7 3 m 150 1064 q 107 1097 132 1076 q 75 1125 82 1117 q 92 1160 75 1125 q 144 1247 110 1196 q 220 1333 176 1296 q 315 1371 264 1371 q 373 1353 347 1371 q 418 1311 399 1335 q 451 1269 438 1288 q 469 1251 464 1251 q 522 1276 497 1251 q 571 1330 547 1300 q 613 1376 594 1360 q 628 1365 621 1371 q 643 1353 636 1358 q 656 1342 650 1347 q 668 1333 663 1338 q 678 1325 674 1329 q 688 1315 683 1321 q 621 1194 658 1247 q 546 1113 593 1151 q 446 1075 499 1075 q 394 1090 413 1075 q 364 1122 376 1104 q 336 1155 351 1140 q 292 1169 321 1169 q 240 1150 265 1169 q 191 1106 214 1131 q 150 1064 168 1081 z "},"J":{"ha":388,"x_min":-37,"x_max":556,"o":"m 146 -1 q 62 15 107 -1 q -37 72 17 32 l 58 286 q 85 262 65 272 q 129 251 106 251 q 161 281 147 251 q 184 351 175 310 q 199 430 193 393 q 206 482 204 467 q 232 617 219 550 q 256 751 244 683 q 281 885 267 818 q 311 1018 296 951 q 434 1035 374 1024 q 556 1064 494 1047 q 513 903 535 993 q 469 718 490 814 q 430 532 449 622 q 397 369 411 442 q 367 247 385 311 q 319 126 349 182 q 248 34 290 69 q 146 -1 206 -1 z "},"Ĵ":{"ha":388,"x_min":-37,"x_max":689,"o":"m 146 -1 q 62 15 107 -1 q -37 72 17 32 l 58 286 q 85 262 65 272 q 129 251 106 251 q 161 281 147 251 q 184 351 175 310 q 199 430 193 393 q 206 482 204 467 q 232 617 219 550 q 256 751 244 683 q 281 885 267 818 q 311 1018 296 951 q 434 1035 374 1024 q 556 1064 494 1047 q 513 903 535 993 q 469 718 490 814 q 430 532 449 622 q 397 369 411 442 q 367 247 385 311 q 319 126 349 182 q 248 34 290 69 q 146 -1 206 -1 m 350 1042 q 318 1070 332 1057 q 296 1094 304 1083 q 285 1107 290 1101 q 275 1118 279 1113 q 315 1174 294 1146 q 356 1229 335 1203 q 431 1325 390 1275 q 508 1411 472 1375 q 555 1405 536 1407 q 585 1404 574 1403 q 608 1403 606 1406 q 620 1363 614 1385 q 633 1317 626 1340 l 658 1225 q 674 1174 665 1199 q 689 1122 682 1149 l 656 1094 q 641 1083 649 1089 q 624 1069 633 1076 l 589 1043 l 504 1207 q 446 1149 476 1182 q 390 1088 415 1117 q 350 1042 365 1058 z "},"K":{"ha":642,"x_min":10,"x_max":838,"o":"m 10 -1 q 50 190 31 96 q 88 376 69 285 q 144 703 117 542 q 185 1013 172 865 l 257 1008 q 295 1006 276 1007 q 332 1003 314 1004 q 374 1001 353 1001 q 415 1000 394 1000 q 406 956 413 989 q 394 888 400 922 q 385 842 388 854 l 360 704 l 368 706 q 461 850 408 768 q 560 1007 514 932 q 699 1019 629 1013 q 838 1038 768 1026 q 774 951 806 994 q 711 865 742 908 q 642 768 679 821 q 570 665 604 715 q 514 578 536 614 q 547 440 529 508 q 586 307 565 372 q 628 175 607 242 q 671 40 649 108 q 606 42 639 42 q 540 43 572 43 q 463 42 500 43 q 385 40 425 42 q 372 133 379 85 q 358 231 365 181 q 344 327 351 279 q 331 419 338 375 l 306 390 q 285 288 296 350 q 273 227 279 257 q 261 169 267 197 q 249 102 256 136 q 235 32 242 68 l 10 -1 z "},"Ķ":{"ha":642,"x_min":10,"x_max":838,"o":"m 10 -1 q 50 190 31 96 q 88 376 69 285 q 144 703 117 542 q 185 1013 172 865 l 257 1008 q 295 1006 276 1007 q 332 1003 314 1004 q 374 1001 353 1001 q 415 1000 394 1000 q 406 956 413 989 q 394 888 400 922 q 385 842 388 854 l 360 704 l 368 706 q 461 850 408 768 q 560 1007 514 932 q 699 1019 629 1013 q 838 1038 768 1026 q 774 951 806 994 q 711 865 742 908 q 642 768 679 821 q 570 665 604 715 q 514 578 536 614 q 547 440 529 508 q 586 307 565 372 q 628 175 607 242 q 671 40 649 108 q 606 42 639 42 q 540 43 572 43 q 463 42 500 43 q 385 40 425 42 q 372 133 379 85 q 358 231 365 181 q 344 327 351 279 q 331 419 338 375 l 306 390 q 285 288 296 350 q 273 227 279 257 q 261 169 267 197 q 249 102 256 136 q 235 32 242 68 l 10 -1 m 135 -376 q 156 -262 149 -306 q 167 -184 163 -219 q 176 -104 171 -149 l 213 -104 q 219 -106 224 -106 q 221 -106 215 -106 q 286 -105 263 -106 q 335 -103 310 -104 q 400 -101 360 -103 q 383 -178 390 -149 q 369 -234 376 -208 q 351 -292 361 -260 q 325 -376 342 -325 l 135 -376 z "},"L":{"ha":419,"x_min":17,"x_max":438,"o":"m 17 -3 q 49 218 32 107 q 85 433 67 329 q 121 619 104 536 q 157 803 139 710 q 194 990 175 896 l 438 1022 l 365 708 q 326 533 346 626 q 289 351 306 439 q 263 196 272 264 q 337 199 297 199 q 407 200 376 200 q 413 133 408 168 q 422 72 417 97 q 426 43 426 46 q 416 43 421 43 q 406 44 411 43 l 383 44 q 263 40 329 44 q 133 24 197 35 q 17 -3 68 14 z "},"Ǉ":{"ha":807,"x_min":17,"x_max":975,"o":"m 17 -3 q 49 218 32 107 q 85 433 67 329 q 121 619 104 536 q 157 803 139 710 q 194 990 175 896 l 438 1022 l 365 708 q 326 533 346 626 q 289 351 306 439 q 263 196 272 264 q 337 199 297 199 q 407 200 376 200 q 413 133 408 168 q 422 72 417 97 q 426 43 426 46 q 416 43 421 43 q 406 44 411 43 l 383 44 q 263 40 329 44 q 133 24 197 35 q 17 -3 68 14 m 565 -1 q 481 15 526 -1 q 382 72 436 32 l 478 286 q 505 262 485 272 q 549 251 525 251 q 581 281 567 251 q 603 351 594 310 q 618 430 613 393 q 625 482 624 467 q 651 617 639 550 q 675 751 664 683 q 701 885 686 818 q 731 1018 715 951 q 853 1035 793 1024 q 975 1064 914 1047 q 932 903 954 993 q 889 718 910 814 q 849 532 868 622 q 817 369 831 442 q 786 247 804 311 q 739 126 768 182 q 667 34 710 69 q 565 -1 625 -1 z "},"Ĺ":{"ha":419,"x_min":17,"x_max":583,"o":"m 17 -3 q 49 218 32 107 q 85 433 67 329 q 121 619 104 536 q 157 803 139 710 q 194 990 175 896 l 438 1022 l 365 708 q 326 533 346 626 q 289 351 306 439 q 263 196 272 264 q 337 199 297 199 q 407 200 376 200 q 413 133 408 168 q 422 72 417 97 q 426 43 426 46 q 416 43 421 43 q 406 44 411 43 l 383 44 q 263 40 329 44 q 133 24 197 35 q 17 -3 68 14 m 231 1042 q 229 1056 229 1049 q 229 1069 229 1064 l 229 1094 q 229 1117 229 1106 q 231 1140 229 1129 l 231 1188 q 322 1278 278 1236 q 408 1358 367 1321 q 489 1435 450 1396 q 564 1513 528 1474 q 572 1339 571 1418 q 575 1258 572 1299 q 583 1174 578 1217 q 499 1140 543 1157 q 407 1107 454 1124 q 315 1073 360 1089 q 231 1042 271 1057 z "},"Ľ":{"ha":647,"x_min":17,"x_max":744,"o":"m 17 -3 q 49 218 32 107 q 85 433 67 329 q 121 619 104 536 q 157 803 139 710 q 194 990 175 896 l 438 1022 l 365 708 q 326 533 346 626 q 289 351 306 439 q 263 196 272 264 q 337 199 297 199 q 407 200 376 200 q 413 133 408 168 q 422 72 417 97 q 426 43 426 46 q 416 43 421 43 q 406 44 411 43 l 383 44 q 263 40 329 44 q 133 24 197 35 q 17 -3 68 14 m 468 639 q 508 840 489 744 q 535 1001 526 935 l 571 1001 q 592 1000 582 1000 q 607 1000 601 1000 q 643 1001 628 1000 q 681 1002 658 1001 q 744 1004 704 1003 q 701 826 725 911 q 644 639 676 742 l 468 639 z "},"Ļ":{"ha":419,"x_min":17,"x_max":438,"o":"m 17 -3 q 49 218 32 107 q 85 433 67 329 q 121 619 104 536 q 157 803 139 710 q 194 990 175 896 l 438 1022 l 365 708 q 326 533 346 626 q 289 351 306 439 q 263 196 272 264 q 337 199 297 199 q 407 200 376 200 q 413 133 408 168 q 422 72 417 97 q 426 43 426 46 q 416 43 421 43 q 406 44 411 43 l 383 44 q 263 40 329 44 q 133 24 197 35 q 17 -3 68 14 m 24 -376 q 44 -262 38 -306 q 56 -184 51 -219 q 65 -104 60 -149 l 101 -104 q 108 -106 113 -106 q 110 -106 104 -106 q 175 -105 151 -106 q 224 -103 199 -104 q 289 -101 249 -103 q 272 -178 279 -149 q 258 -234 265 -208 q 240 -292 250 -260 q 214 -376 231 -325 l 24 -376 z "},"Ŀ":{"ha":763,"x_min":17,"x_max":763,"o":"m 17 -3 q 49 218 32 107 q 85 433 67 329 q 121 619 104 536 q 157 803 139 710 q 194 990 175 896 l 438 1022 l 365 708 q 326 533 346 626 q 289 351 306 439 q 263 196 272 264 q 337 199 297 199 q 407 200 376 200 q 413 133 408 168 q 422 72 417 97 q 426 43 426 46 q 416 43 421 43 q 406 44 411 43 l 383 44 q 263 40 329 44 q 133 24 197 35 q 17 -3 68 14 m 585 392 q 516 412 543 392 q 476 462 489 432 q 463 522 463 492 q 499 619 463 578 q 601 660 536 660 q 722 622 682 660 q 763 535 763 583 q 717 435 763 479 q 585 392 671 392 z "},"ǈ":{"ha":807,"x_min":17,"x_max":975,"o":"m 17 -3 q 49 218 32 107 q 85 433 67 329 q 121 619 104 536 q 157 803 139 710 q 194 990 175 896 l 438 1022 l 365 708 q 326 533 346 626 q 289 351 306 439 q 263 196 272 264 q 337 199 297 199 q 407 200 376 200 q 413 133 408 168 q 422 72 417 97 q 426 43 426 46 q 416 43 421 43 q 406 44 411 43 l 383 44 q 263 40 329 44 q 133 24 197 35 q 17 -3 68 14 m 565 -1 q 481 15 526 -1 q 382 72 436 32 l 478 286 q 505 262 485 272 q 549 251 525 251 q 581 281 567 251 q 603 351 594 310 q 618 430 613 393 q 625 482 624 467 q 651 617 639 550 q 675 751 664 683 q 701 885 686 818 q 731 1018 715 951 q 853 1035 793 1024 q 975 1064 914 1047 q 932 903 954 993 q 889 718 910 814 q 849 532 868 622 q 817 369 831 442 q 786 247 804 311 q 739 126 768 182 q 667 34 710 69 q 565 -1 625 -1 z "},"Ł":{"ha":429,"x_min":25,"x_max":511,"o":"m 25 -3 q 56 215 36 93 q 99 463 76 338 q 76 454 89 457 l 58 447 q 49 444 53 446 q 42 440 44 442 l 57 613 q 69 616 63 614 q 81 619 75 618 l 132 636 q 146 708 139 674 q 158 775 153 743 q 169 835 164 807 q 181 888 175 864 q 192 941 186 915 q 203 990 197 967 l 446 1022 q 425 935 436 983 q 401 839 414 894 q 375 721 389 783 q 421 738 399 728 l 464 753 q 486 761 475 757 q 507 771 497 765 l 511 604 l 336 546 q 299 356 317 447 q 271 196 281 264 q 344 199 306 199 q 415 200 383 200 q 421 133 417 168 q 430 72 425 97 q 435 43 435 46 q 424 43 429 43 q 414 44 419 43 l 392 44 q 272 40 338 44 q 141 24 206 35 q 25 -3 76 14 z "},"M":{"ha":860,"x_min":-42,"x_max":956,"o":"m -42 8 q 75 371 19 194 q 124 525 99 443 q 174 690 149 607 q 221 849 199 772 q 258 985 243 925 q 403 993 335 985 q 474 1001 438 997 q 550 1008 511 1006 l 542 940 q 536 901 539 921 q 531 860 533 881 q 524 817 528 839 q 517 774 519 796 q 500 653 511 731 q 474 486 489 576 l 492 486 q 558 662 532 592 q 601 776 585 732 q 653 908 625 842 q 699 1011 681 975 q 778 1020 732 1014 q 873 1035 825 1026 q 956 1049 921 1043 q 920 813 936 932 q 892 587 904 694 q 872 393 881 479 q 857 223 864 307 q 843 57 850 139 l 601 14 q 606 76 601 17 q 619 225 610 136 q 639 394 629 314 q 658 525 649 474 l 646 525 q 562 294 611 419 q 465 18 513 169 q 382 15 417 17 q 301 10 347 13 l 346 525 l 325 525 q 313 466 324 510 q 286 366 301 422 q 254 254 271 310 q 188 24 192 36 l -42 8 z "},"N":{"ha":629,"x_min":8,"x_max":775,"o":"m 8 -7 q 47 187 28 92 q 83 375 65 282 q 123 594 103 483 q 160 811 143 706 q 188 1007 178 917 q 231 1010 210 1008 q 271 1013 251 1011 q 308 1015 289 1014 q 344 1018 326 1017 l 411 1022 q 428 918 421 969 q 443 818 436 867 q 456 740 449 785 q 472 649 464 696 q 487 563 479 603 q 500 497 494 522 q 523 619 514 571 q 541 712 532 667 q 563 818 550 757 l 606 1021 l 775 1042 q 731 839 751 938 q 692 647 710 740 q 631 333 657 479 q 590 76 604 186 l 364 24 l 343 238 q 335 315 340 269 q 324 408 329 360 q 313 495 318 456 q 304 554 307 535 q 278 395 290 472 q 250 246 265 318 q 231 145 240 197 q 211 40 222 93 l 8 -7 z "},"Ǌ":{"ha":1017,"x_min":8,"x_max":1185,"o":"m 8 -7 q 47 187 28 92 q 83 375 65 282 q 123 594 103 483 q 160 811 143 706 q 188 1007 178 917 q 231 1010 210 1008 q 271 1013 251 1011 q 308 1015 289 1014 q 344 1018 326 1017 l 411 1022 q 428 918 421 969 q 443 818 436 867 q 456 740 449 785 q 472 649 464 696 q 487 563 479 603 q 500 497 494 522 q 523 619 514 571 q 541 712 532 667 q 563 818 550 757 l 606 1021 l 775 1042 q 731 839 751 938 q 692 647 710 740 q 631 333 657 479 q 590 76 604 186 l 364 24 l 343 238 q 335 315 340 269 q 324 408 329 360 q 313 495 318 456 q 304 554 307 535 q 278 395 290 472 q 250 246 265 318 q 231 145 240 197 q 211 40 222 93 l 8 -7 m 775 -1 q 691 15 736 -1 q 592 72 646 32 l 688 286 q 715 262 694 272 q 758 251 735 251 q 790 281 776 251 q 813 351 804 310 q 828 430 822 393 q 835 482 833 467 q 861 617 849 550 q 885 751 874 683 q 910 885 896 818 q 940 1018 925 951 q 1063 1035 1003 1024 q 1185 1064 1124 1047 q 1142 903 1164 993 q 1099 718 1119 814 q 1059 532 1078 622 q 1026 369 1040 442 q 996 247 1014 311 q 949 126 978 182 q 877 34 919 69 q 775 -1 835 -1 z "},"Ń":{"ha":629,"x_min":8,"x_max":775,"o":"m 8 -7 q 47 187 28 92 q 83 375 65 282 q 123 594 103 483 q 160 811 143 706 q 188 1007 178 917 q 231 1010 210 1008 q 271 1013 251 1011 q 308 1015 289 1014 q 344 1018 326 1017 l 411 1022 q 428 918 421 969 q 443 818 436 867 q 456 740 449 785 q 472 649 464 696 q 487 563 479 603 q 500 497 494 522 q 523 619 514 571 q 541 712 532 667 q 563 818 550 757 l 606 1021 l 775 1042 q 731 839 751 938 q 692 647 710 740 q 631 333 657 479 q 590 76 604 186 l 364 24 l 343 238 q 335 315 340 269 q 324 408 329 360 q 313 495 318 456 q 304 554 307 535 q 278 395 290 472 q 250 246 265 318 q 231 145 240 197 q 211 40 222 93 l 8 -7 m 413 1042 q 411 1056 411 1049 q 411 1069 411 1064 l 411 1094 q 411 1117 411 1106 q 413 1140 411 1129 l 413 1188 q 504 1278 460 1236 q 590 1358 549 1321 q 671 1435 632 1396 q 746 1513 710 1474 q 754 1339 753 1418 q 757 1258 754 1299 q 765 1174 760 1217 q 681 1140 725 1157 q 589 1107 636 1124 q 497 1073 542 1089 q 413 1042 453 1057 z "},"Ň":{"ha":629,"x_min":8,"x_max":775,"o":"m 8 -7 q 47 187 28 92 q 83 375 65 282 q 123 594 103 483 q 160 811 143 706 q 188 1007 178 917 q 231 1010 210 1008 q 271 1013 251 1011 q 308 1015 289 1014 q 344 1018 326 1017 l 411 1022 q 428 918 421 969 q 443 818 436 867 q 456 740 449 785 q 472 649 464 696 q 487 563 479 603 q 500 497 494 522 q 523 619 514 571 q 541 712 532 667 q 563 818 550 757 l 606 1021 l 775 1042 q 731 839 751 938 q 692 647 710 740 q 631 333 657 479 q 590 76 604 186 l 364 24 l 343 238 q 335 315 340 269 q 324 408 329 360 q 313 495 318 456 q 304 554 307 535 q 278 395 290 472 q 250 246 265 318 q 231 145 240 197 q 211 40 222 93 l 8 -7 m 508 1050 q 475 1052 490 1051 q 450 1053 460 1053 l 428 1053 q 414 1051 422 1051 q 408 1053 408 1051 q 395 1092 403 1071 q 381 1138 388 1114 q 364 1183 372 1161 q 349 1228 356 1206 q 332 1278 340 1253 q 314 1329 324 1303 l 344 1358 q 360 1372 351 1365 q 376 1386 368 1379 l 410 1414 l 503 1254 q 558 1318 526 1281 q 615 1388 589 1356 q 649 1428 642 1419 q 681 1400 667 1413 q 706 1376 694 1388 l 728 1356 q 691 1297 710 1325 q 653 1240 672 1268 q 582 1140 621 1193 q 508 1050 543 1088 z "},"Ņ":{"ha":629,"x_min":8,"x_max":775,"o":"m 8 -7 q 47 187 28 92 q 83 375 65 282 q 123 594 103 483 q 160 811 143 706 q 188 1007 178 917 q 231 1010 210 1008 q 271 1013 251 1011 q 308 1015 289 1014 q 344 1018 326 1017 l 411 1022 q 428 918 421 969 q 443 818 436 867 q 456 740 449 785 q 472 649 464 696 q 487 563 479 603 q 500 497 494 522 q 523 619 514 571 q 541 712 532 667 q 563 818 550 757 l 606 1021 l 775 1042 q 731 839 751 938 q 692 647 710 740 q 631 333 657 479 q 590 76 604 186 l 364 24 l 343 238 q 335 315 340 269 q 324 408 329 360 q 313 495 318 456 q 304 554 307 535 q 278 395 290 472 q 250 246 265 318 q 231 145 240 197 q 211 40 222 93 l 8 -7 m 129 -376 q 150 -262 143 -306 q 161 -184 157 -219 q 171 -104 165 -149 l 207 -104 q 214 -106 218 -106 q 215 -106 210 -106 q 281 -105 257 -106 q 329 -103 304 -104 q 394 -101 354 -103 q 378 -178 385 -149 q 363 -234 371 -208 q 346 -292 356 -260 q 319 -376 336 -325 l 129 -376 z "},"Ɲ":{"ha":646,"x_min":-208,"x_max":775,"o":"m 250 246 l 211 40 q 192 -39 207 10 q 149 -136 178 -87 q 78 -218 121 -185 q -25 -251 36 -251 q -118 -230 -72 -251 q -208 -178 -164 -208 l -129 0 q -91 -36 -110 -22 q -53 -50 -72 -50 q -15 -37 -35 -50 q 11 6 6 -25 l 83 375 q 98 456 90 415 q 113 539 106 496 q 128 624 121 582 q 143 707 136 665 q 156 788 150 749 q 168 865 163 828 q 180 940 175 904 q 188 1007 185 975 q 230 1010 208 1008 q 271 1013 251 1011 l 344 1017 q 381 1019 364 1018 q 411 1022 397 1021 q 429 918 421 969 q 443 818 438 867 l 457 731 q 465 687 461 708 q 472 644 469 665 q 479 603 475 622 q 486 564 483 583 l 500 497 l 513 564 q 519 603 515 583 q 528 644 524 622 q 536 688 532 665 q 546 731 540 710 l 563 818 l 606 1021 l 775 1042 q 731 838 751 936 q 692 647 711 740 l 660 485 l 629 325 q 616 252 622 288 q 606 185 610 217 q 597 126 600 154 q 590 76 593 99 l 364 24 l 333 325 l 322 414 q 319 454 321 435 q 314 492 317 474 l 304 554 l 293 492 q 286 456 290 475 q 279 415 282 436 q 272 374 276 394 q 264 331 268 353 q 258 288 263 310 q 250 246 254 267 z "},"ǋ":{"ha":1017,"x_min":8,"x_max":1185,"o":"m 8 -7 q 47 187 28 92 q 83 375 65 282 q 123 594 103 483 q 160 811 143 706 q 188 1007 178 917 q 231 1010 210 1008 q 271 1013 251 1011 q 308 1015 289 1014 q 344 1018 326 1017 l 411 1022 q 428 918 421 969 q 443 818 436 867 q 456 740 449 785 q 472 649 464 696 q 487 563 479 603 q 500 497 494 522 q 523 619 514 571 q 541 712 532 667 q 563 818 550 757 l 606 1021 l 775 1042 q 731 839 751 938 q 692 647 710 740 q 631 333 657 479 q 590 76 604 186 l 364 24 l 343 238 q 335 315 340 269 q 324 408 329 360 q 313 495 318 456 q 304 554 307 535 q 278 395 290 472 q 250 246 265 318 q 231 145 240 197 q 211 40 222 93 l 8 -7 m 775 -1 q 691 15 736 -1 q 592 72 646 32 l 688 286 q 715 262 694 272 q 758 251 735 251 q 790 281 776 251 q 813 351 804 310 q 828 430 822 393 q 835 482 833 467 q 861 617 849 550 q 885 751 874 683 q 910 885 896 818 q 940 1018 925 951 q 1063 1035 1003 1024 q 1185 1064 1124 1047 q 1142 903 1164 993 q 1099 718 1119 814 q 1059 532 1078 622 q 1026 369 1040 442 q 996 247 1014 311 q 949 126 978 182 q 877 34 919 69 q 775 -1 835 -1 z "},"Ñ":{"ha":629,"x_min":8,"x_max":886,"o":"m 8 -7 q 47 187 28 92 q 83 375 65 282 q 123 594 103 483 q 160 811 143 706 q 188 1007 178 917 q 231 1010 210 1008 q 271 1013 251 1011 q 308 1015 289 1014 q 344 1018 326 1017 l 411 1022 q 428 918 421 969 q 443 818 436 867 q 456 740 449 785 q 472 649 464 696 q 487 563 479 603 q 500 497 494 522 q 523 619 514 571 q 541 712 532 667 q 563 818 550 757 l 606 1021 l 775 1042 q 731 839 751 938 q 692 647 710 740 q 631 333 657 479 q 590 76 604 186 l 364 24 l 343 238 q 335 315 340 269 q 324 408 329 360 q 313 495 318 456 q 304 554 307 535 q 278 395 290 472 q 250 246 265 318 q 231 145 240 197 q 211 40 222 93 l 8 -7 m 349 1065 q 306 1098 331 1078 q 274 1126 281 1118 q 291 1162 274 1126 q 343 1249 308 1197 q 419 1335 375 1297 q 514 1372 463 1372 q 572 1354 546 1372 q 617 1313 597 1336 q 649 1271 636 1289 q 668 1253 663 1253 q 721 1277 696 1253 q 769 1331 746 1301 q 811 1378 793 1361 q 827 1366 819 1372 q 842 1354 835 1360 q 855 1344 849 1349 q 867 1335 861 1339 q 877 1326 872 1331 q 886 1317 882 1322 q 819 1196 857 1249 q 744 1115 792 1153 q 644 1076 697 1076 q 593 1091 611 1076 q 563 1124 575 1106 q 535 1156 550 1142 q 490 1171 519 1171 q 438 1151 464 1171 q 390 1107 413 1132 q 349 1065 367 1082 z "},"Ŋ":{"ha":629,"x_min":8,"x_max":775,"o":"m 590 93 q 566 -15 583 44 q 519 -129 549 -75 q 447 -219 490 -183 q 344 -254 404 -254 q 250 -233 296 -254 q 160 -181 204 -211 l 240 -3 q 278 -38 260 -24 q 317 -53 297 -53 q 351 -36 335 -53 q 364 3 367 -19 l 333 325 l 322 414 q 319 454 321 435 q 314 492 317 474 l 304 554 l 293 492 q 286 456 290 475 q 279 415 282 436 q 272 374 276 394 q 264 331 268 353 q 258 288 263 310 q 250 246 254 267 l 211 40 l 8 -7 q 47 187 28 92 q 83 375 65 282 q 98 456 90 415 q 113 539 106 496 q 128 624 121 582 q 143 707 136 665 q 156 788 150 749 q 168 865 163 828 q 180 940 175 904 q 188 1007 185 975 q 230 1010 208 1008 q 271 1013 251 1011 l 344 1017 q 381 1019 364 1018 q 411 1022 397 1021 q 429 918 421 969 q 443 818 438 867 l 457 731 q 465 687 461 708 q 472 644 469 665 q 479 603 475 622 q 486 564 483 583 l 500 497 l 513 564 q 519 603 515 583 q 528 644 524 622 q 536 688 532 665 q 546 731 540 710 l 563 818 l 606 1021 l 775 1042 q 731 838 751 936 q 692 647 711 740 l 660 485 l 629 325 q 616 252 622 288 q 606 185 610 217 q 597 135 600 154 q 590 93 593 117 z "},"O":{"ha":685,"x_min":43,"x_max":778,"o":"m 251 -6 q 101 65 160 -6 q 43 279 43 136 q 63 446 43 358 q 117 618 82 533 q 197 775 151 703 q 367 965 271 892 q 568 1039 463 1039 q 697 997 651 1039 q 760 888 742 954 q 778 751 778 822 q 727 444 778 586 q 596 203 676 301 q 424 48 515 101 q 251 -6 333 -6 m 326 224 q 437 265 389 224 q 518 372 485 307 q 568 507 551 436 q 585 635 585 578 q 581 683 585 657 q 563 728 576 708 q 519 747 549 747 q 404 701 456 747 q 318 583 353 654 q 267 442 283 511 q 250 315 250 372 q 271 255 250 286 q 326 224 292 224 z "},"Ó":{"ha":685,"x_min":43,"x_max":819,"o":"m 251 -6 q 101 65 160 -6 q 43 279 43 136 q 63 446 43 358 q 117 618 82 533 q 197 775 151 703 q 367 965 271 892 q 568 1039 463 1039 q 697 997 651 1039 q 760 888 742 954 q 778 751 778 822 q 727 444 778 586 q 596 203 676 301 q 424 48 515 101 q 251 -6 333 -6 m 326 224 q 437 265 389 224 q 518 372 485 307 q 568 507 551 436 q 585 635 585 578 q 581 683 585 657 q 563 728 576 708 q 519 747 549 747 q 404 701 456 747 q 318 583 353 654 q 267 442 283 511 q 250 315 250 372 q 271 255 250 286 q 326 224 292 224 m 467 1082 q 465 1097 465 1089 q 465 1110 465 1104 l 465 1135 q 465 1158 465 1146 q 467 1181 465 1169 l 467 1228 q 558 1319 514 1276 q 644 1399 603 1361 q 725 1475 686 1436 q 800 1553 764 1514 q 808 1379 807 1458 q 811 1298 808 1339 q 819 1214 814 1257 q 735 1181 779 1197 q 643 1147 690 1164 q 551 1113 596 1129 q 467 1082 507 1097 z "},"Ŏ":{"ha":685,"x_min":43,"x_max":838,"o":"m 251 -6 q 101 65 160 -6 q 43 279 43 136 q 63 446 43 358 q 117 618 82 533 q 197 775 151 703 q 367 965 271 892 q 568 1039 463 1039 q 697 997 651 1039 q 760 888 742 954 q 778 751 778 822 q 727 444 778 586 q 596 203 676 301 q 424 48 515 101 q 251 -6 333 -6 m 326 224 q 437 265 389 224 q 518 372 485 307 q 568 507 551 436 q 585 635 585 578 q 581 683 585 657 q 563 728 576 708 q 519 747 549 747 q 404 701 456 747 q 318 583 353 654 q 267 442 283 511 q 250 315 250 372 q 271 255 250 286 q 326 224 292 224 m 593 1110 q 503 1147 543 1110 q 442 1240 463 1183 q 424 1354 421 1296 l 454 1382 q 469 1396 461 1389 q 486 1410 478 1403 q 501 1424 493 1417 q 519 1438 510 1431 q 528 1369 518 1404 q 558 1311 539 1335 q 604 1288 578 1288 q 672 1308 650 1288 q 713 1361 696 1328 q 758 1451 731 1394 q 790 1424 776 1436 q 815 1401 804 1413 l 838 1379 q 791 1254 825 1317 q 707 1151 757 1192 q 593 1110 657 1110 z "},"Ô":{"ha":685,"x_min":43,"x_max":818,"o":"m 251 -6 q 101 65 160 -6 q 43 279 43 136 q 63 446 43 358 q 117 618 82 533 q 197 775 151 703 q 367 965 271 892 q 568 1039 463 1039 q 697 997 651 1039 q 760 888 742 954 q 778 751 778 822 q 727 444 778 586 q 596 203 676 301 q 424 48 515 101 q 251 -6 333 -6 m 326 224 q 437 265 389 224 q 518 372 485 307 q 568 507 551 436 q 585 635 585 578 q 581 683 585 657 q 563 728 576 708 q 519 747 549 747 q 404 701 456 747 q 318 583 353 654 q 267 442 283 511 q 250 315 250 372 q 271 255 250 286 q 326 224 292 224 m 479 1082 q 447 1110 461 1097 q 425 1135 433 1124 q 414 1147 419 1142 q 404 1158 408 1153 q 444 1215 424 1186 q 485 1269 464 1243 q 560 1365 519 1315 q 638 1451 601 1415 q 684 1445 665 1447 q 714 1444 703 1443 q 738 1443 735 1446 q 749 1403 743 1425 q 763 1357 756 1381 l 788 1265 q 803 1214 794 1239 q 818 1163 811 1189 l 785 1135 q 770 1123 778 1129 q 753 1110 763 1117 l 718 1083 l 633 1247 q 575 1190 606 1222 q 519 1128 544 1157 q 479 1082 494 1099 z "},"Ố":{"ha":685,"x_min":43,"x_max":1056,"o":"m 251 -6 q 101 65 160 -6 q 43 279 43 136 q 63 446 43 358 q 117 618 82 533 q 197 775 151 703 q 367 965 271 892 q 568 1039 463 1039 q 697 997 651 1039 q 760 888 742 954 q 778 751 778 822 q 727 444 778 586 q 596 203 676 301 q 424 48 515 101 q 251 -6 333 -6 m 326 224 q 437 265 389 224 q 518 372 485 307 q 568 507 551 436 q 585 635 585 578 q 581 683 585 657 q 563 728 576 708 q 519 747 549 747 q 404 701 456 747 q 318 583 353 654 q 267 442 283 511 q 250 315 250 372 q 271 255 250 286 q 326 224 292 224 m 828 1288 q 826 1297 826 1293 q 826 1306 826 1301 l 826 1351 l 828 1382 q 887 1440 858 1413 q 942 1492 915 1468 q 1042 1592 996 1540 q 1046 1533 1044 1561 q 1047 1479 1047 1506 q 1056 1372 1047 1429 q 1001 1351 1029 1363 q 942 1329 972 1340 q 883 1308 911 1318 q 828 1288 854 1297 m 483 1067 q 451 1095 465 1082 q 429 1119 438 1108 q 418 1132 424 1126 q 408 1143 413 1138 q 448 1199 428 1171 q 489 1254 468 1228 q 565 1350 524 1300 q 642 1436 606 1400 q 688 1430 669 1432 q 718 1429 707 1428 q 742 1428 739 1431 q 753 1388 747 1410 q 767 1342 760 1365 l 792 1250 q 807 1199 799 1224 q 822 1147 815 1174 l 789 1119 q 774 1108 782 1114 q 757 1094 767 1101 l 722 1068 l 638 1232 q 579 1174 610 1207 q 524 1113 549 1142 q 483 1067 499 1083 z "},"Ộ":{"ha":685,"x_min":43,"x_max":818,"o":"m 251 -6 q 101 65 160 -6 q 43 279 43 136 q 63 446 43 358 q 117 618 82 533 q 197 775 151 703 q 367 965 271 892 q 568 1039 463 1039 q 697 997 651 1039 q 760 888 742 954 q 778 751 778 822 q 727 444 778 586 q 596 203 676 301 q 424 48 515 101 q 251 -6 333 -6 m 326 224 q 437 265 389 224 q 518 372 485 307 q 568 507 551 436 q 585 635 585 578 q 581 683 585 657 q 563 728 576 708 q 519 747 549 747 q 404 701 456 747 q 318 583 353 654 q 267 442 283 511 q 250 315 250 372 q 271 255 250 286 q 326 224 292 224 m 479 1082 q 447 1110 461 1097 q 425 1135 433 1124 q 414 1147 419 1142 q 404 1158 408 1153 q 444 1215 424 1186 q 485 1269 464 1243 q 560 1365 519 1315 q 638 1451 601 1415 q 684 1445 665 1447 q 714 1444 703 1443 q 738 1443 735 1446 q 749 1403 743 1425 q 763 1357 756 1381 l 788 1265 q 803 1214 794 1239 q 818 1163 811 1189 l 785 1135 q 770 1123 778 1129 q 753 1110 763 1117 l 718 1083 l 633 1247 q 575 1190 606 1222 q 519 1128 544 1157 q 479 1082 494 1099 m 206 -285 q 122 -249 150 -285 q 94 -165 94 -212 q 125 -81 94 -121 q 219 -42 156 -42 q 320 -76 288 -42 q 353 -156 353 -111 q 315 -244 353 -204 q 206 -285 276 -285 z "},"Ồ":{"ha":685,"x_min":43,"x_max":814,"o":"m 251 -6 q 101 65 160 -6 q 43 279 43 136 q 63 446 43 358 q 117 618 82 533 q 197 775 151 703 q 367 965 271 892 q 568 1039 463 1039 q 697 997 651 1039 q 760 888 742 954 q 778 751 778 822 q 727 444 778 586 q 596 203 676 301 q 424 48 515 101 q 251 -6 333 -6 m 326 224 q 437 265 389 224 q 518 372 485 307 q 568 507 551 436 q 585 635 585 578 q 581 683 585 657 q 563 728 576 708 q 519 747 549 747 q 404 701 456 747 q 318 583 353 654 q 267 442 283 511 q 250 315 250 372 q 271 255 250 286 q 326 224 292 224 m 513 1322 q 468 1334 490 1329 q 424 1344 446 1339 q 347 1363 386 1353 q 282 1382 308 1374 q 295 1447 288 1408 q 308 1519 303 1485 l 325 1604 q 360 1567 343 1586 q 396 1531 378 1549 q 459 1462 425 1499 q 519 1396 493 1425 l 513 1322 m 475 1038 q 443 1066 457 1053 q 421 1090 429 1079 q 410 1103 415 1097 q 400 1114 404 1108 q 440 1170 419 1142 q 481 1225 460 1199 q 556 1321 515 1271 q 633 1407 597 1371 q 680 1401 661 1403 q 710 1400 699 1399 q 733 1399 731 1401 q 745 1358 739 1381 q 758 1313 751 1336 l 783 1221 q 799 1169 790 1194 q 814 1118 807 1144 l 781 1090 q 766 1078 774 1085 q 749 1065 758 1072 l 714 1039 l 629 1203 q 571 1145 601 1178 q 515 1083 540 1113 q 475 1038 490 1054 z "},"Ổ":{"ha":685,"x_min":43,"x_max":1042,"o":"m 251 -6 q 101 65 160 -6 q 43 279 43 136 q 63 446 43 358 q 117 618 82 533 q 197 775 151 703 q 367 965 271 892 q 568 1039 463 1039 q 697 997 651 1039 q 760 888 742 954 q 778 751 778 822 q 727 444 778 586 q 596 203 676 301 q 424 48 515 101 q 251 -6 333 -6 m 326 224 q 437 265 389 224 q 518 372 485 307 q 568 507 551 436 q 585 635 585 578 q 581 683 585 657 q 563 728 576 708 q 519 747 549 747 q 404 701 456 747 q 318 583 353 654 q 267 442 283 511 q 250 315 250 372 q 271 255 250 286 q 326 224 292 224 m 838 1304 q 852 1366 838 1342 q 885 1408 867 1390 q 916 1438 901 1425 q 931 1460 931 1450 q 926 1467 931 1463 q 915 1472 922 1472 q 882 1458 901 1472 q 842 1428 863 1444 l 819 1510 q 943 1560 883 1560 q 975 1557 957 1560 q 1003 1547 993 1554 q 1026 1523 1015 1539 q 1042 1471 1038 1507 q 1028 1419 1042 1440 q 993 1383 1014 1399 q 955 1352 971 1368 q 931 1310 939 1336 l 904 1307 l 838 1304 m 493 1058 q 461 1087 475 1074 q 439 1111 447 1100 q 428 1124 433 1118 q 418 1135 422 1129 q 458 1191 438 1163 q 499 1246 478 1219 q 574 1342 533 1292 q 651 1428 615 1392 q 698 1422 679 1424 q 728 1421 717 1419 q 751 1419 749 1422 q 763 1379 757 1401 q 776 1333 769 1357 l 801 1242 q 817 1190 808 1215 q 832 1139 825 1165 l 799 1111 q 784 1099 792 1106 q 767 1086 776 1093 l 732 1060 l 647 1224 q 589 1166 619 1199 q 533 1104 558 1133 q 493 1058 508 1075 z "},"Ỗ":{"ha":685,"x_min":43,"x_max":1061,"o":"m 251 -6 q 101 65 160 -6 q 43 279 43 136 q 63 446 43 358 q 117 618 82 533 q 197 775 151 703 q 367 965 271 892 q 568 1039 463 1039 q 697 997 651 1039 q 760 888 742 954 q 778 751 778 822 q 727 444 778 586 q 596 203 676 301 q 424 48 515 101 q 251 -6 333 -6 m 326 224 q 437 265 389 224 q 518 372 485 307 q 568 507 551 436 q 585 635 585 578 q 581 683 585 657 q 563 728 576 708 q 519 747 549 747 q 404 701 456 747 q 318 583 353 654 q 267 442 283 511 q 250 315 250 372 q 271 255 250 286 q 326 224 292 224 m 524 1482 q 481 1515 506 1494 q 449 1543 456 1535 q 466 1578 449 1543 q 518 1665 483 1614 q 594 1751 550 1714 q 689 1789 638 1789 q 747 1771 721 1789 q 792 1729 772 1753 q 824 1688 811 1706 q 843 1669 838 1669 q 896 1694 871 1669 q 944 1748 921 1718 q 986 1794 968 1778 q 1002 1783 994 1789 q 1017 1771 1010 1776 q 1030 1760 1024 1765 q 1042 1751 1036 1756 q 1052 1743 1047 1747 q 1061 1733 1057 1739 q 994 1613 1032 1665 q 919 1531 967 1569 q 819 1493 872 1493 q 768 1508 786 1493 q 738 1540 750 1522 q 710 1573 725 1558 q 665 1588 694 1588 q 613 1568 639 1588 q 565 1524 588 1549 q 524 1482 542 1499 m 482 1049 q 450 1077 464 1064 q 428 1101 436 1090 q 417 1114 422 1108 q 407 1125 411 1119 q 447 1181 426 1153 q 488 1236 467 1210 q 563 1332 522 1282 q 640 1418 604 1382 q 687 1412 668 1414 q 717 1411 706 1410 q 740 1410 738 1413 q 752 1369 746 1392 q 765 1324 758 1347 l 790 1232 q 806 1181 797 1206 q 821 1129 814 1156 l 788 1101 q 773 1090 781 1096 q 756 1076 765 1083 l 721 1050 l 636 1214 q 578 1156 608 1189 q 522 1094 547 1124 q 482 1049 497 1065 z "},"Ȍ":{"ha":685,"x_min":43,"x_max":938,"o":"m 251 -6 q 101 65 160 -6 q 43 279 43 136 q 63 446 43 358 q 117 618 82 533 q 197 775 151 703 q 367 965 271 892 q 568 1039 463 1039 q 697 997 651 1039 q 760 888 742 954 q 778 751 778 822 q 727 444 778 586 q 596 203 676 301 q 424 48 515 101 q 251 -6 333 -6 m 326 224 q 437 265 389 224 q 518 372 485 307 q 568 507 551 436 q 585 635 585 578 q 581 683 585 657 q 563 728 576 708 q 519 747 549 747 q 404 701 456 747 q 318 583 353 654 q 267 442 283 511 q 250 315 250 372 q 271 255 250 286 q 326 224 292 224 m 526 1057 q 457 1074 492 1065 q 390 1090 422 1082 q 274 1119 333 1103 q 174 1147 214 1135 q 193 1245 182 1188 q 214 1357 204 1303 l 239 1488 q 294 1430 267 1458 q 347 1374 321 1401 q 445 1269 393 1325 q 536 1169 497 1214 l 526 1057 m 928 1022 q 858 1039 893 1031 q 792 1056 824 1047 q 675 1084 735 1068 q 575 1113 615 1100 q 594 1210 583 1153 q 615 1322 606 1268 l 640 1453 q 695 1395 668 1424 q 749 1339 722 1367 q 847 1235 794 1290 q 938 1135 899 1179 l 928 1022 z "},"Ö":{"ha":685,"x_min":43,"x_max":907,"o":"m 251 -6 q 101 65 160 -6 q 43 279 43 136 q 63 446 43 358 q 117 618 82 533 q 197 775 151 703 q 367 965 271 892 q 568 1039 463 1039 q 697 997 651 1039 q 760 888 742 954 q 778 751 778 822 q 727 444 778 586 q 596 203 676 301 q 424 48 515 101 q 251 -6 333 -6 m 326 224 q 437 265 389 224 q 518 372 485 307 q 568 507 551 436 q 585 635 585 578 q 581 683 585 657 q 563 728 576 708 q 519 747 549 747 q 404 701 456 747 q 318 583 353 654 q 267 442 283 511 q 250 315 250 372 q 271 255 250 286 q 326 224 292 224 m 758 1171 q 675 1208 703 1171 q 647 1290 647 1244 q 680 1376 647 1339 q 774 1414 713 1414 q 874 1379 840 1414 q 907 1301 907 1344 q 869 1213 907 1254 q 758 1171 831 1171 m 436 1171 q 353 1208 381 1171 q 325 1290 325 1244 q 356 1376 325 1338 q 450 1414 388 1414 q 551 1379 518 1414 q 583 1301 583 1344 q 542 1209 583 1247 q 436 1171 501 1171 z "},"Ȫ":{"ha":685,"x_min":43,"x_max":907,"o":"m 251 -6 q 101 65 160 -6 q 43 279 43 136 q 63 446 43 358 q 117 618 82 533 q 197 775 151 703 q 367 965 271 892 q 568 1039 463 1039 q 697 997 651 1039 q 760 888 742 954 q 778 751 778 822 q 727 444 778 586 q 596 203 676 301 q 424 48 515 101 q 251 -6 333 -6 m 326 224 q 437 265 389 224 q 518 372 485 307 q 568 507 551 436 q 585 635 585 578 q 581 683 585 657 q 563 728 576 708 q 519 747 549 747 q 404 701 456 747 q 318 583 353 654 q 267 442 283 511 q 250 315 250 372 q 271 255 250 286 q 326 224 292 224 m 758 1171 q 675 1208 703 1171 q 647 1290 647 1244 q 680 1376 647 1339 q 774 1414 713 1414 q 874 1379 840 1414 q 907 1301 907 1344 q 869 1213 907 1254 q 758 1171 831 1171 m 436 1171 q 353 1208 381 1171 q 325 1290 325 1244 q 356 1376 325 1338 q 450 1414 388 1414 q 551 1379 518 1414 q 583 1301 583 1344 q 542 1209 583 1247 q 436 1171 501 1171 m 354 1475 q 346 1538 347 1499 q 344 1613 344 1576 l 344 1668 q 344 1681 344 1675 q 346 1693 344 1688 l 865 1738 l 888 1513 l 678 1500 q 555 1492 608 1496 q 453 1484 501 1488 q 354 1475 406 1481 z "},"Ȱ":{"ha":685,"x_min":43,"x_max":897,"o":"m 251 -6 q 101 65 160 -6 q 43 279 43 136 q 63 446 43 358 q 117 618 82 533 q 197 775 151 703 q 367 965 271 892 q 568 1039 463 1039 q 697 997 651 1039 q 760 888 742 954 q 778 751 778 822 q 727 444 778 586 q 596 203 676 301 q 424 48 515 101 q 251 -6 333 -6 m 326 224 q 437 265 389 224 q 518 372 485 307 q 568 507 551 436 q 585 635 585 578 q 581 683 585 657 q 563 728 576 708 q 519 747 549 747 q 404 701 456 747 q 318 583 353 654 q 267 442 283 511 q 250 315 250 372 q 271 255 250 286 q 326 224 292 224 m 607 1121 q 524 1157 551 1121 q 496 1240 496 1193 q 526 1324 496 1285 q 621 1364 557 1364 q 722 1329 689 1364 q 754 1250 754 1294 q 716 1161 754 1201 q 607 1121 678 1121 m 364 1425 q 356 1488 357 1449 q 354 1563 354 1526 l 354 1618 q 354 1631 354 1625 q 356 1643 354 1638 l 875 1688 l 897 1463 l 688 1450 q 565 1442 618 1446 q 463 1434 511 1438 q 364 1425 415 1431 z "},"Ọ":{"ha":685,"x_min":43,"x_max":778,"o":"m 251 -6 q 101 65 160 -6 q 43 279 43 136 q 63 446 43 358 q 117 618 82 533 q 197 775 151 703 q 367 965 271 892 q 568 1039 463 1039 q 697 997 651 1039 q 760 888 742 954 q 778 751 778 822 q 727 444 778 586 q 596 203 676 301 q 424 48 515 101 q 251 -6 333 -6 m 326 224 q 437 265 389 224 q 518 372 485 307 q 568 507 551 436 q 585 635 585 578 q 581 683 585 657 q 563 728 576 708 q 519 747 549 747 q 404 701 456 747 q 318 583 353 654 q 267 442 283 511 q 250 315 250 372 q 271 255 250 286 q 326 224 292 224 m 206 -285 q 122 -249 150 -285 q 94 -165 94 -212 q 125 -81 94 -121 q 219 -42 156 -42 q 320 -76 288 -42 q 353 -156 353 -111 q 315 -244 353 -204 q 206 -285 276 -285 z "},"Ò":{"ha":685,"x_min":43,"x_max":778,"o":"m 251 -6 q 101 65 160 -6 q 43 279 43 136 q 63 446 43 358 q 117 618 82 533 q 197 775 151 703 q 367 965 271 892 q 568 1039 463 1039 q 697 997 651 1039 q 760 888 742 954 q 778 751 778 822 q 727 444 778 586 q 596 203 676 301 q 424 48 515 101 q 251 -6 333 -6 m 326 224 q 437 265 389 224 q 518 372 485 307 q 568 507 551 436 q 585 635 585 578 q 581 683 585 657 q 563 728 576 708 q 519 747 549 747 q 404 701 456 747 q 318 583 353 654 q 267 442 283 511 q 250 315 250 372 q 271 255 250 286 q 326 224 292 224 m 629 1085 q 560 1101 594 1093 q 493 1118 525 1110 q 376 1147 436 1131 q 276 1175 317 1163 q 296 1273 285 1215 q 317 1385 307 1331 l 342 1515 q 397 1458 369 1486 q 450 1401 424 1429 q 548 1297 496 1353 q 639 1197 600 1242 l 629 1085 z "},"Ỏ":{"ha":685,"x_min":43,"x_max":778,"o":"m 251 -6 q 101 65 160 -6 q 43 279 43 136 q 63 446 43 358 q 117 618 82 533 q 197 775 151 703 q 367 965 271 892 q 568 1039 463 1039 q 697 997 651 1039 q 760 888 742 954 q 778 751 778 822 q 727 444 778 586 q 596 203 676 301 q 424 48 515 101 q 251 -6 333 -6 m 326 224 q 437 265 389 224 q 518 372 485 307 q 568 507 551 436 q 585 635 585 578 q 581 683 585 657 q 563 728 576 708 q 519 747 549 747 q 404 701 456 747 q 318 583 353 654 q 267 442 283 511 q 250 315 250 372 q 271 255 250 286 q 326 224 292 224 m 536 1075 q 551 1137 536 1113 q 583 1179 565 1161 q 615 1208 600 1196 q 629 1231 629 1221 q 625 1238 629 1233 q 614 1243 621 1243 q 581 1229 600 1243 q 540 1199 561 1215 l 518 1281 q 642 1331 582 1331 q 674 1328 656 1331 q 701 1318 692 1325 q 725 1294 714 1310 q 740 1242 736 1278 q 726 1190 740 1211 q 692 1154 713 1169 q 653 1123 669 1139 q 629 1081 638 1107 l 603 1078 l 536 1075 z "},"Ơ":{"ha":685,"x_min":43,"x_max":931,"o":"m 251 -6 q 101 65 160 -6 q 43 279 43 136 q 63 446 43 358 q 117 618 82 533 q 197 775 151 703 q 367 965 271 892 q 568 1039 463 1039 q 697 997 651 1039 q 760 888 742 954 q 778 751 778 822 q 727 444 778 586 q 596 203 676 301 q 424 48 515 101 q 251 -6 333 -6 m 326 224 q 437 265 389 224 q 518 372 485 307 q 568 507 551 436 q 585 635 585 578 q 581 683 585 657 q 563 728 576 708 q 519 747 549 747 q 404 701 456 747 q 318 583 353 654 q 267 442 283 511 q 250 315 250 372 q 271 255 250 286 q 326 224 292 224 m 721 850 q 784 876 761 850 q 817 939 807 901 q 830 1015 828 976 q 831 1078 832 1053 q 849 1064 840 1071 q 865 1050 857 1057 q 881 1036 872 1043 q 896 1022 889 1029 l 926 994 q 910 883 931 936 q 847 794 889 831 q 739 750 804 758 l 721 850 z "},"Ớ":{"ha":685,"x_min":43,"x_max":931,"o":"m 251 -6 q 101 65 160 -6 q 43 279 43 136 q 63 446 43 358 q 117 618 82 533 q 197 775 151 703 q 367 965 271 892 q 568 1039 463 1039 q 697 997 651 1039 q 760 888 742 954 q 778 751 778 822 q 727 444 778 586 q 596 203 676 301 q 424 48 515 101 q 251 -6 333 -6 m 326 224 q 437 265 389 224 q 518 372 485 307 q 568 507 551 436 q 585 635 585 578 q 581 683 585 657 q 563 728 576 708 q 519 747 549 747 q 404 701 456 747 q 318 583 353 654 q 267 442 283 511 q 250 315 250 372 q 271 255 250 286 q 326 224 292 224 m 721 850 q 784 876 761 850 q 817 939 807 901 q 830 1015 828 976 q 831 1078 832 1053 q 849 1064 840 1071 q 865 1050 857 1057 q 881 1036 872 1043 q 896 1022 889 1029 l 926 994 q 910 883 931 936 q 847 794 889 831 q 739 750 804 758 l 721 850 m 467 1082 q 465 1097 465 1089 q 465 1110 465 1104 l 465 1135 q 465 1158 465 1146 q 467 1181 465 1169 l 467 1228 q 558 1319 514 1276 q 644 1399 603 1361 q 725 1475 686 1436 q 800 1553 764 1514 q 808 1379 807 1458 q 811 1298 808 1339 q 819 1214 814 1257 q 735 1181 779 1197 q 643 1147 690 1164 q 551 1113 596 1129 q 467 1082 507 1097 z "},"Ợ":{"ha":685,"x_min":43,"x_max":931,"o":"m 251 -6 q 101 65 160 -6 q 43 279 43 136 q 63 446 43 358 q 117 618 82 533 q 197 775 151 703 q 367 965 271 892 q 568 1039 463 1039 q 697 997 651 1039 q 760 888 742 954 q 778 751 778 822 q 727 444 778 586 q 596 203 676 301 q 424 48 515 101 q 251 -6 333 -6 m 326 224 q 437 265 389 224 q 518 372 485 307 q 568 507 551 436 q 585 635 585 578 q 581 683 585 657 q 563 728 576 708 q 519 747 549 747 q 404 701 456 747 q 318 583 353 654 q 267 442 283 511 q 250 315 250 372 q 271 255 250 286 q 326 224 292 224 m 721 850 q 784 876 761 850 q 817 939 807 901 q 830 1015 828 976 q 831 1078 832 1053 q 849 1064 840 1071 q 865 1050 857 1057 q 881 1036 872 1043 q 896 1022 889 1029 l 926 994 q 910 883 931 936 q 847 794 889 831 q 739 750 804 758 l 721 850 m 206 -285 q 122 -249 150 -285 q 94 -165 94 -212 q 125 -81 94 -121 q 219 -42 156 -42 q 320 -76 288 -42 q 353 -156 353 -111 q 315 -244 353 -204 q 206 -285 276 -285 z "},"Ờ":{"ha":685,"x_min":43,"x_max":931,"o":"m 251 -6 q 101 65 160 -6 q 43 279 43 136 q 63 446 43 358 q 117 618 82 533 q 197 775 151 703 q 367 965 271 892 q 568 1039 463 1039 q 697 997 651 1039 q 760 888 742 954 q 778 751 778 822 q 727 444 778 586 q 596 203 676 301 q 424 48 515 101 q 251 -6 333 -6 m 326 224 q 437 265 389 224 q 518 372 485 307 q 568 507 551 436 q 585 635 585 578 q 581 683 585 657 q 563 728 576 708 q 519 747 549 747 q 404 701 456 747 q 318 583 353 654 q 267 442 283 511 q 250 315 250 372 q 271 255 250 286 q 326 224 292 224 m 721 850 q 784 876 761 850 q 817 939 807 901 q 830 1015 828 976 q 831 1078 832 1053 q 849 1064 840 1071 q 865 1050 857 1057 q 881 1036 872 1043 q 896 1022 889 1029 l 926 994 q 910 883 931 936 q 847 794 889 831 q 739 750 804 758 l 721 850 m 629 1085 q 560 1101 594 1093 q 493 1118 525 1110 q 376 1147 436 1131 q 276 1175 317 1163 q 296 1273 285 1215 q 317 1385 307 1331 l 342 1515 q 397 1458 369 1486 q 450 1401 424 1429 q 548 1297 496 1353 q 639 1197 600 1242 l 629 1085 z "},"Ở":{"ha":685,"x_min":43,"x_max":931,"o":"m 251 -6 q 101 65 160 -6 q 43 279 43 136 q 63 446 43 358 q 117 618 82 533 q 197 775 151 703 q 367 965 271 892 q 568 1039 463 1039 q 697 997 651 1039 q 760 888 742 954 q 778 751 778 822 q 727 444 778 586 q 596 203 676 301 q 424 48 515 101 q 251 -6 333 -6 m 326 224 q 437 265 389 224 q 518 372 485 307 q 568 507 551 436 q 585 635 585 578 q 581 683 585 657 q 563 728 576 708 q 519 747 549 747 q 404 701 456 747 q 318 583 353 654 q 267 442 283 511 q 250 315 250 372 q 271 255 250 286 q 326 224 292 224 m 721 850 q 784 876 761 850 q 817 939 807 901 q 830 1015 828 976 q 831 1078 832 1053 q 849 1064 840 1071 q 865 1050 857 1057 q 881 1036 872 1043 q 896 1022 889 1029 l 926 994 q 910 883 931 936 q 847 794 889 831 q 739 750 804 758 l 721 850 m 536 1075 q 551 1137 536 1113 q 583 1179 565 1161 q 615 1208 600 1196 q 629 1231 629 1221 q 625 1238 629 1233 q 614 1243 621 1243 q 581 1229 600 1243 q 540 1199 561 1215 l 518 1281 q 642 1331 582 1331 q 674 1328 656 1331 q 701 1318 692 1325 q 725 1294 714 1310 q 740 1242 736 1278 q 726 1190 740 1211 q 692 1154 713 1169 q 653 1123 669 1139 q 629 1081 638 1107 l 603 1078 l 536 1075 z "},"Ỡ":{"ha":685,"x_min":43,"x_max":940,"o":"m 251 -6 q 101 65 160 -6 q 43 279 43 136 q 63 446 43 358 q 117 618 82 533 q 197 775 151 703 q 367 965 271 892 q 568 1039 463 1039 q 697 997 651 1039 q 760 888 742 954 q 778 751 778 822 q 727 444 778 586 q 596 203 676 301 q 424 48 515 101 q 251 -6 333 -6 m 326 224 q 437 265 389 224 q 518 372 485 307 q 568 507 551 436 q 585 635 585 578 q 581 683 585 657 q 563 728 576 708 q 519 747 549 747 q 404 701 456 747 q 318 583 353 654 q 267 442 283 511 q 250 315 250 372 q 271 255 250 286 q 326 224 292 224 m 721 850 q 784 876 761 850 q 817 939 807 901 q 830 1015 828 976 q 831 1078 832 1053 q 849 1064 840 1071 q 865 1050 857 1057 q 881 1036 872 1043 q 896 1022 889 1029 l 926 994 q 910 883 931 936 q 847 794 889 831 q 739 750 804 758 l 721 850 m 403 1106 q 360 1138 385 1118 q 328 1167 335 1158 q 345 1202 328 1167 q 397 1289 363 1238 q 473 1375 429 1338 q 568 1413 517 1413 q 626 1394 600 1413 q 671 1353 651 1376 q 703 1311 690 1329 q 722 1293 717 1293 q 775 1317 750 1293 q 824 1372 800 1342 q 865 1418 847 1401 q 881 1406 874 1413 q 896 1394 889 1400 q 909 1384 903 1389 q 921 1375 915 1379 q 931 1367 926 1371 q 940 1357 936 1363 q 874 1236 911 1289 q 799 1155 846 1193 q 699 1117 751 1117 q 647 1131 665 1117 q 617 1164 629 1146 q 589 1197 604 1182 q 544 1211 574 1211 q 492 1192 518 1211 q 444 1147 467 1172 q 403 1106 421 1122 z "},"Ő":{"ha":685,"x_min":43,"x_max":961,"o":"m 251 -6 q 101 65 160 -6 q 43 279 43 136 q 63 446 43 358 q 117 618 82 533 q 197 775 151 703 q 367 965 271 892 q 568 1039 463 1039 q 697 997 651 1039 q 760 888 742 954 q 778 751 778 822 q 727 444 778 586 q 596 203 676 301 q 424 48 515 101 q 251 -6 333 -6 m 326 224 q 437 265 389 224 q 518 372 485 307 q 568 507 551 436 q 585 635 585 578 q 581 683 585 657 q 563 728 576 708 q 519 747 549 747 q 404 701 456 747 q 318 583 353 654 q 267 442 283 511 q 250 315 250 372 q 271 255 250 286 q 326 224 292 224 m 636 1072 q 610 1118 626 1097 q 586 1156 594 1139 q 586 1185 578 1172 q 646 1274 617 1229 q 704 1364 675 1319 q 763 1453 732 1408 q 824 1542 793 1499 q 859 1457 842 1499 q 893 1372 876 1415 q 926 1288 908 1329 q 961 1204 943 1246 l 799 1138 q 717 1103 758 1119 q 636 1072 676 1088 m 239 1072 q 222 1112 229 1097 q 208 1142 215 1126 q 188 1185 201 1158 q 247 1275 218 1229 q 306 1365 276 1321 q 365 1454 335 1410 q 426 1542 396 1499 q 462 1457 444 1499 q 496 1372 479 1415 q 528 1288 511 1329 q 564 1204 546 1246 l 401 1138 q 320 1103 361 1119 q 239 1072 279 1088 z "},"Ȏ":{"ha":685,"x_min":43,"x_max":785,"o":"m 251 -6 q 101 65 160 -6 q 43 279 43 136 q 63 446 43 358 q 117 618 82 533 q 197 775 151 703 q 367 965 271 892 q 568 1039 463 1039 q 697 997 651 1039 q 760 888 742 954 q 778 751 778 822 q 727 444 778 586 q 596 203 676 301 q 424 48 515 101 q 251 -6 333 -6 m 326 224 q 437 265 389 224 q 518 372 485 307 q 568 507 551 436 q 585 635 585 578 q 581 683 585 657 q 563 728 576 708 q 519 747 549 747 q 404 701 456 747 q 318 583 353 654 q 267 442 283 511 q 250 315 250 372 q 271 255 250 286 q 326 224 292 224 m 611 1397 q 702 1360 663 1397 q 763 1268 742 1324 q 781 1153 785 1213 l 750 1125 q 735 1113 743 1119 q 719 1099 726 1106 q 703 1084 711 1092 q 685 1069 694 1076 q 676 1138 686 1104 q 646 1196 665 1172 q 600 1219 626 1219 q 533 1200 557 1219 q 492 1146 511 1179 q 446 1056 474 1113 q 414 1083 428 1071 q 389 1106 400 1094 l 367 1128 q 414 1253 381 1192 q 497 1356 447 1315 q 611 1397 547 1397 z "},"Ō":{"ha":685,"x_min":43,"x_max":846,"o":"m 251 -6 q 101 65 160 -6 q 43 279 43 136 q 63 446 43 358 q 117 618 82 533 q 197 775 151 703 q 367 965 271 892 q 568 1039 463 1039 q 697 997 651 1039 q 760 888 742 954 q 778 751 778 822 q 727 444 778 586 q 596 203 676 301 q 424 48 515 101 q 251 -6 333 -6 m 326 224 q 437 265 389 224 q 518 372 485 307 q 568 507 551 436 q 585 635 585 578 q 581 683 585 657 q 563 728 576 708 q 519 747 549 747 q 404 701 456 747 q 318 583 353 654 q 267 442 283 511 q 250 315 250 372 q 271 255 250 286 q 326 224 292 224 m 313 1103 q 304 1165 306 1126 q 303 1240 303 1204 l 303 1296 q 303 1309 303 1303 q 304 1321 303 1315 l 824 1365 l 846 1140 l 636 1128 q 513 1119 567 1124 q 412 1112 460 1115 q 313 1103 364 1108 z "},"Ǫ":{"ha":685,"x_min":43,"x_max":778,"o":"m 251 -6 q 101 65 160 -6 q 43 279 43 136 q 63 446 43 358 q 117 618 82 533 q 197 775 151 703 q 367 965 271 892 q 568 1039 463 1039 q 697 997 651 1039 q 760 888 742 954 q 778 751 778 822 q 727 444 778 586 q 596 203 676 301 q 424 48 515 101 q 251 -6 333 -6 m 326 224 q 437 265 389 224 q 518 372 485 307 q 568 507 551 436 q 585 635 585 578 q 581 683 585 657 q 563 728 576 708 q 519 747 549 747 q 404 701 456 747 q 318 583 353 654 q 267 442 283 511 q 250 315 250 372 q 271 255 250 286 q 326 224 292 224 m 358 -186 q 224 -147 278 -186 q 171 -51 171 -108 q 226 57 171 3 q 250 61 229 57 q 310 69 271 65 q 306 47 307 57 q 304 28 304 36 q 324 -29 304 -7 q 374 -51 344 -51 q 447 -12 413 -51 l 475 -135 q 422 -174 453 -161 q 358 -186 390 -186 z "},"Ø":{"ha":685,"x_min":-1,"x_max":865,"o":"m 68 -11 l -1 56 l 65 133 q 43 279 43 194 q 63 446 43 358 q 117 618 82 533 q 197 775 151 703 q 367 965 271 892 q 568 1039 463 1039 q 660 1019 622 1039 q 722 967 697 1000 l 771 1031 l 842 978 l 865 1006 l 764 875 q 774 813 771 844 q 778 751 778 782 q 727 444 778 586 q 596 203 676 301 q 424 48 515 101 q 251 -6 333 -6 q 114 49 168 -6 l 68 -11 m 243 342 l 574 740 q 492 800 539 800 q 403 759 447 800 q 322 653 358 718 q 263 514 285 588 q 240 376 240 440 q 241 359 240 368 q 243 342 242 350 m 343 233 q 451 277 400 233 q 536 386 501 321 q 591 516 572 453 q 610 635 610 579 q 609 656 610 646 q 607 672 608 665 l 272 251 q 343 233 307 233 z "},"Ǿ":{"ha":685,"x_min":-1,"x_max":865,"o":"m 68 -11 l -1 56 l 65 133 q 43 279 43 194 q 63 446 43 358 q 117 618 82 533 q 197 775 151 703 q 367 965 271 892 q 568 1039 463 1039 q 660 1019 622 1039 q 722 967 697 1000 l 771 1031 l 842 978 l 865 1006 l 764 875 q 774 813 771 844 q 778 751 778 782 q 727 444 778 586 q 596 203 676 301 q 424 48 515 101 q 251 -6 333 -6 q 114 49 168 -6 l 68 -11 m 243 342 l 574 740 q 492 800 539 800 q 403 759 447 800 q 322 653 358 718 q 263 514 285 588 q 240 376 240 440 q 241 359 240 368 q 243 342 242 350 m 343 233 q 451 277 400 233 q 536 386 501 321 q 591 516 572 453 q 610 635 610 579 q 609 656 610 646 q 607 672 608 665 l 272 251 q 343 233 307 233 m 460 1079 q 458 1094 458 1086 q 458 1107 458 1101 l 458 1132 q 458 1155 458 1143 q 460 1178 458 1167 l 460 1225 q 551 1316 507 1274 q 638 1396 596 1358 q 718 1472 679 1433 q 793 1550 757 1511 q 801 1376 800 1456 q 804 1295 801 1336 q 813 1211 807 1254 q 728 1178 772 1194 q 636 1144 683 1161 q 544 1110 589 1126 q 460 1079 500 1094 z "},"Õ":{"ha":685,"x_min":43,"x_max":940,"o":"m 251 -6 q 101 65 160 -6 q 43 279 43 136 q 63 446 43 358 q 117 618 82 533 q 197 775 151 703 q 367 965 271 892 q 568 1039 463 1039 q 697 997 651 1039 q 760 888 742 954 q 778 751 778 822 q 727 444 778 586 q 596 203 676 301 q 424 48 515 101 q 251 -6 333 -6 m 326 224 q 437 265 389 224 q 518 372 485 307 q 568 507 551 436 q 585 635 585 578 q 581 683 585 657 q 563 728 576 708 q 519 747 549 747 q 404 701 456 747 q 318 583 353 654 q 267 442 283 511 q 250 315 250 372 q 271 255 250 286 q 326 224 292 224 m 403 1106 q 360 1138 385 1118 q 328 1167 335 1158 q 345 1202 328 1167 q 397 1289 363 1238 q 473 1375 429 1338 q 568 1413 517 1413 q 626 1394 600 1413 q 671 1353 651 1376 q 703 1311 690 1329 q 722 1293 717 1293 q 775 1317 750 1293 q 824 1372 800 1342 q 865 1418 847 1401 q 881 1406 874 1413 q 896 1394 889 1400 q 909 1384 903 1389 q 921 1375 915 1379 q 931 1367 926 1371 q 940 1357 936 1363 q 874 1236 911 1289 q 799 1155 846 1193 q 699 1117 751 1117 q 647 1131 665 1117 q 617 1164 629 1146 q 589 1197 604 1182 q 544 1211 574 1211 q 492 1192 518 1211 q 444 1147 467 1172 q 403 1106 421 1122 z "},"Ȭ":{"ha":685,"x_min":43,"x_max":940,"o":"m 251 -6 q 101 65 160 -6 q 43 279 43 136 q 63 446 43 358 q 117 618 82 533 q 197 775 151 703 q 367 965 271 892 q 568 1039 463 1039 q 697 997 651 1039 q 760 888 742 954 q 778 751 778 822 q 727 444 778 586 q 596 203 676 301 q 424 48 515 101 q 251 -6 333 -6 m 326 224 q 437 265 389 224 q 518 372 485 307 q 568 507 551 436 q 585 635 585 578 q 581 683 585 657 q 563 728 576 708 q 519 747 549 747 q 404 701 456 747 q 318 583 353 654 q 267 442 283 511 q 250 315 250 372 q 271 255 250 286 q 326 224 292 224 m 403 1106 q 360 1138 385 1118 q 328 1167 335 1158 q 345 1202 328 1167 q 397 1289 363 1238 q 473 1375 429 1338 q 568 1413 517 1413 q 626 1394 600 1413 q 671 1353 651 1376 q 703 1311 690 1329 q 722 1293 717 1293 q 775 1317 750 1293 q 824 1372 800 1342 q 865 1418 847 1401 q 881 1406 874 1413 q 896 1394 889 1400 q 909 1384 903 1389 q 921 1375 915 1379 q 931 1367 926 1371 q 940 1357 936 1363 q 874 1236 911 1289 q 799 1155 846 1193 q 699 1117 751 1117 q 647 1131 665 1117 q 617 1164 629 1146 q 589 1197 604 1182 q 544 1211 574 1211 q 492 1192 518 1211 q 444 1147 467 1172 q 403 1106 421 1122 m 371 1479 q 363 1542 364 1503 q 361 1617 361 1581 l 361 1672 q 361 1685 361 1679 q 363 1697 361 1692 l 882 1742 l 904 1517 l 694 1504 q 572 1496 625 1500 q 470 1488 518 1492 q 371 1479 422 1485 z "},"Œ":{"ha":779,"x_min":49,"x_max":938,"o":"m 344 14 q 172 56 238 14 q 78 169 107 99 q 49 325 49 240 q 87 543 49 428 q 193 758 125 658 q 351 924 260 857 q 540 1000 442 992 l 938 1026 q 921 964 928 996 q 907 909 914 938 q 897 858 900 881 l 881 858 q 807 863 851 858 q 764 865 785 864 q 724 865 743 865 l 675 615 q 700 614 688 614 q 724 614 713 614 q 746 613 735 613 q 768 613 757 613 l 833 613 q 828 574 831 593 q 824 536 826 556 l 811 460 l 800 460 q 793 458 797 458 q 786 458 789 458 q 719 460 751 458 q 657 464 688 463 l 608 207 l 779 229 l 765 71 l 358 14 l 344 14 m 375 238 l 386 238 q 399 239 394 238 l 494 758 q 406 713 450 751 q 326 617 363 674 q 269 496 290 560 q 247 375 247 432 q 277 277 247 317 q 375 238 307 238 z "},"P":{"ha":526,"x_min":-4,"x_max":650,"o":"m -4 -1 q 75 365 38 186 q 106 520 90 438 q 139 688 122 603 q 169 848 156 772 q 192 981 183 924 q 312 1011 247 997 q 428 1025 376 1025 q 560 990 511 1025 q 629 894 608 954 q 650 764 650 835 q 622 615 650 686 q 545 486 593 543 q 435 396 497 429 q 307 363 374 363 l 292 363 q 271 260 281 315 q 254 157 261 204 q 244 101 249 129 q 236 46 240 74 l -4 -1 m 319 508 q 383 551 351 517 q 436 638 415 585 q 457 753 457 690 q 434 831 457 804 q 383 857 411 857 q 353 683 368 765 q 319 508 338 601 z "},"Þ":{"ha":536,"x_min":1,"x_max":633,"o":"m 1 -1 q 81 382 43 197 q 122 599 100 486 q 163 819 143 711 q 197 1014 183 926 q 360 1033 299 1026 q 428 1039 421 1039 l 399 900 q 538 863 486 900 q 611 764 589 825 q 633 632 633 703 q 604 483 633 554 q 526 357 575 413 q 417 269 478 301 q 290 238 356 238 l 275 238 q 265 194 269 214 q 258 156 261 174 l 249 94 q 244 69 246 81 q 242 46 243 57 l 1 -1 m 304 383 q 367 426 336 392 q 419 513 399 460 q 440 628 440 565 q 417 706 440 679 q 368 732 394 732 l 336 558 q 321 474 329 518 q 304 383 313 431 z "},"Q":{"ha":729,"x_min":43,"x_max":790,"o":"m 626 -67 q 599 -27 613 -47 q 569 13 585 -7 q 540 53 554 32 q 511 94 525 74 l 504 106 q 251 -6 374 -6 q 101 65 160 -6 q 43 279 43 136 q 63 446 43 358 q 117 618 82 533 q 197 775 151 703 q 367 965 271 892 q 568 1039 463 1039 q 697 997 651 1039 q 760 888 742 954 q 778 751 778 822 q 744 501 778 615 q 658 294 711 386 l 790 139 q 760 100 775 119 q 729 61 744 81 q 676 -6 704 29 q 626 -67 647 -42 m 326 224 q 415 250 376 224 l 360 342 q 412 381 389 364 q 450 411 435 399 q 476 433 465 424 q 494 447 488 442 l 514 464 l 544 429 q 574 535 563 481 q 585 635 585 589 q 581 683 585 657 q 563 728 576 708 q 519 747 549 747 q 404 701 456 747 q 318 583 353 654 q 267 442 283 511 q 250 315 250 372 q 271 255 250 286 q 326 224 292 224 z "},"R":{"ha":617,"x_min":6,"x_max":713,"o":"m 6 -1 l 78 360 q 114 565 94 460 q 151 774 133 671 q 178 967 168 876 q 349 1003 257 992 q 531 1015 440 1015 q 674 969 636 1015 q 713 846 713 924 q 679 703 713 775 q 592 574 646 632 q 475 483 539 517 q 528 362 500 428 q 582 236 557 296 q 610 167 596 201 q 639 97 625 132 l 424 22 q 397 115 410 71 q 374 203 385 160 q 347 302 360 254 q 326 388 335 350 q 315 440 317 425 l 297 435 q 277 326 289 390 q 256 203 265 263 l 231 57 l 6 -1 m 332 601 q 394 623 357 604 q 467 669 431 642 q 529 726 504 697 q 554 778 554 756 q 522 815 554 806 q 436 824 489 824 l 406 824 q 390 822 397 822 q 376 822 383 822 l 332 601 z "},"Ŕ":{"ha":617,"x_min":6,"x_max":756,"o":"m 6 -1 l 78 360 q 114 565 94 460 q 151 774 133 671 q 178 967 168 876 q 349 1003 257 992 q 531 1015 440 1015 q 674 969 636 1015 q 713 846 713 924 q 679 703 713 775 q 592 574 646 632 q 475 483 539 517 q 528 362 500 428 q 582 236 557 296 q 610 167 596 201 q 639 97 625 132 l 424 22 q 397 115 410 71 q 374 203 385 160 q 347 302 360 254 q 326 388 335 350 q 315 440 317 425 l 297 435 q 277 326 289 390 q 256 203 265 263 l 231 57 l 6 -1 m 332 601 q 394 623 357 604 q 467 669 431 642 q 529 726 504 697 q 554 778 554 756 q 522 815 554 806 q 436 824 489 824 l 406 824 q 390 822 397 822 q 376 822 383 822 l 332 601 m 403 1042 q 401 1056 401 1049 q 401 1069 401 1064 l 401 1094 q 401 1117 401 1106 q 403 1140 401 1129 l 403 1188 q 494 1278 450 1236 q 581 1358 539 1321 q 661 1435 622 1396 q 736 1513 700 1474 q 744 1339 743 1418 q 747 1258 744 1299 q 756 1174 750 1217 q 671 1140 715 1157 q 579 1107 626 1124 q 488 1073 532 1089 q 403 1042 443 1057 z "},"Ř":{"ha":617,"x_min":6,"x_max":718,"o":"m 6 -1 l 78 360 q 114 565 94 460 q 151 774 133 671 q 178 967 168 876 q 349 1003 257 992 q 531 1015 440 1015 q 674 969 636 1015 q 713 846 713 924 q 679 703 713 775 q 592 574 646 632 q 475 483 539 517 q 528 362 500 428 q 582 236 557 296 q 610 167 596 201 q 639 97 625 132 l 424 22 q 397 115 410 71 q 374 203 385 160 q 347 302 360 254 q 326 388 335 350 q 315 440 317 425 l 297 435 q 277 326 289 390 q 256 203 265 263 l 231 57 l 6 -1 m 332 601 q 394 623 357 604 q 467 669 431 642 q 529 726 504 697 q 554 778 554 756 q 522 815 554 806 q 436 824 489 824 l 406 824 q 390 822 397 822 q 376 822 383 822 l 332 601 m 499 1050 q 465 1052 481 1051 q 440 1053 450 1053 l 418 1053 q 404 1051 413 1051 q 399 1053 399 1051 q 385 1092 393 1071 q 371 1138 378 1114 q 354 1183 363 1161 q 339 1228 346 1206 q 322 1278 331 1253 q 304 1329 314 1303 l 335 1358 q 350 1372 342 1365 q 367 1386 358 1379 l 400 1414 l 493 1254 q 548 1318 517 1281 q 606 1388 579 1356 q 639 1428 632 1419 q 671 1400 657 1413 q 696 1376 685 1388 l 718 1356 q 681 1297 700 1325 q 643 1240 663 1268 q 572 1140 611 1193 q 499 1050 533 1088 z "},"Ŗ":{"ha":617,"x_min":6,"x_max":713,"o":"m 6 -1 l 78 360 q 114 565 94 460 q 151 774 133 671 q 178 967 168 876 q 349 1003 257 992 q 531 1015 440 1015 q 674 969 636 1015 q 713 846 713 924 q 679 703 713 775 q 592 574 646 632 q 475 483 539 517 q 528 362 500 428 q 582 236 557 296 q 610 167 596 201 q 639 97 625 132 l 424 22 q 397 115 410 71 q 374 203 385 160 q 347 302 360 254 q 326 388 335 350 q 315 440 317 425 l 297 435 q 277 326 289 390 q 256 203 265 263 l 231 57 l 6 -1 m 332 601 q 394 623 357 604 q 467 669 431 642 q 529 726 504 697 q 554 778 554 756 q 522 815 554 806 q 436 824 489 824 l 406 824 q 390 822 397 822 q 376 822 383 822 l 332 601 m 124 -376 q 144 -262 138 -306 q 156 -184 151 -219 q 165 -104 160 -149 l 201 -104 q 208 -106 213 -106 q 210 -106 204 -106 q 275 -105 251 -106 q 324 -103 299 -104 q 389 -101 349 -103 q 372 -178 379 -149 q 358 -234 365 -208 q 340 -292 350 -260 q 314 -376 331 -325 l 124 -376 z "},"Ȑ":{"ha":617,"x_min":6,"x_max":874,"o":"m 6 -1 l 78 360 q 114 565 94 460 q 151 774 133 671 q 178 967 168 876 q 349 1003 257 992 q 531 1015 440 1015 q 674 969 636 1015 q 713 846 713 924 q 679 703 713 775 q 592 574 646 632 q 475 483 539 517 q 528 362 500 428 q 582 236 557 296 q 610 167 596 201 q 639 97 625 132 l 424 22 q 397 115 410 71 q 374 203 385 160 q 347 302 360 254 q 326 388 335 350 q 315 440 317 425 l 297 435 q 277 326 289 390 q 256 203 265 263 l 231 57 l 6 -1 m 332 601 q 394 623 357 604 q 467 669 431 642 q 529 726 504 697 q 554 778 554 756 q 522 815 554 806 q 436 824 489 824 l 406 824 q 390 822 397 822 q 376 822 383 822 l 332 601 m 463 1017 q 393 1033 428 1025 q 326 1050 358 1042 q 210 1078 269 1063 q 110 1107 150 1094 q 129 1205 118 1147 q 150 1317 140 1263 l 175 1447 q 230 1390 203 1418 q 283 1333 257 1361 q 381 1229 329 1285 q 472 1129 433 1174 l 463 1017 m 864 982 q 794 999 829 990 q 728 1015 760 1007 q 611 1044 671 1028 q 511 1072 551 1060 q 531 1170 519 1113 q 551 1282 542 1228 l 576 1413 q 631 1355 604 1383 q 685 1299 658 1326 q 783 1194 731 1250 q 874 1094 835 1139 l 864 982 z "},"Ȓ":{"ha":617,"x_min":6,"x_max":721,"o":"m 6 -1 l 78 360 q 114 565 94 460 q 151 774 133 671 q 178 967 168 876 q 349 1003 257 992 q 531 1015 440 1015 q 674 969 636 1015 q 713 846 713 924 q 679 703 713 775 q 592 574 646 632 q 475 483 539 517 q 528 362 500 428 q 582 236 557 296 q 610 167 596 201 q 639 97 625 132 l 424 22 q 397 115 410 71 q 374 203 385 160 q 347 302 360 254 q 326 388 335 350 q 315 440 317 425 l 297 435 q 277 326 289 390 q 256 203 265 263 l 231 57 l 6 -1 m 332 601 q 394 623 357 604 q 467 669 431 642 q 529 726 504 697 q 554 778 554 756 q 522 815 554 806 q 436 824 489 824 l 406 824 q 390 822 397 822 q 376 822 383 822 l 332 601 m 547 1357 q 638 1320 599 1357 q 699 1228 678 1283 q 717 1113 721 1172 l 686 1085 q 671 1072 679 1079 q 656 1058 663 1065 q 639 1044 647 1051 q 621 1029 631 1036 q 612 1098 622 1064 q 582 1156 601 1132 q 536 1179 563 1179 q 469 1160 493 1179 q 428 1106 447 1139 q 382 1015 410 1072 q 350 1042 364 1031 q 325 1065 336 1054 l 303 1088 q 350 1213 317 1151 q 433 1316 383 1275 q 547 1357 483 1357 z "},"S":{"ha":597,"x_min":19,"x_max":718,"o":"m 238 -3 q 126 27 182 -3 q 19 122 71 57 l 122 324 q 167 274 138 297 q 231 236 197 250 q 288 222 264 222 q 356 244 324 222 q 389 304 389 267 q 344 393 389 353 q 244 472 300 433 q 145 560 190 511 q 100 674 100 610 q 142 808 100 746 q 250 916 183 869 q 392 988 317 963 q 536 1014 468 1014 q 626 998 585 1014 q 693 946 668 982 q 718 849 718 910 q 717 829 718 839 q 715 810 717 819 q 712 790 714 800 q 708 768 710 779 l 507 710 q 512 732 510 721 q 514 754 514 743 q 499 815 514 796 q 461 833 485 833 q 425 820 449 833 q 383 784 401 807 q 364 733 364 761 q 402 658 364 688 q 490 597 440 628 q 543 553 514 583 q 594 473 572 524 q 615 343 615 422 q 565 163 615 240 q 428 41 514 85 q 238 -3 342 -3 z "},"Ś":{"ha":597,"x_min":19,"x_max":756,"o":"m 238 -3 q 126 27 182 -3 q 19 122 71 57 l 122 324 q 167 274 138 297 q 231 236 197 250 q 288 222 264 222 q 356 244 324 222 q 389 304 389 267 q 344 393 389 353 q 244 472 300 433 q 145 560 190 511 q 100 674 100 610 q 142 808 100 746 q 250 916 183 869 q 392 988 317 963 q 536 1014 468 1014 q 626 998 585 1014 q 693 946 668 982 q 718 849 718 910 q 717 829 718 839 q 715 810 717 819 q 712 790 714 800 q 708 768 710 779 l 507 710 q 512 732 510 721 q 514 754 514 743 q 499 815 514 796 q 461 833 485 833 q 425 820 449 833 q 383 784 401 807 q 364 733 364 761 q 402 658 364 688 q 490 597 440 628 q 543 553 514 583 q 594 473 572 524 q 615 343 615 422 q 565 163 615 240 q 428 41 514 85 q 238 -3 342 -3 m 403 1042 q 401 1056 401 1049 q 401 1069 401 1064 l 401 1094 q 401 1117 401 1106 q 403 1140 401 1129 l 403 1188 q 494 1278 450 1236 q 581 1358 539 1321 q 661 1435 622 1396 q 736 1513 700 1474 q 744 1339 743 1418 q 747 1258 744 1299 q 756 1174 750 1217 q 671 1140 715 1157 q 579 1107 626 1124 q 488 1073 532 1089 q 403 1042 443 1057 z "},"Š":{"ha":597,"x_min":19,"x_max":718,"o":"m 238 -3 q 126 27 182 -3 q 19 122 71 57 l 122 324 q 167 274 138 297 q 231 236 197 250 q 288 222 264 222 q 356 244 324 222 q 389 304 389 267 q 344 393 389 353 q 244 472 300 433 q 145 560 190 511 q 100 674 100 610 q 142 808 100 746 q 250 916 183 869 q 392 988 317 963 q 536 1014 468 1014 q 626 998 585 1014 q 693 946 668 982 q 718 849 718 910 q 717 829 718 839 q 715 810 717 819 q 712 790 714 800 q 708 768 710 779 l 507 710 q 512 732 510 721 q 514 754 514 743 q 499 815 514 796 q 461 833 485 833 q 425 820 449 833 q 383 784 401 807 q 364 733 364 761 q 402 658 364 688 q 490 597 440 628 q 543 553 514 583 q 594 473 572 524 q 615 343 615 422 q 565 163 615 240 q 428 41 514 85 q 238 -3 342 -3 m 499 1050 q 465 1052 481 1051 q 440 1053 450 1053 l 418 1053 q 404 1051 413 1051 q 399 1053 399 1051 q 385 1092 393 1071 q 371 1138 378 1114 q 354 1183 363 1161 q 339 1228 346 1206 q 322 1278 331 1253 q 304 1329 314 1303 l 335 1358 q 350 1372 342 1365 q 367 1386 358 1379 l 400 1414 l 493 1254 q 548 1318 517 1281 q 606 1388 579 1356 q 639 1428 632 1419 q 671 1400 657 1413 q 696 1376 685 1388 l 718 1356 q 681 1297 700 1325 q 643 1240 663 1268 q 572 1140 611 1193 q 499 1050 533 1088 z "},"Ş":{"ha":597,"x_min":19,"x_max":718,"o":"m 238 -3 q 126 27 182 -3 q 19 122 71 57 l 122 324 q 167 274 138 297 q 231 236 197 250 q 288 222 264 222 q 356 244 324 222 q 389 304 389 267 q 344 393 389 353 q 244 472 300 433 q 145 560 190 511 q 100 674 100 610 q 142 808 100 746 q 250 916 183 869 q 392 988 317 963 q 536 1014 468 1014 q 626 998 585 1014 q 693 946 668 982 q 718 849 718 910 q 717 829 718 839 q 715 810 717 819 q 712 790 714 800 q 708 768 710 779 l 507 710 q 512 732 510 721 q 514 754 514 743 q 499 815 514 796 q 461 833 485 833 q 425 820 449 833 q 383 784 401 807 q 364 733 364 761 q 402 658 364 688 q 490 597 440 628 q 543 553 514 583 q 594 473 572 524 q 615 343 615 422 q 565 163 615 240 q 428 41 514 85 q 238 -3 342 -3 m 264 -215 q 199 -203 231 -215 q 147 -164 168 -190 l 174 -42 q 247 -81 208 -81 q 298 -58 278 -81 q 318 -1 318 -36 q 316 17 318 7 q 311 40 314 28 q 371 32 350 36 q 396 28 392 28 q 451 -81 451 -26 q 426 -150 451 -119 q 358 -198 400 -181 q 264 -215 315 -215 z "},"Ŝ":{"ha":597,"x_min":19,"x_max":754,"o":"m 238 -3 q 126 27 182 -3 q 19 122 71 57 l 122 324 q 167 274 138 297 q 231 236 197 250 q 288 222 264 222 q 356 244 324 222 q 389 304 389 267 q 344 393 389 353 q 244 472 300 433 q 145 560 190 511 q 100 674 100 610 q 142 808 100 746 q 250 916 183 869 q 392 988 317 963 q 536 1014 468 1014 q 626 998 585 1014 q 693 946 668 982 q 718 849 718 910 q 717 829 718 839 q 715 810 717 819 q 712 790 714 800 q 708 768 710 779 l 507 710 q 512 732 510 721 q 514 754 514 743 q 499 815 514 796 q 461 833 485 833 q 425 820 449 833 q 383 784 401 807 q 364 733 364 761 q 402 658 364 688 q 490 597 440 628 q 543 553 514 583 q 594 473 572 524 q 615 343 615 422 q 565 163 615 240 q 428 41 514 85 q 238 -3 342 -3 m 415 1042 q 383 1070 397 1057 q 361 1094 369 1083 q 350 1107 356 1101 q 340 1118 344 1113 q 380 1174 360 1146 q 421 1229 400 1203 q 497 1325 456 1275 q 574 1411 538 1375 q 620 1405 601 1407 q 650 1404 639 1403 q 674 1403 671 1406 q 685 1363 679 1385 q 699 1317 692 1340 l 724 1225 q 739 1174 731 1199 q 754 1122 747 1149 l 721 1094 q 706 1083 714 1089 q 689 1069 699 1076 l 654 1043 l 569 1207 q 511 1149 542 1182 q 456 1088 481 1117 q 415 1042 431 1058 z "},"Ș":{"ha":597,"x_min":19,"x_max":718,"o":"m 238 -3 q 126 27 182 -3 q 19 122 71 57 l 122 324 q 167 274 138 297 q 231 236 197 250 q 288 222 264 222 q 356 244 324 222 q 389 304 389 267 q 344 393 389 353 q 244 472 300 433 q 145 560 190 511 q 100 674 100 610 q 142 808 100 746 q 250 916 183 869 q 392 988 317 963 q 536 1014 468 1014 q 626 998 585 1014 q 693 946 668 982 q 718 849 718 910 q 717 829 718 839 q 715 810 717 819 q 712 790 714 800 q 708 768 710 779 l 507 710 q 512 732 510 721 q 514 754 514 743 q 499 815 514 796 q 461 833 485 833 q 425 820 449 833 q 383 784 401 807 q 364 733 364 761 q 402 658 364 688 q 490 597 440 628 q 543 553 514 583 q 594 473 572 524 q 615 343 615 422 q 565 163 615 240 q 428 41 514 85 q 238 -3 342 -3 m 113 -362 q 133 -249 126 -292 q 144 -170 140 -206 q 154 -90 149 -135 l 190 -90 q 197 -92 201 -92 q 199 -92 193 -92 q 264 -91 240 -92 q 313 -90 288 -90 q 378 -87 338 -89 q 361 -165 368 -135 q 347 -220 354 -194 q 329 -278 339 -246 q 303 -362 319 -311 l 113 -362 z "},"ẞ":{"ha":868,"x_min":46,"x_max":882,"o":"m 46 14 l 197 714 q 258 878 218 807 q 367 989 297 949 q 544 1029 436 1029 q 678 994 613 1029 q 792 901 744 960 q 856 772 840 843 l 851 726 l 764 663 q 825 560 799 617 q 867 446 851 503 q 882 343 882 389 q 838 155 882 228 q 726 47 793 82 q 589 11 658 13 q 490 31 539 11 q 406 81 442 51 q 360 136 371 110 l 450 338 q 501 252 465 286 q 572 218 536 218 q 638 246 611 218 q 665 321 665 274 q 645 417 665 365 q 597 514 625 468 q 544 583 569 560 l 678 700 q 623 797 664 756 q 524 839 582 839 q 444 802 475 839 q 393 665 413 765 l 276 40 l 46 14 z "},"T":{"ha":503,"x_min":125,"x_max":663,"o":"m 125 -1 q 156 151 140 75 q 186 300 172 226 q 272 806 239 564 q 240 809 257 808 q 208 808 224 810 q 143 817 175 806 q 144 841 144 828 q 144 868 144 854 q 144 898 144 883 q 146 926 144 913 q 147 959 147 942 q 149 994 147 976 q 221 990 185 992 q 293 989 257 989 q 490 996 396 989 q 663 1013 583 1003 l 647 938 l 635 872 q 622 815 628 836 q 592 808 607 811 q 561 804 576 806 q 530 800 546 803 q 499 794 514 797 q 465 617 478 692 q 441 473 451 542 q 417 322 431 404 q 375 38 393 182 l 125 -1 z "},"Ŧ":{"ha":524,"x_min":61,"x_max":663,"o":"m 125 -1 q 156 151 140 75 q 186 300 172 226 q 193 335 190 318 q 126 333 160 335 q 61 332 92 332 l 128 578 q 184 576 157 576 q 236 574 211 575 q 272 806 257 693 q 240 809 257 808 q 208 808 224 810 q 143 817 175 806 q 144 841 144 828 q 144 868 144 854 q 144 898 144 883 q 146 926 144 913 q 147 959 147 942 q 149 994 147 976 q 221 990 185 992 q 293 989 257 989 q 490 996 396 989 q 663 1013 583 1003 l 647 938 l 635 872 q 622 815 628 836 q 592 808 607 811 q 561 804 576 806 q 530 800 546 803 q 499 794 514 797 q 475 674 485 728 q 457 574 465 621 q 508 576 482 575 q 558 579 533 578 l 511 331 q 464 331 488 331 q 418 333 440 332 q 417 322 418 328 q 375 38 393 182 l 125 -1 z "},"Ť":{"ha":503,"x_min":125,"x_max":663,"o":"m 125 -1 q 156 151 140 75 q 186 300 172 226 q 272 806 239 564 q 240 809 257 808 q 208 808 224 810 q 143 817 175 806 q 144 841 144 828 q 144 868 144 854 q 144 898 144 883 q 146 926 144 913 q 147 959 147 942 q 149 994 147 976 q 221 990 185 992 q 293 989 257 989 q 490 996 396 989 q 663 1013 583 1003 l 647 938 l 635 872 q 622 815 628 836 q 592 808 607 811 q 561 804 576 806 q 530 800 546 803 q 499 794 514 797 q 465 617 478 692 q 441 473 451 542 q 417 322 431 404 q 375 38 393 182 l 125 -1 m 435 1050 q 401 1052 417 1051 q 376 1053 386 1053 l 354 1053 q 340 1051 349 1051 q 335 1053 335 1051 q 322 1092 329 1071 q 307 1138 314 1114 q 290 1183 299 1161 q 275 1228 282 1206 q 258 1278 267 1253 q 240 1329 250 1303 l 271 1358 q 286 1372 278 1365 q 303 1386 294 1379 l 336 1414 l 429 1254 q 484 1318 453 1281 q 542 1388 515 1356 q 575 1428 568 1419 q 607 1400 593 1413 q 632 1376 621 1388 l 654 1356 q 617 1297 636 1325 q 579 1240 599 1268 q 508 1140 547 1193 q 435 1050 469 1088 z "},"Ţ":{"ha":503,"x_min":88,"x_max":663,"o":"m 125 -1 q 156 151 140 75 q 186 300 172 226 q 272 806 239 564 q 240 809 257 808 q 208 808 224 810 q 143 817 175 806 q 144 841 144 828 q 144 868 144 854 q 144 898 144 883 q 146 926 144 913 q 147 959 147 942 q 149 994 147 976 q 221 990 185 992 q 293 989 257 989 q 490 996 396 989 q 663 1013 583 1003 l 647 938 l 635 872 q 622 815 628 836 q 592 808 607 811 q 561 804 576 806 q 530 800 546 803 q 499 794 514 797 q 465 617 478 692 q 441 473 451 542 q 417 322 431 404 q 375 38 393 182 l 125 -1 m 204 -204 q 140 -192 171 -204 q 88 -153 108 -179 l 114 -31 q 188 -69 149 -69 q 238 -47 218 -69 q 258 10 258 -25 q 256 28 258 18 q 251 51 254 39 q 311 43 290 47 q 336 39 332 39 q 392 -69 392 -15 q 366 -139 392 -108 q 298 -187 340 -169 q 204 -204 256 -204 z "},"Ț":{"ha":503,"x_min":53,"x_max":663,"o":"m 125 -1 q 156 151 140 75 q 186 300 172 226 q 272 806 239 564 q 240 809 257 808 q 208 808 224 810 q 143 817 175 806 q 144 841 144 828 q 144 868 144 854 q 144 898 144 883 q 146 926 144 913 q 147 959 147 942 q 149 994 147 976 q 221 990 185 992 q 293 989 257 989 q 490 996 396 989 q 663 1013 583 1003 l 647 938 l 635 872 q 622 815 628 836 q 592 808 607 811 q 561 804 576 806 q 530 800 546 803 q 499 794 514 797 q 465 617 478 692 q 441 473 451 542 q 417 322 431 404 q 375 38 393 182 l 125 -1 m 53 -351 q 74 -237 67 -281 q 85 -159 81 -194 q 94 -79 89 -124 l 131 -79 q 138 -81 142 -81 q 139 -81 133 -81 q 204 -80 181 -81 q 253 -78 228 -79 q 318 -76 278 -78 q 301 -153 308 -124 q 287 -209 294 -183 q 269 -267 279 -235 q 243 -351 260 -300 l 53 -351 z "},"U":{"ha":582,"x_min":43,"x_max":721,"o":"m 229 -25 q 144 -7 188 -25 q 72 49 101 11 q 43 144 43 86 l 43 156 q 44 167 43 163 q 56 261 49 203 q 75 388 64 319 q 98 525 86 457 q 119 649 110 593 q 153 828 140 760 q 173 933 165 896 q 185 988 181 969 l 414 1010 q 380 849 396 925 q 350 706 364 774 l 286 399 q 274 340 278 364 q 262 284 268 318 q 256 222 256 250 q 267 185 256 200 q 294 171 278 171 q 333 189 318 171 q 358 233 349 207 q 374 287 368 260 q 383 331 379 314 q 409 455 397 394 q 434 583 421 515 q 464 740 447 651 q 487 865 475 801 q 510 993 499 928 l 721 1007 l 672 739 q 651 624 663 688 q 625 494 639 560 q 599 371 611 429 q 578 271 588 313 q 492 92 550 157 q 363 1 433 28 q 229 -25 293 -25 z "},"Ú":{"ha":582,"x_min":43,"x_max":740,"o":"m 229 -25 q 144 -7 188 -25 q 72 49 101 11 q 43 144 43 86 l 43 156 q 44 167 43 163 q 56 261 49 203 q 75 388 64 319 q 98 525 86 457 q 119 649 110 593 q 153 828 140 760 q 173 933 165 896 q 185 988 181 969 l 414 1010 q 380 849 396 925 q 350 706 364 774 l 286 399 q 274 340 278 364 q 262 284 268 318 q 256 222 256 250 q 267 185 256 200 q 294 171 278 171 q 333 189 318 171 q 358 233 349 207 q 374 287 368 260 q 383 331 379 314 q 409 455 397 394 q 434 583 421 515 q 464 740 447 651 q 487 865 475 801 q 510 993 499 928 l 721 1007 l 672 739 q 651 624 663 688 q 625 494 639 560 q 599 371 611 429 q 578 271 588 313 q 492 92 550 157 q 363 1 433 28 q 229 -25 293 -25 m 388 1054 q 386 1069 386 1061 q 386 1082 386 1076 l 386 1107 q 386 1130 386 1118 q 388 1153 386 1142 l 388 1200 q 479 1291 435 1249 q 565 1371 524 1333 q 646 1447 607 1408 q 721 1525 685 1486 q 729 1351 728 1431 q 732 1270 729 1311 q 740 1186 735 1229 q 656 1153 700 1169 q 564 1119 611 1136 q 472 1085 517 1101 q 388 1054 428 1069 z "},"Ŭ":{"ha":582,"x_min":43,"x_max":758,"o":"m 229 -25 q 144 -7 188 -25 q 72 49 101 11 q 43 144 43 86 l 43 156 q 44 167 43 163 q 56 261 49 203 q 75 388 64 319 q 98 525 86 457 q 119 649 110 593 q 153 828 140 760 q 173 933 165 896 q 185 988 181 969 l 414 1010 q 380 849 396 925 q 350 706 364 774 l 286 399 q 274 340 278 364 q 262 284 268 318 q 256 222 256 250 q 267 185 256 200 q 294 171 278 171 q 333 189 318 171 q 358 233 349 207 q 374 287 368 260 q 383 331 379 314 q 409 455 397 394 q 434 583 421 515 q 464 740 447 651 q 487 865 475 801 q 510 993 499 928 l 721 1007 l 672 739 q 651 624 663 688 q 625 494 639 560 q 599 371 611 429 q 578 271 588 313 q 492 92 550 157 q 363 1 433 28 q 229 -25 293 -25 m 514 1082 q 424 1119 464 1082 q 363 1212 383 1156 q 344 1326 342 1268 l 375 1354 q 390 1368 382 1361 q 407 1382 399 1375 q 422 1396 414 1389 q 440 1410 431 1403 q 449 1342 439 1376 q 479 1283 460 1307 q 525 1260 499 1260 q 593 1281 571 1260 q 634 1333 617 1300 q 679 1424 651 1367 q 711 1397 697 1408 q 736 1374 725 1385 l 758 1351 q 712 1226 746 1289 q 628 1123 678 1164 q 514 1082 578 1082 z "},"Û":{"ha":582,"x_min":43,"x_max":739,"o":"m 229 -25 q 144 -7 188 -25 q 72 49 101 11 q 43 144 43 86 l 43 156 q 44 167 43 163 q 56 261 49 203 q 75 388 64 319 q 98 525 86 457 q 119 649 110 593 q 153 828 140 760 q 173 933 165 896 q 185 988 181 969 l 414 1010 q 380 849 396 925 q 350 706 364 774 l 286 399 q 274 340 278 364 q 262 284 268 318 q 256 222 256 250 q 267 185 256 200 q 294 171 278 171 q 333 189 318 171 q 358 233 349 207 q 374 287 368 260 q 383 331 379 314 q 409 455 397 394 q 434 583 421 515 q 464 740 447 651 q 487 865 475 801 q 510 993 499 928 l 721 1007 l 672 739 q 651 624 663 688 q 625 494 639 560 q 599 371 611 429 q 578 271 588 313 q 492 92 550 157 q 363 1 433 28 q 229 -25 293 -25 m 400 1054 q 368 1083 382 1069 q 346 1107 354 1096 q 335 1119 340 1114 q 325 1131 329 1125 q 365 1187 344 1158 q 406 1242 385 1215 q 481 1338 440 1288 q 558 1424 522 1388 q 605 1417 586 1419 q 635 1417 624 1415 q 658 1415 656 1418 q 670 1375 664 1397 q 683 1329 676 1353 l 708 1238 q 724 1186 715 1211 q 739 1135 732 1161 l 706 1107 q 691 1095 699 1101 q 674 1082 683 1089 l 639 1056 l 554 1219 q 496 1162 526 1194 q 440 1100 465 1129 q 400 1054 415 1071 z "},"Ȕ":{"ha":582,"x_min":43,"x_max":858,"o":"m 229 -25 q 144 -7 188 -25 q 72 49 101 11 q 43 144 43 86 l 43 156 q 44 167 43 163 q 56 261 49 203 q 75 388 64 319 q 98 525 86 457 q 119 649 110 593 q 153 828 140 760 q 173 933 165 896 q 185 988 181 969 l 414 1010 q 380 849 396 925 q 350 706 364 774 l 286 399 q 274 340 278 364 q 262 284 268 318 q 256 222 256 250 q 267 185 256 200 q 294 171 278 171 q 333 189 318 171 q 358 233 349 207 q 374 287 368 260 q 383 331 379 314 q 409 455 397 394 q 434 583 421 515 q 464 740 447 651 q 487 865 475 801 q 510 993 499 928 l 721 1007 l 672 739 q 651 624 663 688 q 625 494 639 560 q 599 371 611 429 q 578 271 588 313 q 492 92 550 157 q 363 1 433 28 q 229 -25 293 -25 m 447 1029 q 378 1046 413 1038 q 311 1063 343 1054 q 194 1091 254 1075 q 94 1119 135 1107 q 114 1217 103 1160 q 135 1329 125 1275 l 160 1460 q 215 1402 188 1431 q 268 1346 242 1374 q 366 1242 314 1297 q 457 1142 418 1186 l 447 1029 m 849 994 q 779 1011 814 1003 q 713 1028 744 1019 q 596 1056 656 1040 q 496 1085 536 1072 q 515 1183 504 1125 q 536 1294 526 1240 l 561 1425 q 616 1367 589 1396 q 669 1311 643 1339 q 767 1207 715 1263 q 858 1107 819 1151 l 849 994 z "},"Ü":{"ha":582,"x_min":43,"x_max":828,"o":"m 229 -25 q 144 -7 188 -25 q 72 49 101 11 q 43 144 43 86 l 43 156 q 44 167 43 163 q 56 261 49 203 q 75 388 64 319 q 98 525 86 457 q 119 649 110 593 q 153 828 140 760 q 173 933 165 896 q 185 988 181 969 l 414 1010 q 380 849 396 925 q 350 706 364 774 l 286 399 q 274 340 278 364 q 262 284 268 318 q 256 222 256 250 q 267 185 256 200 q 294 171 278 171 q 333 189 318 171 q 358 233 349 207 q 374 287 368 260 q 383 331 379 314 q 409 455 397 394 q 434 583 421 515 q 464 740 447 651 q 487 865 475 801 q 510 993 499 928 l 721 1007 l 672 739 q 651 624 663 688 q 625 494 639 560 q 599 371 611 429 q 578 271 588 313 q 492 92 550 157 q 363 1 433 28 q 229 -25 293 -25 m 679 1143 q 596 1180 624 1143 q 568 1263 568 1217 q 601 1349 568 1311 q 694 1386 633 1386 q 794 1351 761 1386 q 828 1274 828 1317 q 790 1185 828 1226 q 679 1143 751 1143 m 357 1143 q 274 1180 301 1143 q 246 1263 246 1217 q 277 1348 246 1310 q 371 1386 308 1386 q 472 1351 439 1386 q 504 1274 504 1317 q 463 1181 504 1219 q 357 1143 422 1143 z "},"Ụ":{"ha":582,"x_min":43,"x_max":721,"o":"m 229 -25 q 144 -7 188 -25 q 72 49 101 11 q 43 144 43 86 l 43 156 q 44 167 43 163 q 56 261 49 203 q 75 388 64 319 q 98 525 86 457 q 119 649 110 593 q 153 828 140 760 q 173 933 165 896 q 185 988 181 969 l 414 1010 q 380 849 396 925 q 350 706 364 774 l 286 399 q 274 340 278 364 q 262 284 268 318 q 256 222 256 250 q 267 185 256 200 q 294 171 278 171 q 333 189 318 171 q 358 233 349 207 q 374 287 368 260 q 383 331 379 314 q 409 455 397 394 q 434 583 421 515 q 464 740 447 651 q 487 865 475 801 q 510 993 499 928 l 721 1007 l 672 739 q 651 624 663 688 q 625 494 639 560 q 599 371 611 429 q 578 271 588 313 q 492 92 550 157 q 363 1 433 28 q 229 -25 293 -25 m 244 -285 q 161 -249 189 -285 q 133 -165 133 -212 q 164 -81 133 -121 q 258 -42 194 -42 q 359 -76 326 -42 q 392 -156 392 -111 q 353 -244 392 -204 q 244 -285 315 -285 z "},"Ù":{"ha":582,"x_min":43,"x_max":721,"o":"m 229 -25 q 144 -7 188 -25 q 72 49 101 11 q 43 144 43 86 l 43 156 q 44 167 43 163 q 56 261 49 203 q 75 388 64 319 q 98 525 86 457 q 119 649 110 593 q 153 828 140 760 q 173 933 165 896 q 185 988 181 969 l 414 1010 q 380 849 396 925 q 350 706 364 774 l 286 399 q 274 340 278 364 q 262 284 268 318 q 256 222 256 250 q 267 185 256 200 q 294 171 278 171 q 333 189 318 171 q 358 233 349 207 q 374 287 368 260 q 383 331 379 314 q 409 455 397 394 q 434 583 421 515 q 464 740 447 651 q 487 865 475 801 q 510 993 499 928 l 721 1007 l 672 739 q 651 624 663 688 q 625 494 639 560 q 599 371 611 429 q 578 271 588 313 q 492 92 550 157 q 363 1 433 28 q 229 -25 293 -25 m 550 1057 q 481 1074 515 1065 q 414 1090 446 1082 q 297 1119 357 1103 q 197 1147 238 1135 q 217 1245 206 1188 q 238 1357 228 1303 l 263 1488 q 317 1430 290 1458 q 371 1374 344 1401 q 469 1269 417 1325 q 560 1169 521 1214 l 550 1057 z "},"Ủ":{"ha":582,"x_min":43,"x_max":721,"o":"m 229 -25 q 144 -7 188 -25 q 72 49 101 11 q 43 144 43 86 l 43 156 q 44 167 43 163 q 56 261 49 203 q 75 388 64 319 q 98 525 86 457 q 119 649 110 593 q 153 828 140 760 q 173 933 165 896 q 185 988 181 969 l 414 1010 q 380 849 396 925 q 350 706 364 774 l 286 399 q 274 340 278 364 q 262 284 268 318 q 256 222 256 250 q 267 185 256 200 q 294 171 278 171 q 333 189 318 171 q 358 233 349 207 q 374 287 368 260 q 383 331 379 314 q 409 455 397 394 q 434 583 421 515 q 464 740 447 651 q 487 865 475 801 q 510 993 499 928 l 721 1007 l 672 739 q 651 624 663 688 q 625 494 639 560 q 599 371 611 429 q 578 271 588 313 q 492 92 550 157 q 363 1 433 28 q 229 -25 293 -25 m 457 1047 q 472 1109 457 1085 q 504 1151 486 1133 q 535 1181 521 1168 q 550 1203 550 1193 q 546 1210 550 1206 q 535 1215 542 1215 q 501 1201 521 1215 q 461 1171 482 1188 l 439 1253 q 563 1303 503 1303 q 594 1300 576 1303 q 622 1290 613 1297 q 646 1266 635 1282 q 661 1214 657 1250 q 647 1163 661 1183 q 613 1126 633 1142 q 574 1095 590 1111 q 550 1053 558 1079 l 524 1050 l 457 1047 z "},"Ư":{"ha":582,"x_min":43,"x_max":892,"o":"m 229 -25 q 144 -7 188 -25 q 72 49 101 11 q 43 144 43 86 l 43 156 q 44 167 43 163 q 56 261 49 203 q 75 388 64 319 q 98 525 86 457 q 119 649 110 593 q 153 828 140 760 q 173 933 165 896 q 185 988 181 969 l 414 1010 q 380 849 396 925 q 350 706 364 774 l 286 399 q 274 340 278 364 q 262 284 268 318 q 256 222 256 250 q 267 185 256 200 q 294 171 278 171 q 333 189 318 171 q 358 233 349 207 q 374 287 368 260 q 383 331 379 314 q 409 455 397 394 q 434 583 421 515 q 464 740 447 651 q 487 865 475 801 q 510 993 499 928 l 721 1007 l 672 739 q 651 624 663 688 q 625 494 639 560 q 599 371 611 429 q 578 271 588 313 q 492 92 550 157 q 363 1 433 28 q 229 -25 293 -25 m 682 999 q 745 1024 722 999 q 778 1088 768 1050 q 791 1163 789 1125 q 792 1226 793 1201 q 810 1213 801 1219 q 826 1199 818 1206 q 842 1185 833 1192 q 857 1171 850 1178 l 888 1143 q 871 1032 892 1085 q 808 943 850 979 q 700 899 765 907 l 682 999 z "},"Ứ":{"ha":582,"x_min":43,"x_max":892,"o":"m 229 -25 q 144 -7 188 -25 q 72 49 101 11 q 43 144 43 86 l 43 156 q 44 167 43 163 q 56 261 49 203 q 75 388 64 319 q 98 525 86 457 q 119 649 110 593 q 153 828 140 760 q 173 933 165 896 q 185 988 181 969 l 414 1010 q 380 849 396 925 q 350 706 364 774 l 286 399 q 274 340 278 364 q 262 284 268 318 q 256 222 256 250 q 267 185 256 200 q 294 171 278 171 q 333 189 318 171 q 358 233 349 207 q 374 287 368 260 q 383 331 379 314 q 409 455 397 394 q 434 583 421 515 q 464 740 447 651 q 487 865 475 801 q 510 993 499 928 l 721 1007 l 672 739 q 651 624 663 688 q 625 494 639 560 q 599 371 611 429 q 578 271 588 313 q 492 92 550 157 q 363 1 433 28 q 229 -25 293 -25 m 682 999 q 745 1024 722 999 q 778 1088 768 1050 q 791 1163 789 1125 q 792 1226 793 1201 q 810 1213 801 1219 q 826 1199 818 1206 q 842 1185 833 1192 q 857 1171 850 1178 l 888 1143 q 871 1032 892 1085 q 808 943 850 979 q 700 899 765 907 l 682 999 m 388 1054 q 386 1069 386 1061 q 386 1082 386 1076 l 386 1107 q 386 1130 386 1118 q 388 1153 386 1142 l 388 1200 q 479 1291 435 1249 q 565 1371 524 1333 q 646 1447 607 1408 q 721 1525 685 1486 q 729 1351 728 1431 q 732 1270 729 1311 q 740 1186 735 1229 q 656 1153 700 1169 q 564 1119 611 1136 q 472 1085 517 1101 q 388 1054 428 1069 z "},"Ự":{"ha":582,"x_min":43,"x_max":892,"o":"m 229 -25 q 144 -7 188 -25 q 72 49 101 11 q 43 144 43 86 l 43 156 q 44 167 43 163 q 56 261 49 203 q 75 388 64 319 q 98 525 86 457 q 119 649 110 593 q 153 828 140 760 q 173 933 165 896 q 185 988 181 969 l 414 1010 q 380 849 396 925 q 350 706 364 774 l 286 399 q 274 340 278 364 q 262 284 268 318 q 256 222 256 250 q 267 185 256 200 q 294 171 278 171 q 333 189 318 171 q 358 233 349 207 q 374 287 368 260 q 383 331 379 314 q 409 455 397 394 q 434 583 421 515 q 464 740 447 651 q 487 865 475 801 q 510 993 499 928 l 721 1007 l 672 739 q 651 624 663 688 q 625 494 639 560 q 599 371 611 429 q 578 271 588 313 q 492 92 550 157 q 363 1 433 28 q 229 -25 293 -25 m 682 999 q 745 1024 722 999 q 778 1088 768 1050 q 791 1163 789 1125 q 792 1226 793 1201 q 810 1213 801 1219 q 826 1199 818 1206 q 842 1185 833 1192 q 857 1171 850 1178 l 888 1143 q 871 1032 892 1085 q 808 943 850 979 q 700 899 765 907 l 682 999 m 244 -285 q 161 -249 189 -285 q 133 -165 133 -212 q 164 -81 133 -121 q 258 -42 194 -42 q 359 -76 326 -42 q 392 -156 392 -111 q 353 -244 392 -204 q 244 -285 315 -285 z "},"Ừ":{"ha":582,"x_min":43,"x_max":892,"o":"m 229 -25 q 144 -7 188 -25 q 72 49 101 11 q 43 144 43 86 l 43 156 q 44 167 43 163 q 56 261 49 203 q 75 388 64 319 q 98 525 86 457 q 119 649 110 593 q 153 828 140 760 q 173 933 165 896 q 185 988 181 969 l 414 1010 q 380 849 396 925 q 350 706 364 774 l 286 399 q 274 340 278 364 q 262 284 268 318 q 256 222 256 250 q 267 185 256 200 q 294 171 278 171 q 333 189 318 171 q 358 233 349 207 q 374 287 368 260 q 383 331 379 314 q 409 455 397 394 q 434 583 421 515 q 464 740 447 651 q 487 865 475 801 q 510 993 499 928 l 721 1007 l 672 739 q 651 624 663 688 q 625 494 639 560 q 599 371 611 429 q 578 271 588 313 q 492 92 550 157 q 363 1 433 28 q 229 -25 293 -25 m 682 999 q 745 1024 722 999 q 778 1088 768 1050 q 791 1163 789 1125 q 792 1226 793 1201 q 810 1213 801 1219 q 826 1199 818 1206 q 842 1185 833 1192 q 857 1171 850 1178 l 888 1143 q 871 1032 892 1085 q 808 943 850 979 q 700 899 765 907 l 682 999 m 550 1057 q 481 1074 515 1065 q 414 1090 446 1082 q 297 1119 357 1103 q 197 1147 238 1135 q 217 1245 206 1188 q 238 1357 228 1303 l 263 1488 q 317 1430 290 1458 q 371 1374 344 1401 q 469 1269 417 1325 q 560 1169 521 1214 l 550 1057 z "},"Ử":{"ha":582,"x_min":43,"x_max":892,"o":"m 229 -25 q 144 -7 188 -25 q 72 49 101 11 q 43 144 43 86 l 43 156 q 44 167 43 163 q 56 261 49 203 q 75 388 64 319 q 98 525 86 457 q 119 649 110 593 q 153 828 140 760 q 173 933 165 896 q 185 988 181 969 l 414 1010 q 380 849 396 925 q 350 706 364 774 l 286 399 q 274 340 278 364 q 262 284 268 318 q 256 222 256 250 q 267 185 256 200 q 294 171 278 171 q 333 189 318 171 q 358 233 349 207 q 374 287 368 260 q 383 331 379 314 q 409 455 397 394 q 434 583 421 515 q 464 740 447 651 q 487 865 475 801 q 510 993 499 928 l 721 1007 l 672 739 q 651 624 663 688 q 625 494 639 560 q 599 371 611 429 q 578 271 588 313 q 492 92 550 157 q 363 1 433 28 q 229 -25 293 -25 m 682 999 q 745 1024 722 999 q 778 1088 768 1050 q 791 1163 789 1125 q 792 1226 793 1201 q 810 1213 801 1219 q 826 1199 818 1206 q 842 1185 833 1192 q 857 1171 850 1178 l 888 1143 q 871 1032 892 1085 q 808 943 850 979 q 700 899 765 907 l 682 999 m 457 1047 q 472 1109 457 1085 q 504 1151 486 1133 q 535 1181 521 1168 q 550 1203 550 1193 q 546 1210 550 1206 q 535 1215 542 1215 q 501 1201 521 1215 q 461 1171 482 1188 l 439 1253 q 563 1303 503 1303 q 594 1300 576 1303 q 622 1290 613 1297 q 646 1266 635 1282 q 661 1214 657 1250 q 647 1163 661 1183 q 613 1126 633 1142 q 574 1095 590 1111 q 550 1053 558 1079 l 524 1050 l 457 1047 z "},"Ữ":{"ha":582,"x_min":43,"x_max":892,"o":"m 229 -25 q 144 -7 188 -25 q 72 49 101 11 q 43 144 43 86 l 43 156 q 44 167 43 163 q 56 261 49 203 q 75 388 64 319 q 98 525 86 457 q 119 649 110 593 q 153 828 140 760 q 173 933 165 896 q 185 988 181 969 l 414 1010 q 380 849 396 925 q 350 706 364 774 l 286 399 q 274 340 278 364 q 262 284 268 318 q 256 222 256 250 q 267 185 256 200 q 294 171 278 171 q 333 189 318 171 q 358 233 349 207 q 374 287 368 260 q 383 331 379 314 q 409 455 397 394 q 434 583 421 515 q 464 740 447 651 q 487 865 475 801 q 510 993 499 928 l 721 1007 l 672 739 q 651 624 663 688 q 625 494 639 560 q 599 371 611 429 q 578 271 588 313 q 492 92 550 157 q 363 1 433 28 q 229 -25 293 -25 m 682 999 q 745 1024 722 999 q 778 1088 768 1050 q 791 1163 789 1125 q 792 1226 793 1201 q 810 1213 801 1219 q 826 1199 818 1206 q 842 1185 833 1192 q 857 1171 850 1178 l 888 1143 q 871 1032 892 1085 q 808 943 850 979 q 700 899 765 907 l 682 999 m 271 1047 q 228 1080 253 1060 q 196 1108 203 1100 q 213 1144 196 1108 q 265 1231 231 1179 q 341 1317 297 1279 q 436 1354 385 1354 q 494 1336 468 1354 q 539 1294 519 1318 q 572 1253 558 1271 q 590 1235 585 1235 q 643 1259 618 1235 q 692 1313 668 1283 q 733 1360 715 1343 q 749 1348 742 1354 q 764 1336 757 1342 q 777 1326 771 1331 q 789 1317 783 1321 q 799 1308 794 1313 q 808 1299 804 1304 q 742 1178 779 1231 q 667 1097 714 1135 q 567 1058 619 1058 q 515 1073 533 1058 q 485 1106 497 1088 q 457 1138 472 1124 q 413 1153 442 1153 q 360 1133 386 1153 q 312 1089 335 1114 q 271 1047 289 1064 z "},"Ű":{"ha":582,"x_min":43,"x_max":882,"o":"m 229 -25 q 144 -7 188 -25 q 72 49 101 11 q 43 144 43 86 l 43 156 q 44 167 43 163 q 56 261 49 203 q 75 388 64 319 q 98 525 86 457 q 119 649 110 593 q 153 828 140 760 q 173 933 165 896 q 185 988 181 969 l 414 1010 q 380 849 396 925 q 350 706 364 774 l 286 399 q 274 340 278 364 q 262 284 268 318 q 256 222 256 250 q 267 185 256 200 q 294 171 278 171 q 333 189 318 171 q 358 233 349 207 q 374 287 368 260 q 383 331 379 314 q 409 455 397 394 q 434 583 421 515 q 464 740 447 651 q 487 865 475 801 q 510 993 499 928 l 721 1007 l 672 739 q 651 624 663 688 q 625 494 639 560 q 599 371 611 429 q 578 271 588 313 q 492 92 550 157 q 363 1 433 28 q 229 -25 293 -25 m 557 1044 q 531 1090 547 1069 q 507 1128 515 1111 q 507 1157 499 1144 q 567 1247 538 1201 q 625 1336 596 1292 q 683 1426 653 1381 q 744 1514 714 1471 q 780 1429 763 1471 q 814 1344 797 1388 q 847 1260 829 1301 q 882 1176 864 1218 l 719 1110 q 638 1076 679 1092 q 557 1044 597 1060 m 160 1044 q 143 1084 150 1069 q 129 1115 136 1099 q 108 1157 122 1131 q 168 1247 139 1201 q 226 1338 197 1293 q 286 1426 256 1382 q 347 1514 317 1471 q 383 1429 365 1471 q 417 1344 400 1388 q 449 1260 432 1301 q 485 1176 467 1218 l 322 1110 q 241 1076 282 1092 q 160 1044 200 1060 z "},"Ȗ":{"ha":582,"x_min":43,"x_max":721,"o":"m 229 -25 q 144 -7 188 -25 q 72 49 101 11 q 43 144 43 86 l 43 156 q 44 167 43 163 q 56 261 49 203 q 75 388 64 319 q 98 525 86 457 q 119 649 110 593 q 153 828 140 760 q 173 933 165 896 q 185 988 181 969 l 414 1010 q 380 849 396 925 q 350 706 364 774 l 286 399 q 274 340 278 364 q 262 284 268 318 q 256 222 256 250 q 267 185 256 200 q 294 171 278 171 q 333 189 318 171 q 358 233 349 207 q 374 287 368 260 q 383 331 379 314 q 409 455 397 394 q 434 583 421 515 q 464 740 447 651 q 487 865 475 801 q 510 993 499 928 l 721 1007 l 672 739 q 651 624 663 688 q 625 494 639 560 q 599 371 611 429 q 578 271 588 313 q 492 92 550 157 q 363 1 433 28 q 229 -25 293 -25 m 532 1369 q 623 1333 583 1369 q 684 1240 663 1296 q 701 1125 706 1185 l 671 1097 q 656 1085 664 1092 q 640 1071 647 1078 q 624 1056 632 1064 q 606 1042 615 1049 q 597 1110 607 1076 q 567 1168 586 1144 q 521 1192 547 1192 q 454 1172 478 1192 q 413 1118 432 1151 q 367 1028 394 1085 q 335 1055 349 1043 q 310 1078 321 1067 l 288 1100 q 335 1226 301 1164 q 418 1328 368 1288 q 532 1369 468 1369 z "},"Ū":{"ha":582,"x_min":43,"x_max":767,"o":"m 229 -25 q 144 -7 188 -25 q 72 49 101 11 q 43 144 43 86 l 43 156 q 44 167 43 163 q 56 261 49 203 q 75 388 64 319 q 98 525 86 457 q 119 649 110 593 q 153 828 140 760 q 173 933 165 896 q 185 988 181 969 l 414 1010 q 380 849 396 925 q 350 706 364 774 l 286 399 q 274 340 278 364 q 262 284 268 318 q 256 222 256 250 q 267 185 256 200 q 294 171 278 171 q 333 189 318 171 q 358 233 349 207 q 374 287 368 260 q 383 331 379 314 q 409 455 397 394 q 434 583 421 515 q 464 740 447 651 q 487 865 475 801 q 510 993 499 928 l 721 1007 l 672 739 q 651 624 663 688 q 625 494 639 560 q 599 371 611 429 q 578 271 588 313 q 492 92 550 157 q 363 1 433 28 q 229 -25 293 -25 m 233 1075 q 225 1138 226 1099 q 224 1213 224 1176 l 224 1268 q 224 1281 224 1275 q 225 1293 224 1288 l 744 1338 l 767 1113 l 557 1100 q 434 1092 488 1096 q 333 1084 381 1088 q 233 1075 285 1081 z "},"Ų":{"ha":582,"x_min":43,"x_max":721,"o":"m 229 -25 q 144 -7 188 -25 q 72 49 101 11 q 43 144 43 86 l 43 156 q 44 167 43 163 q 56 261 49 203 q 75 388 64 319 q 98 525 86 457 q 119 649 110 593 q 153 828 140 760 q 173 933 165 896 q 185 988 181 969 l 414 1010 q 380 849 396 925 q 350 706 364 774 l 286 399 q 274 340 278 364 q 262 284 268 318 q 256 222 256 250 q 267 185 256 200 q 294 171 278 171 q 333 189 318 171 q 358 233 349 207 q 374 287 368 260 q 383 331 379 314 q 409 455 397 394 q 434 583 421 515 q 464 740 447 651 q 487 865 475 801 q 510 993 499 928 l 721 1007 l 672 739 q 651 624 663 688 q 625 494 639 560 q 599 371 611 429 q 578 271 588 313 q 492 92 550 157 q 363 1 433 28 q 229 -25 293 -25 m 472 -186 q 338 -147 392 -186 q 285 -51 285 -108 q 340 57 285 3 q 364 61 343 57 q 424 69 385 65 q 419 47 421 57 q 418 28 418 36 q 438 -29 418 -7 q 488 -51 458 -51 q 561 -12 526 -51 l 589 -135 q 535 -174 567 -161 q 472 -186 504 -186 z "},"Ů":{"ha":582,"x_min":43,"x_max":721,"o":"m 229 -25 q 144 -7 188 -25 q 72 49 101 11 q 43 144 43 86 l 43 156 q 44 167 43 163 q 56 261 49 203 q 75 388 64 319 q 98 525 86 457 q 119 649 110 593 q 153 828 140 760 q 173 933 165 896 q 185 988 181 969 l 414 1010 q 380 849 396 925 q 350 706 364 774 l 286 399 q 274 340 278 364 q 262 284 268 318 q 256 222 256 250 q 267 185 256 200 q 294 171 278 171 q 333 189 318 171 q 358 233 349 207 q 374 287 368 260 q 383 331 379 314 q 409 455 397 394 q 434 583 421 515 q 464 740 447 651 q 487 865 475 801 q 510 993 499 928 l 721 1007 l 672 739 q 651 624 663 688 q 625 494 639 560 q 599 371 611 429 q 578 271 588 313 q 492 92 550 157 q 363 1 433 28 q 229 -25 293 -25 m 493 1065 q 389 1111 426 1065 q 351 1219 351 1157 q 392 1331 351 1283 q 513 1379 433 1379 q 627 1337 586 1379 q 668 1233 668 1294 q 646 1150 668 1189 q 584 1088 624 1111 q 493 1065 544 1065 m 510 1153 q 564 1176 546 1153 q 582 1222 582 1199 q 566 1265 582 1246 q 517 1283 550 1283 q 466 1263 482 1283 q 450 1217 450 1242 q 466 1173 450 1193 q 510 1153 482 1153 z "},"Ũ":{"ha":582,"x_min":43,"x_max":861,"o":"m 229 -25 q 144 -7 188 -25 q 72 49 101 11 q 43 144 43 86 l 43 156 q 44 167 43 163 q 56 261 49 203 q 75 388 64 319 q 98 525 86 457 q 119 649 110 593 q 153 828 140 760 q 173 933 165 896 q 185 988 181 969 l 414 1010 q 380 849 396 925 q 350 706 364 774 l 286 399 q 274 340 278 364 q 262 284 268 318 q 256 222 256 250 q 267 185 256 200 q 294 171 278 171 q 333 189 318 171 q 358 233 349 207 q 374 287 368 260 q 383 331 379 314 q 409 455 397 394 q 434 583 421 515 q 464 740 447 651 q 487 865 475 801 q 510 993 499 928 l 721 1007 l 672 739 q 651 624 663 688 q 625 494 639 560 q 599 371 611 429 q 578 271 588 313 q 492 92 550 157 q 363 1 433 28 q 229 -25 293 -25 m 324 1078 q 281 1110 306 1090 q 249 1139 256 1131 q 266 1174 249 1139 q 318 1261 283 1210 q 394 1347 350 1310 q 489 1385 438 1385 q 547 1367 521 1385 q 592 1325 572 1349 q 624 1283 611 1301 q 643 1265 638 1265 q 696 1290 671 1265 q 744 1344 721 1314 q 786 1390 768 1374 q 802 1378 794 1385 q 817 1367 810 1372 q 830 1356 824 1361 q 842 1347 836 1351 q 852 1339 847 1343 q 861 1329 857 1335 q 794 1208 832 1261 q 719 1127 767 1165 q 619 1089 672 1089 q 568 1103 586 1089 q 538 1136 550 1118 q 510 1169 525 1154 q 465 1183 494 1183 q 413 1164 439 1183 q 365 1119 388 1144 q 324 1078 342 1094 z "},"V":{"ha":526,"x_min":82,"x_max":693,"o":"m 82 -12 q 100 181 92 85 q 115 369 108 276 q 140 703 131 539 q 151 1010 149 867 q 314 1015 260 1010 q 368 1019 368 1019 q 354 873 361 939 q 342 756 347 807 l 325 588 q 313 458 318 511 q 304 361 308 406 q 293 264 300 317 l 318 264 l 474 1003 l 550 1007 q 586 1009 568 1008 q 624 1011 604 1010 q 660 1014 643 1013 q 693 1017 678 1015 q 640 833 667 935 q 585 624 613 732 q 531 410 558 515 q 486 228 508 321 q 442 42 464 136 l 82 -12 z "},"W":{"ha":835,"x_min":57,"x_max":1006,"o":"m 57 -6 l 163 981 q 226 985 194 982 q 286 994 257 989 q 343 1003 314 1000 q 400 1008 372 1007 l 396 981 q 391 949 394 967 q 385 910 388 932 q 368 799 378 861 q 346 660 358 736 q 327 546 338 613 q 303 394 317 479 l 324 394 q 357 511 342 458 q 383 604 372 564 q 405 677 394 644 q 422 736 415 710 q 469 904 451 839 q 493 989 488 969 l 506 989 q 581 994 542 989 q 653 1007 621 1000 q 647 961 651 1001 q 638 863 643 921 q 626 742 632 804 q 609 536 617 624 q 596 394 601 449 l 621 394 l 753 992 l 846 1004 q 886 1010 865 1007 q 929 1015 907 1013 q 1006 1028 969 1021 q 922 753 964 911 q 839 432 881 594 q 795 252 817 343 q 753 67 774 161 l 439 14 l 500 550 l 483 550 l 346 46 l 57 -6 z "},"Ẃ":{"ha":835,"x_min":57,"x_max":1006,"o":"m 57 -6 l 163 981 q 226 985 194 982 q 286 994 257 989 q 343 1003 314 1000 q 400 1008 372 1007 l 396 981 q 391 949 394 967 q 385 910 388 932 q 368 799 378 861 q 346 660 358 736 q 327 546 338 613 q 303 394 317 479 l 324 394 q 357 511 342 458 q 383 604 372 564 q 405 677 394 644 q 422 736 415 710 q 469 904 451 839 q 493 989 488 969 l 506 989 q 581 994 542 989 q 653 1007 621 1000 q 647 961 651 1001 q 638 863 643 921 q 626 742 632 804 q 609 536 617 624 q 596 394 601 449 l 621 394 l 753 992 l 846 1004 q 886 1010 865 1007 q 929 1015 907 1013 q 1006 1028 969 1021 q 922 753 964 911 q 839 432 881 594 q 795 252 817 343 q 753 67 774 161 l 439 14 l 500 550 l 483 550 l 346 46 l 57 -6 m 544 1047 q 543 1062 543 1054 q 543 1075 543 1069 l 543 1100 q 543 1123 543 1111 q 544 1146 543 1135 l 544 1193 q 636 1284 592 1242 q 722 1364 681 1326 q 803 1440 764 1401 q 878 1518 842 1479 q 886 1344 885 1424 q 889 1263 886 1304 q 897 1179 892 1222 q 813 1146 857 1163 q 721 1113 768 1129 q 629 1078 674 1094 q 544 1047 585 1063 z "},"Ŵ":{"ha":835,"x_min":57,"x_max":1006,"o":"m 57 -6 l 163 981 q 226 985 194 982 q 286 994 257 989 q 343 1003 314 1000 q 400 1008 372 1007 l 396 981 q 391 949 394 967 q 385 910 388 932 q 368 799 378 861 q 346 660 358 736 q 327 546 338 613 q 303 394 317 479 l 324 394 q 357 511 342 458 q 383 604 372 564 q 405 677 394 644 q 422 736 415 710 q 469 904 451 839 q 493 989 488 969 l 506 989 q 581 994 542 989 q 653 1007 621 1000 q 647 961 651 1001 q 638 863 643 921 q 626 742 632 804 q 609 536 617 624 q 596 394 601 449 l 621 394 l 753 992 l 846 1004 q 886 1010 865 1007 q 929 1015 907 1013 q 1006 1028 969 1021 q 922 753 964 911 q 839 432 881 594 q 795 252 817 343 q 753 67 774 161 l 439 14 l 500 550 l 483 550 l 346 46 l 57 -6 m 557 1047 q 525 1076 539 1063 q 503 1100 511 1089 q 492 1113 497 1107 q 482 1124 486 1118 q 522 1180 501 1151 q 563 1235 542 1208 q 638 1331 597 1281 q 715 1417 679 1381 q 762 1410 743 1413 q 792 1410 781 1408 q 815 1408 813 1411 q 827 1368 821 1390 q 840 1322 833 1346 l 865 1231 q 881 1179 872 1204 q 896 1128 889 1154 l 863 1100 q 848 1088 856 1094 q 831 1075 840 1082 l 796 1049 l 711 1213 q 653 1155 683 1188 q 597 1093 622 1122 q 557 1047 572 1064 z "},"Ẅ":{"ha":835,"x_min":57,"x_max":1006,"o":"m 57 -6 l 163 981 q 226 985 194 982 q 286 994 257 989 q 343 1003 314 1000 q 400 1008 372 1007 l 396 981 q 391 949 394 967 q 385 910 388 932 q 368 799 378 861 q 346 660 358 736 q 327 546 338 613 q 303 394 317 479 l 324 394 q 357 511 342 458 q 383 604 372 564 q 405 677 394 644 q 422 736 415 710 q 469 904 451 839 q 493 989 488 969 l 506 989 q 581 994 542 989 q 653 1007 621 1000 q 647 961 651 1001 q 638 863 643 921 q 626 742 632 804 q 609 536 617 624 q 596 394 601 449 l 621 394 l 753 992 l 846 1004 q 886 1010 865 1007 q 929 1015 907 1013 q 1006 1028 969 1021 q 922 753 964 911 q 839 432 881 594 q 795 252 817 343 q 753 67 774 161 l 439 14 l 500 550 l 483 550 l 346 46 l 57 -6 m 836 1136 q 753 1173 781 1136 q 725 1256 725 1210 q 758 1342 725 1304 q 851 1379 790 1379 q 951 1344 918 1379 q 985 1267 985 1310 q 947 1178 985 1219 q 836 1136 908 1136 m 514 1136 q 431 1173 458 1136 q 403 1256 403 1210 q 434 1341 403 1303 q 528 1379 465 1379 q 628 1344 596 1379 q 661 1267 661 1310 q 620 1174 661 1213 q 514 1136 579 1136 z "},"Ẁ":{"ha":835,"x_min":57,"x_max":1006,"o":"m 57 -6 l 163 981 q 226 985 194 982 q 286 994 257 989 q 343 1003 314 1000 q 400 1008 372 1007 l 396 981 q 391 949 394 967 q 385 910 388 932 q 368 799 378 861 q 346 660 358 736 q 327 546 338 613 q 303 394 317 479 l 324 394 q 357 511 342 458 q 383 604 372 564 q 405 677 394 644 q 422 736 415 710 q 469 904 451 839 q 493 989 488 969 l 506 989 q 581 994 542 989 q 653 1007 621 1000 q 647 961 651 1001 q 638 863 643 921 q 626 742 632 804 q 609 536 617 624 q 596 394 601 449 l 621 394 l 753 992 l 846 1004 q 886 1010 865 1007 q 929 1015 907 1013 q 1006 1028 969 1021 q 922 753 964 911 q 839 432 881 594 q 795 252 817 343 q 753 67 774 161 l 439 14 l 500 550 l 483 550 l 346 46 l 57 -6 m 707 1050 q 638 1067 672 1058 q 571 1083 603 1075 q 454 1112 514 1096 q 354 1140 394 1128 q 374 1238 363 1181 q 394 1350 385 1296 l 419 1481 q 474 1423 447 1451 q 528 1367 501 1394 q 626 1263 574 1318 q 717 1163 678 1207 l 707 1050 z "},"X":{"ha":571,"x_min":-50,"x_max":724,"o":"m 325 -14 q 322 41 324 14 q 318 94 319 68 q 315 141 317 118 q 313 186 314 164 q 310 228 311 210 q 307 263 308 247 l 275 186 q 255 141 265 164 q 235 96 244 118 q 211 44 224 69 q 186 -8 199 18 l -50 13 q 19 135 -15 74 q 89 257 54 197 q 156 381 124 318 q 217 510 188 444 q 201 621 208 572 q 183 717 193 669 q 163 813 174 761 q 140 921 151 865 l 363 1013 q 379 868 369 946 q 388 792 383 829 q 394 722 392 756 l 458 861 q 490 930 474 896 q 522 999 506 964 l 724 944 q 638 796 675 863 q 568 661 601 729 q 493 506 535 593 q 538 282 508 400 q 592 64 567 164 q 558 55 589 63 q 476 32 528 47 q 385 6 426 18 q 325 -14 344 -6 z "},"Y":{"ha":533,"x_min":107,"x_max":725,"o":"m 107 21 l 171 300 q 166 502 171 399 q 154 708 161 606 q 144 874 149 811 q 139 936 139 936 l 365 1022 l 365 853 q 365 708 365 772 q 364 594 364 643 q 408 711 382 642 q 456 846 433 781 q 483 924 469 885 q 510 1007 496 964 l 725 958 q 608 721 665 840 q 535 566 575 647 q 462 415 496 485 q 408 303 428 344 q 391 224 401 267 q 371 142 381 181 q 358 97 365 119 q 344 50 351 74 l 107 21 z "},"Ý":{"ha":533,"x_min":107,"x_max":731,"o":"m 107 21 l 171 300 q 166 502 171 399 q 154 708 161 606 q 144 874 149 811 q 139 936 139 936 l 365 1022 l 365 853 q 365 708 365 772 q 364 594 364 643 q 408 711 382 642 q 456 846 433 781 q 483 924 469 885 q 510 1007 496 964 l 725 958 q 608 721 665 840 q 535 566 575 647 q 462 415 496 485 q 408 303 428 344 q 391 224 401 267 q 371 142 381 181 q 358 97 365 119 q 344 50 351 74 l 107 21 m 378 1042 q 376 1056 376 1049 q 376 1069 376 1064 l 376 1094 q 376 1117 376 1106 q 378 1140 376 1129 l 378 1188 q 469 1278 425 1236 q 556 1358 514 1321 q 636 1435 597 1396 q 711 1513 675 1474 q 719 1339 718 1418 q 722 1258 719 1299 q 731 1174 725 1217 q 646 1140 690 1157 q 554 1107 601 1124 q 463 1073 507 1089 q 378 1042 418 1057 z "},"Ŷ":{"ha":533,"x_min":107,"x_max":729,"o":"m 107 21 l 171 300 q 166 502 171 399 q 154 708 161 606 q 144 874 149 811 q 139 936 139 936 l 365 1022 l 365 853 q 365 708 365 772 q 364 594 364 643 q 408 711 382 642 q 456 846 433 781 q 483 924 469 885 q 510 1007 496 964 l 725 958 q 608 721 665 840 q 535 566 575 647 q 462 415 496 485 q 408 303 428 344 q 391 224 401 267 q 371 142 381 181 q 358 97 365 119 q 344 50 351 74 l 107 21 m 390 1042 q 358 1070 372 1057 q 336 1094 344 1083 q 325 1107 331 1101 q 315 1118 319 1113 q 355 1174 335 1146 q 396 1229 375 1203 q 472 1325 431 1275 q 549 1411 513 1375 q 595 1405 576 1407 q 625 1404 614 1403 q 649 1403 646 1406 q 660 1363 654 1385 q 674 1317 667 1340 l 699 1225 q 714 1174 706 1199 q 729 1122 722 1149 l 696 1094 q 681 1083 689 1089 q 664 1069 674 1076 l 629 1043 l 544 1207 q 486 1149 517 1182 q 431 1088 456 1117 q 390 1042 406 1058 z "},"Ÿ":{"ha":533,"x_min":107,"x_max":818,"o":"m 107 21 l 171 300 q 166 502 171 399 q 154 708 161 606 q 144 874 149 811 q 139 936 139 936 l 365 1022 l 365 853 q 365 708 365 772 q 364 594 364 643 q 408 711 382 642 q 456 846 433 781 q 483 924 469 885 q 510 1007 496 964 l 725 958 q 608 721 665 840 q 535 566 575 647 q 462 415 496 485 q 408 303 428 344 q 391 224 401 267 q 371 142 381 181 q 358 97 365 119 q 344 50 351 74 l 107 21 m 669 1131 q 586 1167 614 1131 q 558 1250 558 1204 q 591 1336 558 1299 q 685 1374 624 1374 q 785 1339 751 1374 q 818 1261 818 1304 q 780 1172 818 1214 q 669 1131 742 1131 m 347 1131 q 264 1167 292 1131 q 236 1250 236 1204 q 267 1335 236 1297 q 361 1374 299 1374 q 462 1339 429 1374 q 494 1261 494 1304 q 453 1169 494 1207 q 347 1131 413 1131 z "},"Ỵ":{"ha":533,"x_min":107,"x_max":725,"o":"m 107 21 l 171 300 q 166 502 171 399 q 154 708 161 606 q 144 874 149 811 q 139 936 139 936 l 365 1022 l 365 853 q 365 708 365 772 q 364 594 364 643 q 408 711 382 642 q 456 846 433 781 q 483 924 469 885 q 510 1007 496 964 l 725 958 q 608 721 665 840 q 535 566 575 647 q 462 415 496 485 q 408 303 428 344 q 391 224 401 267 q 371 142 381 181 q 358 97 365 119 q 344 50 351 74 l 107 21 m 247 -285 q 164 -249 192 -285 q 136 -165 136 -212 q 167 -81 136 -121 q 261 -42 197 -42 q 362 -76 329 -42 q 394 -156 394 -111 q 356 -244 394 -204 q 247 -285 318 -285 z "},"Ỳ":{"ha":533,"x_min":107,"x_max":725,"o":"m 107 21 l 171 300 q 166 502 171 399 q 154 708 161 606 q 144 874 149 811 q 139 936 139 936 l 365 1022 l 365 853 q 365 708 365 772 q 364 594 364 643 q 408 711 382 642 q 456 846 433 781 q 483 924 469 885 q 510 1007 496 964 l 725 958 q 608 721 665 840 q 535 566 575 647 q 462 415 496 485 q 408 303 428 344 q 391 224 401 267 q 371 142 381 181 q 358 97 365 119 q 344 50 351 74 l 107 21 m 540 1044 q 471 1061 506 1053 q 404 1078 436 1069 q 288 1106 347 1090 q 188 1135 228 1122 q 207 1233 196 1175 q 228 1344 218 1290 l 253 1475 q 308 1417 281 1446 q 361 1361 335 1389 q 459 1257 407 1313 q 550 1157 511 1201 l 540 1044 z "},"Ỷ":{"ha":533,"x_min":107,"x_max":725,"o":"m 107 21 l 171 300 q 166 502 171 399 q 154 708 161 606 q 144 874 149 811 q 139 936 139 936 l 365 1022 l 365 853 q 365 708 365 772 q 364 594 364 643 q 408 711 382 642 q 456 846 433 781 q 483 924 469 885 q 510 1007 496 964 l 725 958 q 608 721 665 840 q 535 566 575 647 q 462 415 496 485 q 408 303 428 344 q 391 224 401 267 q 371 142 381 181 q 358 97 365 119 q 344 50 351 74 l 107 21 m 447 1035 q 462 1097 447 1072 q 494 1139 476 1121 q 526 1168 511 1156 q 540 1190 540 1181 q 536 1198 540 1193 q 525 1203 532 1203 q 492 1189 511 1203 q 451 1158 472 1175 l 429 1240 q 553 1290 493 1290 q 585 1288 567 1290 q 613 1278 603 1285 q 636 1253 625 1269 q 651 1201 647 1238 q 638 1150 651 1171 q 603 1114 624 1129 q 565 1083 581 1099 q 540 1040 549 1067 l 514 1038 l 447 1035 z "},"Ȳ":{"ha":533,"x_min":107,"x_max":757,"o":"m 107 21 l 171 300 q 166 502 171 399 q 154 708 161 606 q 144 874 149 811 q 139 936 139 936 l 365 1022 l 365 853 q 365 708 365 772 q 364 594 364 643 q 408 711 382 642 q 456 846 433 781 q 483 924 469 885 q 510 1007 496 964 l 725 958 q 608 721 665 840 q 535 566 575 647 q 462 415 496 485 q 408 303 428 344 q 391 224 401 267 q 371 142 381 181 q 358 97 365 119 q 344 50 351 74 l 107 21 m 224 1063 q 215 1125 217 1086 q 214 1200 214 1164 l 214 1256 q 214 1269 214 1263 q 215 1281 214 1275 l 735 1325 l 757 1100 l 547 1088 q 424 1079 478 1083 q 323 1072 371 1075 q 224 1063 275 1068 z "},"Ỹ":{"ha":533,"x_min":107,"x_max":851,"o":"m 107 21 l 171 300 q 166 502 171 399 q 154 708 161 606 q 144 874 149 811 q 139 936 139 936 l 365 1022 l 365 853 q 365 708 365 772 q 364 594 364 643 q 408 711 382 642 q 456 846 433 781 q 483 924 469 885 q 510 1007 496 964 l 725 958 q 608 721 665 840 q 535 566 575 647 q 462 415 496 485 q 408 303 428 344 q 391 224 401 267 q 371 142 381 181 q 358 97 365 119 q 344 50 351 74 l 107 21 m 314 1065 q 271 1098 296 1078 q 239 1126 246 1118 q 256 1162 239 1126 q 308 1249 274 1197 q 384 1335 340 1297 q 479 1372 428 1372 q 537 1354 511 1372 q 582 1313 563 1336 q 615 1271 601 1289 q 633 1253 628 1253 q 686 1277 661 1253 q 735 1331 711 1301 q 776 1378 758 1361 q 792 1366 785 1372 q 807 1354 800 1360 q 820 1344 814 1349 q 832 1335 826 1339 q 842 1326 838 1331 q 851 1317 847 1322 q 785 1196 822 1249 q 710 1115 757 1153 q 610 1076 663 1076 q 558 1091 576 1076 q 528 1124 540 1106 q 500 1156 515 1142 q 456 1171 485 1171 q 403 1151 429 1171 q 355 1107 378 1132 q 314 1065 332 1082 z "},"Z":{"ha":599,"x_min":11,"x_max":739,"o":"m 11 13 l 11 215 l 407 753 q 334 749 367 753 q 259 740 301 746 q 144 724 217 733 l 171 942 l 739 982 l 703 790 l 324 251 q 388 253 343 251 q 488 259 432 256 q 599 267 544 263 l 599 56 q 515 53 582 56 q 332 43 449 50 q 141 28 226 36 q 11 13 56 21 z "},"Ź":{"ha":599,"x_min":11,"x_max":776,"o":"m 11 13 l 11 215 l 407 753 q 334 749 367 753 q 259 740 301 746 q 144 724 217 733 l 171 942 l 739 982 l 703 790 l 324 251 q 388 253 343 251 q 488 259 432 256 q 599 267 544 263 l 599 56 q 515 53 582 56 q 332 43 449 50 q 141 28 226 36 q 11 13 56 21 m 424 1042 q 422 1056 422 1049 q 422 1069 422 1064 l 422 1094 q 422 1117 422 1106 q 424 1140 422 1129 l 424 1188 q 515 1278 471 1236 q 601 1358 560 1321 q 682 1435 643 1396 q 757 1513 721 1474 q 765 1339 764 1418 q 768 1258 765 1299 q 776 1174 771 1217 q 692 1140 736 1157 q 600 1107 647 1124 q 508 1073 553 1089 q 424 1042 464 1057 z "},"Ž":{"ha":599,"x_min":11,"x_max":739,"o":"m 11 13 l 11 215 l 407 753 q 334 749 367 753 q 259 740 301 746 q 144 724 217 733 l 171 942 l 739 982 l 703 790 l 324 251 q 388 253 343 251 q 488 259 432 256 q 599 267 544 263 l 599 56 q 515 53 582 56 q 332 43 449 50 q 141 28 226 36 q 11 13 56 21 m 519 1050 q 486 1052 501 1051 q 461 1053 471 1053 l 439 1053 q 425 1051 433 1051 q 419 1053 419 1051 q 406 1092 414 1071 q 392 1138 399 1114 q 375 1183 383 1161 q 360 1228 367 1206 q 343 1278 351 1253 q 325 1329 335 1303 l 356 1358 q 371 1372 363 1365 q 388 1386 379 1379 l 421 1414 l 514 1254 q 569 1318 538 1281 q 626 1388 600 1356 q 660 1428 653 1419 q 692 1400 678 1413 q 717 1376 706 1388 l 739 1356 q 702 1297 721 1325 q 664 1240 683 1268 q 593 1140 632 1193 q 519 1050 554 1088 z "},"Ż":{"ha":599,"x_min":11,"x_max":739,"o":"m 11 13 l 11 215 l 407 753 q 334 749 367 753 q 259 740 301 746 q 144 724 217 733 l 171 942 l 739 982 l 703 790 l 324 251 q 388 253 343 251 q 488 259 432 256 q 599 267 544 263 l 599 56 q 515 53 582 56 q 332 43 449 50 q 141 28 226 36 q 11 13 56 21 m 564 1081 q 481 1117 508 1081 q 453 1200 453 1153 q 483 1284 453 1244 q 578 1324 514 1324 q 678 1289 646 1324 q 711 1210 711 1254 q 673 1121 711 1161 q 564 1081 635 1081 z "},"a":{"ha":601,"x_min":-29,"x_max":644,"o":"m 360 3 q 365 49 363 26 q 371 93 368 71 l 379 171 q 382 207 381 190 q 385 238 383 224 l 264 238 l 208 38 q 136 28 178 33 q 58 19 94 24 q 15 14 36 17 q -29 8 -7 11 l 81 372 q 125 521 100 438 q 176 692 150 604 q 224 856 201 779 q 261 986 247 933 q 453 1003 356 993 q 644 1029 551 1013 q 631 853 638 951 q 620 651 625 756 q 610 446 615 547 q 603 248 607 350 q 594 39 599 146 q 553 33 574 36 q 511 28 532 31 q 435 15 476 22 q 360 3 393 8 m 297 376 q 328 378 306 376 q 372 381 351 379 q 397 382 393 382 q 403 456 397 400 q 414 572 408 511 q 420 647 417 608 q 428 725 424 685 l 436 846 l 415 844 l 383 725 l 297 376 z "},"á":{"ha":601,"x_min":-29,"x_max":644,"o":"m 360 3 q 365 49 363 26 q 371 93 368 71 l 379 171 q 382 207 381 190 q 385 238 383 224 l 264 238 l 208 38 q 136 28 178 33 q 58 19 94 24 q 15 14 36 17 q -29 8 -7 11 l 81 372 q 125 521 100 438 q 176 692 150 604 q 224 856 201 779 q 261 986 247 933 q 453 1003 356 993 q 644 1029 551 1013 q 631 853 638 951 q 620 651 625 756 q 610 446 615 547 q 603 248 607 350 q 594 39 599 146 q 553 33 574 36 q 511 28 532 31 q 435 15 476 22 q 360 3 393 8 m 297 376 q 328 378 306 376 q 372 381 351 379 q 397 382 393 382 q 403 456 397 400 q 414 572 408 511 q 420 647 417 608 q 428 725 424 685 l 436 846 l 415 844 l 383 725 l 297 376 m 264 1063 q 263 1077 263 1069 q 263 1090 263 1085 l 263 1115 q 263 1138 263 1126 q 264 1161 263 1150 l 264 1208 q 356 1299 311 1257 q 442 1379 400 1342 q 522 1456 483 1417 q 597 1533 561 1494 q 606 1360 604 1439 q 608 1278 606 1319 q 617 1194 611 1238 q 532 1161 576 1178 q 440 1128 488 1144 q 349 1094 393 1110 q 264 1063 304 1078 z "},"ă":{"ha":601,"x_min":-29,"x_max":676,"o":"m 360 3 q 365 49 363 26 q 371 93 368 71 l 379 171 q 382 207 381 190 q 385 238 383 224 l 264 238 l 208 38 q 136 28 178 33 q 58 19 94 24 q 15 14 36 17 q -29 8 -7 11 l 81 372 q 125 521 100 438 q 176 692 150 604 q 224 856 201 779 q 261 986 247 933 q 453 1003 356 993 q 644 1029 551 1013 q 631 853 638 951 q 620 651 625 756 q 610 446 615 547 q 603 248 607 350 q 594 39 599 146 q 553 33 574 36 q 511 28 532 31 q 435 15 476 22 q 360 3 393 8 m 297 376 q 328 378 306 376 q 372 381 351 379 q 397 382 393 382 q 403 456 397 400 q 414 572 408 511 q 420 647 417 608 q 428 725 424 685 l 436 846 l 415 844 l 383 725 l 297 376 m 432 1110 q 342 1147 382 1110 q 281 1240 301 1183 q 263 1354 260 1296 l 293 1382 q 308 1396 300 1389 q 325 1410 317 1403 q 340 1424 332 1417 q 358 1438 349 1431 q 367 1369 357 1404 q 397 1311 378 1335 q 443 1288 417 1288 q 511 1308 489 1288 q 552 1361 535 1328 q 597 1451 569 1394 q 629 1424 615 1436 q 654 1401 643 1413 l 676 1379 q 630 1254 664 1317 q 546 1151 596 1192 q 432 1110 496 1110 z "},"ắ":{"ha":601,"x_min":-29,"x_max":676,"o":"m 360 3 q 365 49 363 26 q 371 93 368 71 l 379 171 q 382 207 381 190 q 385 238 383 224 l 264 238 l 208 38 q 136 28 178 33 q 58 19 94 24 q 15 14 36 17 q -29 8 -7 11 l 81 372 q 125 521 100 438 q 176 692 150 604 q 224 856 201 779 q 261 986 247 933 q 453 1003 356 993 q 644 1029 551 1013 q 631 853 638 951 q 620 651 625 756 q 610 446 615 547 q 603 248 607 350 q 594 39 599 146 q 553 33 574 36 q 511 28 532 31 q 435 15 476 22 q 360 3 393 8 m 297 376 q 328 378 306 376 q 372 381 351 379 q 397 382 393 382 q 403 456 397 400 q 414 572 408 511 q 420 647 417 608 q 428 725 424 685 l 436 846 l 415 844 l 383 725 l 297 376 m 432 1110 q 342 1147 382 1110 q 281 1240 301 1183 q 263 1354 260 1296 l 293 1382 q 308 1396 300 1389 q 325 1410 317 1403 q 340 1424 332 1417 q 358 1438 349 1431 q 367 1369 357 1404 q 397 1311 378 1335 q 443 1288 417 1288 q 511 1308 489 1288 q 552 1361 535 1328 q 597 1451 569 1394 q 629 1424 615 1436 q 654 1401 643 1413 l 676 1379 q 630 1254 664 1317 q 546 1151 596 1192 q 432 1110 496 1110 m 315 1463 q 314 1477 314 1469 q 314 1490 314 1485 l 314 1515 q 314 1538 314 1526 q 315 1561 314 1550 l 315 1608 q 407 1699 363 1657 q 493 1779 451 1742 q 574 1856 535 1817 q 649 1933 613 1894 q 657 1760 656 1839 q 660 1678 657 1719 q 668 1594 663 1638 q 583 1561 628 1578 q 492 1528 539 1544 q 400 1494 444 1510 q 315 1463 356 1478 z "},"ặ":{"ha":601,"x_min":-29,"x_max":676,"o":"m 360 3 q 365 49 363 26 q 371 93 368 71 l 379 171 q 382 207 381 190 q 385 238 383 224 l 264 238 l 208 38 q 136 28 178 33 q 58 19 94 24 q 15 14 36 17 q -29 8 -7 11 l 81 372 q 125 521 100 438 q 176 692 150 604 q 224 856 201 779 q 261 986 247 933 q 453 1003 356 993 q 644 1029 551 1013 q 631 853 638 951 q 620 651 625 756 q 610 446 615 547 q 603 248 607 350 q 594 39 599 146 q 553 33 574 36 q 511 28 532 31 q 435 15 476 22 q 360 3 393 8 m 297 376 q 328 378 306 376 q 372 381 351 379 q 397 382 393 382 q 403 456 397 400 q 414 572 408 511 q 420 647 417 608 q 428 725 424 685 l 436 846 l 415 844 l 383 725 l 297 376 m 242 -267 q 158 -230 186 -267 q 131 -147 131 -193 q 162 -61 131 -99 q 256 -24 193 -24 q 356 -58 324 -24 q 389 -136 389 -93 q 347 -229 389 -192 q 242 -267 306 -267 m 432 1110 q 342 1147 382 1110 q 281 1240 301 1183 q 263 1354 260 1296 l 293 1382 q 308 1396 300 1389 q 325 1410 317 1403 q 340 1424 332 1417 q 358 1438 349 1431 q 367 1369 357 1404 q 397 1311 378 1335 q 443 1288 417 1288 q 511 1308 489 1288 q 552 1361 535 1328 q 597 1451 569 1394 q 629 1424 615 1436 q 654 1401 643 1413 l 676 1379 q 630 1254 664 1317 q 546 1151 596 1192 q 432 1110 496 1110 z "},"ằ":{"ha":601,"x_min":-29,"x_max":676,"o":"m 360 3 q 365 49 363 26 q 371 93 368 71 l 379 171 q 382 207 381 190 q 385 238 383 224 l 264 238 l 208 38 q 136 28 178 33 q 58 19 94 24 q 15 14 36 17 q -29 8 -7 11 l 81 372 q 125 521 100 438 q 176 692 150 604 q 224 856 201 779 q 261 986 247 933 q 453 1003 356 993 q 644 1029 551 1013 q 631 853 638 951 q 620 651 625 756 q 610 446 615 547 q 603 248 607 350 q 594 39 599 146 q 553 33 574 36 q 511 28 532 31 q 435 15 476 22 q 360 3 393 8 m 297 376 q 328 378 306 376 q 372 381 351 379 q 397 382 393 382 q 403 456 397 400 q 414 572 408 511 q 420 647 417 608 q 428 725 424 685 l 436 846 l 415 844 l 383 725 l 297 376 m 432 1110 q 342 1147 382 1110 q 281 1240 301 1183 q 263 1354 260 1296 l 293 1382 q 308 1396 300 1389 q 325 1410 317 1403 q 340 1424 332 1417 q 358 1438 349 1431 q 367 1369 357 1404 q 397 1311 378 1335 q 443 1288 417 1288 q 511 1308 489 1288 q 552 1361 535 1328 q 597 1451 569 1394 q 629 1424 615 1436 q 654 1401 643 1413 l 676 1379 q 630 1254 664 1317 q 546 1151 596 1192 q 432 1110 496 1110 m 589 1469 q 519 1486 554 1478 q 453 1503 485 1494 q 336 1531 396 1515 q 236 1560 276 1547 q 256 1658 244 1600 q 276 1769 267 1715 l 301 1900 q 356 1842 329 1871 q 410 1786 383 1814 q 508 1682 456 1738 q 599 1582 560 1626 l 589 1469 z "},"ẳ":{"ha":601,"x_min":-29,"x_max":703,"o":"m 360 3 q 365 49 363 26 q 371 93 368 71 l 379 171 q 382 207 381 190 q 385 238 383 224 l 264 238 l 208 38 q 136 28 178 33 q 58 19 94 24 q 15 14 36 17 q -29 8 -7 11 l 81 372 q 125 521 100 438 q 176 692 150 604 q 224 856 201 779 q 261 986 247 933 q 453 1003 356 993 q 644 1029 551 1013 q 631 853 638 951 q 620 651 625 756 q 610 446 615 547 q 603 248 607 350 q 594 39 599 146 q 553 33 574 36 q 511 28 532 31 q 435 15 476 22 q 360 3 393 8 m 297 376 q 328 378 306 376 q 372 381 351 379 q 397 382 393 382 q 403 456 397 400 q 414 572 408 511 q 420 647 417 608 q 428 725 424 685 l 436 846 l 415 844 l 383 725 l 297 376 m 451 1453 q 466 1515 451 1490 q 499 1557 481 1539 q 530 1586 515 1574 q 544 1608 544 1599 q 540 1616 544 1611 q 529 1621 536 1621 q 496 1607 515 1621 q 456 1576 476 1593 l 433 1658 q 557 1708 497 1708 q 589 1706 571 1708 q 617 1696 607 1703 q 640 1672 629 1688 q 656 1619 651 1656 q 642 1568 656 1589 q 607 1532 628 1547 q 569 1501 585 1517 q 544 1458 553 1485 l 518 1456 l 451 1453 m 458 1110 q 368 1147 408 1110 q 307 1240 328 1183 q 289 1354 286 1296 l 319 1382 q 335 1396 326 1389 q 351 1410 343 1403 q 367 1424 358 1417 q 385 1438 375 1431 q 394 1369 383 1404 q 424 1311 404 1335 q 469 1288 443 1288 q 538 1308 515 1288 q 578 1361 561 1328 q 624 1451 596 1394 q 656 1424 642 1436 q 681 1401 669 1413 l 703 1379 q 656 1254 690 1317 q 572 1151 622 1192 q 458 1110 522 1110 z "},"ẵ":{"ha":601,"x_min":-29,"x_max":864,"o":"m 360 3 q 365 49 363 26 q 371 93 368 71 l 379 171 q 382 207 381 190 q 385 238 383 224 l 264 238 l 208 38 q 136 28 178 33 q 58 19 94 24 q 15 14 36 17 q -29 8 -7 11 l 81 372 q 125 521 100 438 q 176 692 150 604 q 224 856 201 779 q 261 986 247 933 q 453 1003 356 993 q 644 1029 551 1013 q 631 853 638 951 q 620 651 625 756 q 610 446 615 547 q 603 248 607 350 q 594 39 599 146 q 553 33 574 36 q 511 28 532 31 q 435 15 476 22 q 360 3 393 8 m 297 376 q 328 378 306 376 q 372 381 351 379 q 397 382 393 382 q 403 456 397 400 q 414 572 408 511 q 420 647 417 608 q 428 725 424 685 l 436 846 l 415 844 l 383 725 l 297 376 m 432 1110 q 342 1147 382 1110 q 281 1240 301 1183 q 263 1354 260 1296 l 293 1382 q 308 1396 300 1389 q 325 1410 317 1403 q 340 1424 332 1417 q 358 1438 349 1431 q 367 1369 357 1404 q 397 1311 378 1335 q 443 1288 417 1288 q 511 1308 489 1288 q 552 1361 535 1328 q 597 1451 569 1394 q 629 1424 615 1436 q 654 1401 643 1413 l 676 1379 q 630 1254 664 1317 q 546 1151 596 1192 q 432 1110 496 1110 m 326 1506 q 283 1538 308 1518 q 251 1567 258 1558 q 269 1602 251 1567 q 321 1689 286 1638 q 397 1775 353 1738 q 492 1813 440 1813 q 549 1794 524 1813 q 594 1753 575 1776 q 627 1711 614 1729 q 646 1693 640 1693 q 699 1717 674 1693 q 747 1772 724 1742 q 789 1818 771 1801 q 805 1806 797 1813 q 819 1794 813 1800 q 833 1784 826 1789 q 844 1775 839 1779 q 855 1767 850 1771 q 864 1757 860 1763 q 797 1636 835 1689 q 722 1555 769 1593 q 622 1517 675 1517 q 571 1531 589 1517 q 540 1564 553 1546 q 513 1597 528 1582 q 468 1611 497 1611 q 416 1592 442 1611 q 367 1547 390 1572 q 326 1506 344 1522 z "}}}
